<?xml version="1.0" encoding="utf-8"?>
<!-- Generator: Adobe Illustrator 21.0.2, SVG Export Plug-In . SVG Version: 6.00 Build 0)  -->
<svg version="1.1" id="root" xmlns="http://www.w3.org/2000/svg" xmlns:xlink="http://www.w3.org/1999/xlink" x="0px" y="0px"
	 viewBox="0 0 146.1 167.3" style="enable-background:new 0 0 146.1 167.3;" xml:space="preserve">
<style type="text/css">
	.st0{fill:#FFFFFF;}
</style>
<path id="bin" class="st0" d="M0,0v14h8.5L20,152.8c0.7,8.2,7.6,14.5,15.8,14.5h74.4c8.2,0,15.1-6.4,15.8-14.5L137.6,14h8.5V0H0z
	 M115.3,116.9L103,100.2l12.3-16.7l9.2,12.5l-0.8,9.6L115.3,116.9z M123,113.8l-1,12.1l-4-5.4L123,113.8z M27,155.1
	c-0.4-0.9-0.6-1.8-0.7-2.8L24,125.6l0.9-1.3L37.3,141L27,155.1z M25,42.6l12.3,16.7L25,76.1l-5.7-7.7L18,52.1L25,42.6z M17.4,45.5
	l-1.2-14.8l6.1,8.2L17.4,45.5z M72.9,59.3l12.3-16.7l12.3,16.7L85.2,76.1L72.9,59.3z M82.5,79.8L70.2,96.5L57.8,79.8L70.2,63
	L82.5,79.8z M70.2,55.7L57.8,38.9l12.3-16.7l12.3,16.7L70.2,55.7z M67.4,59.3L55.1,76.1L42.8,59.3l12.3-16.7L67.4,59.3z M52.4,79.8
	L40,96.5L27.7,79.8L40,63L52.4,79.8z M55.1,83.4l12.3,16.7l-12.3,16.7l-12.3-16.7L55.1,83.4z M70.2,103.9l12.3,16.7l-12.3,16.7
	l-12.3-16.7L70.2,103.9z M72.9,100.2l12.3-16.7l12.3,16.7l-12.3,16.7L72.9,100.2z M87.9,79.8L100.3,63l12.3,16.7l-12.3,16.7
	L87.9,79.8z M103,59.3l12.3-16.7l12.2,16.6l0,0.3l-12.2,16.6L103,59.3z M100.3,55.7L87.9,38.9l12.3-16.7l12.3,16.7L100.3,55.7z
	 M97.6,18.5L85.2,35.2L72.9,18.5l3.3-4.5h18L97.6,18.5z M99.6,14h1.3l-0.6,0.8L99.6,14z M70.2,14.8L69.5,14h1.3L70.2,14.8z
	 M67.4,18.5L55.1,35.2L42.8,18.5l3.3-4.5h18L67.4,18.5z M40,14.8L39.4,14h1.3L40,14.8z M52.4,38.9L40,55.7L27.7,38.9L40,22.2
	L52.4,38.9z M22.3,79.8l-1.8,2.5L20,76.7L22.3,79.8z M25,83.4l12.3,16.7L25,116.9l-1.9-2.5L21,88.8L25,83.4z M27.7,120.6L40,103.9
	l12.3,16.7L40,137.3L27.7,120.6z M55.1,124.3L67.4,141l-12.3,16.7L42.8,141L55.1,124.3z M70.2,144.7l12.1,16.3H58.1L70.2,144.7z
	 M72.9,141l12.3-16.7L97.6,141l-12.3,16.7L72.9,141z M87.9,120.6l12.3-16.7l12.3,16.7l-12.3,16.7L87.9,120.6z M118,79.8l8.8-11.9
	l-1.8,21.5L118,79.8z M128.1,52.6L118,38.9l12.6-17.1L128.1,52.6z M115.3,35.2L103,18.5l3.3-4.5H131L115.3,35.2z M34,14l3.3,4.5
	L25,35.2l-9.5-12.9L14.8,14H34z M29.7,158.8L40,144.7l12.1,16.3H35.8C33.5,161.1,31.3,160.2,29.7,158.8z M88.2,161.1l12.1-16.3
	l11.9,16.1c-0.6,0.1-1.3,0.2-1.9,0.2H88.2z M119.8,152.2c-0.2,2.7-1.6,5.1-3.6,6.7L103,141l12.3-16.7l6.1,8.3L119.8,152.2z"/>
</svg>
