<?xml version="1.0" encoding="utf-8"?>
<!-- Generator: Adobe Illustrator 21.0.2, SVG Export Plug-In . SVG Version: 6.00 Build 0)  -->
<svg version="1.1" id="Layer_1" xmlns="http://www.w3.org/2000/svg" xmlns:xlink="http://www.w3.org/1999/xlink" x="0px" y="0px"
	 viewBox="0 0 63 88" style="enable-background:new 0 0 63 88;" xml:space="preserve">
<style type="text/css">
	.st0{fill:#231F20;}
</style>
<path id="TRAP" class="st0" d="M55.3,78.8L31.8,12.3c0-0.1,0-0.1,0-0.2c0-0.3-0.1-0.6-0.3-0.9V0h-2v11.1c-0.3,0.3-0.4,0.6-0.4,1
	c0,0.1,0,0.1,0,0.2L11.8,52.2C11,54.2,12.5,72.7,13,74c0.4,1,3.6,5.2,4,5.5c0,0,9.4,3.3,19.5,3.3c5.8,0,12.2-0.7,18.2-2.7L55.3,78.8
	z M43.4,73.9l-0.1-0.4c0,0,0.1,0,0.1,0C43.4,73.6,43.4,73.7,43.4,73.9z M44.5,68.3c-0.2-0.2-0.5-0.4-0.7-0.6
	c-0.1-0.1-0.1-0.2-0.2-0.3c0.2,0,0.4-0.1,0.7-0.2L44.5,68.3z M42.3,65.6c0,0-0.1-0.1-0.1-0.1c-0.2-0.3-0.4-0.7-0.6-1l-0.9-4.6
	c0.5-0.1,1-0.2,1.5-0.3l1.5,5.7C43.2,65.4,42.8,65.5,42.3,65.6z M21.6,52.1c0.2,0,0.3,0,0.4,0.1l-0.1,0.5
	C21.8,52.5,21.6,52.3,21.6,52.1z M37.8,58.3c-0.1-0.1-0.1-0.2-0.2-0.3c-0.3-0.5-0.5-1.1-0.9-1.7c-0.1-0.2-0.2-0.3-0.4-0.5l-0.5-4.7
	c0.4,0,0.7-0.1,1.1-0.1l1.4,7.1C38.2,58.2,38,58.3,37.8,58.3z M23.3,61.3c0.2,0.1,1.2,0.9,1.2,1c-0.3,0.4-0.6,0.8-0.8,1.1
	c-0.3,0.6-0.6,1.1-0.9,1.7c-0.4,0.8-0.7,1.8-1.4,2.3c0,0,0,0,0,0l0.7-3.8c0.2-0.2,0.3-0.4,0.4-0.7c0.2-0.7,0.2-1.1,0-1.5l0-0.1
	C22.7,61.2,23,61.2,23.3,61.3C23.2,61.2,23.3,61.2,23.3,61.3z M24.1,52.2c0.5,0.2,0.7-0.2,0.9-0.7c0.7,0,1.4,0,2.1,0l-0.4,6.4
	c-0.2-0.2-0.4-0.4-0.6-0.6c-0.5-0.4-0.9-0.8-1.2-1.3c-0.4-0.5-0.9-1-1.3-1.5L24.1,52.2C24.1,52.2,24.1,52.2,24.1,52.2z M34.2,53.8
	c-0.1,0-0.1-0.1-0.2-0.1c-0.4-0.1-0.9-0.1-1.4,0l-0.1-2.3c0.4,0,0.9,0,1.3-0.1L34.2,53.8z M29.3,48c0.3-0.4,0.6-1,0.7-1.4
	c0.2-0.6-0.2-1.9-0.4-2.5l0.1-1.3c0.2,0,0.5,0,0.7,0l0.2,6.7c-0.4,0-0.9,0-1.3,0L29.3,48z M29.8,40.8l0.4-6.3l0.2,6.3
	C30.1,40.8,29.9,40.8,29.8,40.8z M29.1,51.5c0.5,0,1,0,1.5,0l0.1,3.2c-0.7,0.5-1.4,1.2-1.9,1.8c0,0,0,0,0,0L29.1,51.5z M32.6,49.4
	l-0.2-6.7c0.2,0,0.4,0,0.6,0l0.8,6.7C33.3,49.4,32.9,49.4,32.6,49.4z M32.3,40.7l-0.1-5.1l0.6,5C32.6,40.7,32.5,40.7,32.3,40.7z
	 M35.7,49.2l-0.8-6.7c0.1,0,0.3,0,0.4-0.1l1.3,6.7C36.3,49.1,36,49.2,35.7,49.2z M34.7,40.5l-0.4-3.2l0.6,3.2
	C34.9,40.4,34.8,40.4,34.7,40.5z M28.3,32.2c-0.2,0-0.4,0-0.5,0l0.8-4.4L28.3,32.2z M28.1,34.2C28.1,34.2,28.1,34.2,28.1,34.2
	l-0.3,6.6c-0.5,0-1.1-0.1-1.6-0.1l1.2-6.5C27.6,34.2,27.8,34.2,28.1,34.2z M40.4,57.9L39,50.8c0.3,0,0.6-0.1,0.8-0.1l1.9,7
	C41.2,57.8,40.8,57.8,40.4,57.9z M38.6,48.9L37.3,42c0.1,0,0.1,0,0.2,0l1.8,6.8C39.1,48.8,38.9,48.8,38.6,48.9z M36.9,40.1l-0.2-0.8
	L36.9,40.1C37,40.1,37,40.1,36.9,40.1z M25.7,32c-0.2,0-0.5-0.1-0.7-0.1l1.6-5.2L25.7,32z M25.3,34l-1.2,6.4c-0.1,0-0.1,0-0.2,0
	c-0.4-0.3-0.7-0.6-1.1-0.9c-0.1,0-0.2-0.1-0.3-0.1l1.8-5.6C24.7,33.9,25,34,25.3,34z M20.8,57.7c0,0.2,0.1,0.5,0.1,0.7l-0.1,0.4
	c0-0.1,0-0.1-0.1-0.2c-0.1-0.3-0.4-0.8-0.4-1.1C20.5,57.6,20.6,57.7,20.8,57.7z M30.8,66.5c0.1-0.3,0.1-0.7,0.2-1l0,1.7
	c-0.2,0-0.3,0-0.5,0C30.7,67,30.7,66.7,30.8,66.5z M33.1,66c0.4,0,0.8-0.1,1-0.1c0.3,0,0.5,0,0.8,0c0.3-0.1,0.5-0.3,0.7-0.4l0.1,1.3
	c-0.9,0.1-1.7,0.2-2.6,0.3L33.1,66z M47.3,70.9l-1.1-4.1c0.8-0.2,1.7-0.5,2.5-0.7l1.5,4.3C49.2,70.6,48.2,70.7,47.3,70.9z
	 M50.9,72.3l1.7,4.9c-0.2-0.2-0.4-0.3-0.6-0.5c-0.2-0.3-0.4-0.5-0.6-0.8c-0.6-0.8-1.3-1.6-1.9-2.3c-0.3-0.3-0.5-0.6-0.8-0.9
	C49.5,72.6,50.2,72.4,50.9,72.3z M45.7,64.9l-1.5-5.6c0.7-0.1,1.3-0.3,1.9-0.5l1.9,5.4C47.2,64.4,46.5,64.6,45.7,64.9z M43.6,57.3
	l-1.8-6.9c0.4-0.1,0.8-0.2,1.2-0.2l2.4,6.7C44.8,57,44.2,57.2,43.6,57.3z M41.3,48.4l-1.8-6.9c0.2,0,0.3-0.1,0.5-0.2l2.4,6.9
	C42,48.3,41.7,48.4,41.3,48.4z M38.9,39.6l-1.1-4.2l1.4,4.1C39.2,39.5,39,39.5,38.9,39.6z M23.1,31.5c-0.2-0.1-0.3-0.1-0.4-0.2
	l1.6-3.6L23.1,31.5z M22.5,33.4l-2.1,6.5c-0.6-0.1-1.1-0.2-1.5-0.3l2.9-6.4C22,33.2,22.2,33.3,22.5,33.4z M19.1,41.6
	C19,41.8,19,42.1,19,42.3c0,0.3,0.2,0.5,0.4,0.8l-0.7,2.3c-0.6,0.6-1.2,1.3-2,1.8c-0.5,0.4-1.1,0.5-1.6,0.9l3.1-6.8
	C18.4,41.4,18.7,41.5,19.1,41.6z M25.5,79.1L25.5,80c-0.6-0.1-1.2-0.2-1.7-0.2C24.5,79.6,25.2,79.4,25.5,79.1z M27.8,74.9
	C27.8,74.9,27.8,74.9,27.8,74.9c1.2-0.1,2.3-0.2,3.5-0.3l0.2,6c-1.4-0.1-2.8-0.2-4-0.4L27.8,74.9z M28.7,72.8c0.4-1,0.9-2.1,1.3-3.1
	c0-0.1,0.1-0.2,0.1-0.3c0.4,0,0.7-0.1,1.1-0.1l0.1,3.4C30.4,72.7,29.5,72.7,28.7,72.8z M33.1,69c0.9-0.1,1.8-0.2,2.7-0.3l0.4,3.5
	c-1,0.1-2.1,0.2-3,0.3L33.1,69z M37.9,68.4c0.3,0,0.5-0.1,0.8-0.1c0.1,0.1,0.3,0.2,0.4,0.4c0.3,0.3,0.7,0.7,1,1
	c0.2,0.2,0.4,0.4,0.6,0.6l0.3,1.4c-0.9,0.1-1.8,0.2-2.7,0.3L37.9,68.4z M41.3,73.7l1.3,6.8c-1.1,0.1-2.3,0.2-3.4,0.2L38.5,74
	C39.4,73.9,40.4,73.8,41.3,73.7z M43.9,76.6c0.3,0.2,0.6,0.4,1,0.5c0.6,0,1.3,0,1.9,0l0.7,2.8c-1,0.2-2,0.3-2.9,0.4L43.9,76.6z
	 M49.2,78c0.5,0.2,0.9,0.5,1.4,0.7c0.3,0.1,0.5,0.1,0.8,0.2c0.1,0,0.2,0,0.3,0c-0.7,0.2-1.4,0.4-2.1,0.5L49.2,78z M33.5,80.7
	l-0.2-6.2c1-0.1,2.1-0.2,3.2-0.3l0.7,6.6C36,80.8,34.7,80.8,33.5,80.7z"/>
<g id="SCISSORS">
	<path d="M70,48.4L70,48.4c-4.2-5-11.7-5.7-16.8-1.4l-3.5,2.9l-6.9-8.2l-0.3-19.4c-0.1-3.7-1.8-7.3-4.8-9.6l-5.3-4.2l0.3,21.1
		L19.1,13.6l-1.3,6.6c-0.7,3.7,0.3,7.5,2.7,10.3L33,45.9l0.2,10.3l-4.5,0.1c-6.6,0.1-11.8,5.5-11.7,12.1l0,0
		C17,74.9,22.5,80.1,29,80l5.1-0.1c2.6,0,4.6-2.2,4.6-4.7l-0.2-14.5l-0.2-9.8l2.9-2.3l7.5,8.3c0,0,0,0,0,0L58.1,68
		c1.7,2,4.6,2.2,6.6,0.6l3.9-3.3C73.6,61,74.2,53.5,70,48.4z M36.1,67.7c0.1,4.2-3.4,7.7-7.8,7.8c-4.4,0.1-8-3.3-8.1-7.5
		c-0.1-4.2,3.4-7.7,7.8-7.8C32.4,60.1,36,63.4,36.1,67.7z M35.5,45c-0.5-1.4,0.2-2.9,1.6-3.4s2.9,0.2,3.4,1.6
		c0.5,1.4-0.2,2.9-1.6,3.4C37.5,47,36,46.3,35.5,45z M66.2,61.3c-3.4,2.8-8.3,2.5-11-0.7c-2.7-3.2-2.2-8.2,1.1-11
		c3.4-2.8,8.3-2.5,11,0.7C70,53.5,69.5,58.4,66.2,61.3z"/>
	<ellipse transform="matrix(0.9363 -0.3511 0.3511 0.9363 -13.0388 16.1234)" cx="37.9" cy="44" rx="1.5" ry="1.5"/>
</g>
<g id="POISON">
	<path id="z_2_" class="st0" d="M28.9,11.4l-7,9l7.8-1l0.6,5.4l-15.7,2.6l-1.4-4.9l8-9.9l-8.4,1.6L12.2,9L28,6.8L28.9,11.4z"/>
	<path id="z_1_" class="st0" d="M44.7,18.4l-5.6,7.2l6.2-0.8l0.5,4.3l-12.5,2.1l-1.1-3.9l6.4-7.9l-6.7,1.3l-0.6-4.1l12.6-1.7
		L44.7,18.4z"/>
	<path id="z" class="st0" d="M32.1,35.9l-3.7,4.7l4.1-0.6l0.3,2.9l-8.3,1.4l-0.7-2.6l4.2-5.2l-4.4,0.8l-0.4-2.7l8.3-1.1L32.1,35.9z"
		/>
	<path id="poison_1_" class="st0" d="M20.2,83.6l33.4-4.5L41.2,62.7l-0.8-6.2l2.4-0.3l-1-7.5l-18.2,2.4l1,7.5l2.4-0.3l0.8,6.2
		L20.2,83.6z M26.4,56.2l-0.4-3.3l14-1.9l0.4,3.3L38,54.6l1.2,8.8l10.5,14.1l-26.2,3.5l6.4-16.3l-1.2-8.8L26.4,56.2z"/>
	<polygon id="poison" class="st0" points="25.6,79.4 47.2,76.5 40.4,67.3 39.2,67.5 42.8,72.1 37.8,67.7 29.8,68.7 	"/>
</g>
<g id="HEAL">
	<path id="heal-2" class="st0" d="M24.2,89l-3.3-2.6l5.2-6.4l3.7,2.9l21.1-26.3L49,55.1l1.7-2.2l-2.8-2.2l1.6-2l-1.4-1.2l9.6-12
		l-1.1-3.2L45.9,45.8l-1.4-1.2l-1.6,2L40,44.4l-1.7,2.2l-1.8-1.5L15.4,71.5l3.7,3L14,80.8l-3.3-2.6l-1.9,2.4l13.6,10.8L24.2,89z
		 M21.5,68.3l4,3.2l0.9-1.1l-4-3.2l1.2-1.5l2.4,1.9l0.9-1.1l-2.4-1.9l1.2-1.5l2.4,1.9l0.9-1.1l-2.4-1.9l1.2-1.5l4,3.2l0.9-1.1
		l-4-3.2l1.2-1.5l2.4,1.9l0.9-1.1L30.5,57l1.2-1.5l2.4,1.9l0.9-1.1l-2.4-1.9l1.2-1.5l4,3.2l0.9-1.1l-4-3.2l2.3-2.9l10.1,8l-17.6,22
		l-10.1-8L21.5,68.3z"/>
	<polygon id="heal-1" class="st0" points="18.8,7.5 29.5,36.6 33.9,17 39.8,27.8 49.5,26.7 49.9,30.5 37.7,31.9 35.4,27.7 
		30.3,50.2 20.5,23.2 18.9,34.5 5.3,36 4.9,32.2 15.5,31 	"/>
</g>
<g id="TORCH">
	<polygon id="torch2" class="st0" points="20.7,59.6 25.8,67.9 28.3,75.6 36.7,66.7 29.7,62.5 	"/>
	<path id="torch3" class="st0" d="M25.2,69c-0.4-1-5.6-7.5-5.6-7.5l-2.8,8.8l-5.5,15.4l-6.9,25.3c0,0,1.5,2.7,2.4,1.5
		c0.9-1.3,20.1-35.6,20.1-35.6S25.6,70,25.2,69z"/>
	<polygon id="torch1" class="st0" points="32.9,54.3 23.2,52 22.3,55.1 22,55.2 22.3,55.2 21.6,57.6 29.5,60 37.7,65 41.2,59.3 	"/>
	<path id="smoke" class="st0" d="M44.6,15.9c0-1.5-0.2-2.9-0.6-4.2c-0.4-1.3-0.9-2.3-1.5-3.2c-0.6-0.9-1.2-1.5-1.8-2
		c-0.6-0.5-1.1-0.8-1.4-1c-0.2-0.1-0.3-0.2-0.4-0.2c-0.1,0-0.1-0.1-0.1-0.1s0.1,0.1,0.4,0.4C39.4,6,39.7,6.5,40.1,7
		c0.4,0.6,0.7,1.3,1,2.2c0.1,0.4,0.3,0.9,0.4,1.4c0.1,0.5,0.2,1,0.2,1.6c0.1,1.1,0.1,2.3-0.2,3.5c-0.1,0.3-0.1,0.6-0.1,0.9
		c-0.1,0.3-0.2,0.6-0.2,1c-0.1,0.6-0.4,1.3-0.6,2l-0.2,0.5l-0.2,0.5c-0.1,0.4-0.2,0.7-0.4,1.1c-0.3,0.7-0.5,1.5-0.7,2.2
		c-0.5,1.5-1,3.1-1.4,4.7c-0.4,1.6-0.7,3.4-0.7,5.2c0,1.8,0.5,3.6,1.1,5.1c0.2,0.4,0.3,0.7,0.5,1.1c0.2,0.3,0.3,0.7,0.5,1l0,0.1
		c-0.1-0.2,0,0,0-0.1l0,0l0,0l0.1,0.1l0.1,0.2c0.1,0.2,0.1,0.3,0.2,0.5l0.1,0.2l0.1,0.2c0,0.1,0.1,0.2,0.1,0.4
		c0,0.1,0.1,0.2,0.1,0.4c0,0.1,0.1,0.3,0.1,0.4c0.1,0.3,0.1,0.6,0.1,0.8c0,0.3,0.1,0.6,0.1,0.8c0,0.3,0,0.6,0,0.8
		c-0.1,1.1-0.3,2.1-0.5,3c-0.2,0.9-0.5,1.7-0.7,2.4c-0.3,0.6-0.5,1.2-0.6,1.5c-0.2,0.3-0.2,0.5-0.2,0.5s0.2-0.1,0.4-0.4
		c0.3-0.3,0.7-0.7,1.1-1.2c0.5-0.6,1-1.3,1.5-2.2c0.5-0.9,1-2,1.4-3.2c0.1-0.3,0.1-0.7,0.2-1c0.1-0.3,0.1-0.7,0.1-1.1
		c0.1-0.4,0-0.7,0-1.1c0-0.2,0-0.4,0-0.6c0-0.2-0.1-0.4-0.1-0.6c0-0.2-0.1-0.4-0.1-0.6l-0.1-0.3l-0.1-0.3c0-0.2-0.1-0.3-0.1-0.5
		l-0.1-0.3l0-0.1l0,0l0,0c0-0.1,0,0.1,0-0.1l0-0.1c-0.1-0.3-0.2-0.7-0.3-1c-0.1-0.3-0.2-0.7-0.3-1c-0.1-0.3-0.2-0.7-0.3-1
		c-0.1-0.3-0.1-0.7-0.2-1c0-0.3-0.1-0.6-0.1-1l0-0.5c0-0.2,0-0.3,0-0.5c0-1.3,0.3-2.8,0.7-4.2c0.3-1.5,0.8-3,1.2-4.5
		c0.2-0.8,0.4-1.5,0.6-2.3c0.1-0.4,0.2-0.7,0.3-1.1l0.1-0.6l0.1-0.6c0.2-0.8,0.4-1.6,0.4-2.3c0-0.4,0.1-0.8,0.1-1.2
		C44.6,16.7,44.6,16.3,44.6,15.9z"/>
	<path id="smoke_1_" class="st0" d="M37.1,5.8c0-1.5-0.2-2.9-0.6-4.2c-0.4-1.3-0.9-2.3-1.5-3.2c-0.6-0.9-1.2-1.5-1.8-2
		c-0.6-0.5-1.1-0.8-1.4-1c-0.2-0.1-0.3-0.2-0.4-0.2c-0.1,0-0.1-0.1-0.1-0.1s0.1,0.1,0.4,0.4c0.2,0.3,0.6,0.7,0.9,1.3
		c0.4,0.6,0.7,1.3,1,2.2c0.1,0.4,0.3,0.9,0.4,1.4c0.1,0.5,0.2,1,0.2,1.6c0.1,1.1,0.1,2.3-0.2,3.5c-0.1,0.3-0.1,0.6-0.1,0.9
		c-0.1,0.3-0.2,0.6-0.2,1c-0.1,0.6-0.4,1.3-0.6,2L32.9,10l-0.2,0.5c-0.1,0.4-0.2,0.7-0.4,1.1c-0.3,0.7-0.5,1.5-0.7,2.2
		c-0.5,1.5-1,3.1-1.4,4.7c-0.4,1.6-0.7,3.4-0.7,5.2c0,1.8,0.5,3.6,1.1,5.1c0.2,0.4,0.3,0.7,0.5,1.1c0.2,0.3,0.3,0.7,0.5,1l0,0.1
		c-0.1-0.2,0,0,0-0.1l0,0l0,0l0.1,0.1l0.1,0.2c0.1,0.2,0.1,0.3,0.2,0.5l0.1,0.2l0.1,0.2c0,0.1,0.1,0.2,0.1,0.4
		c0,0.1,0.1,0.2,0.1,0.4c0,0.1,0.1,0.3,0.1,0.4c0.1,0.3,0.1,0.6,0.1,0.8c0,0.3,0.1,0.6,0.1,0.8c0,0.3,0,0.6,0,0.8
		c-0.1,1.1-0.3,2.1-0.5,3c-0.2,0.9-0.5,1.7-0.7,2.4c-0.3,0.6-0.5,1.2-0.6,1.5c-0.2,0.3-0.2,0.5-0.2,0.5s0.2-0.1,0.4-0.4
		c0.3-0.3,0.7-0.7,1.1-1.2c0.5-0.6,1-1.3,1.5-2.2c0.5-0.9,1-2,1.4-3.2c0.1-0.3,0.1-0.7,0.2-1c0.1-0.3,0.1-0.7,0.1-1.1
		c0.1-0.4,0-0.7,0-1.1c0-0.2,0-0.4,0-0.6c0-0.2-0.1-0.4-0.1-0.6c0-0.2-0.1-0.4-0.1-0.6L35.2,31l-0.1-0.3c0-0.2-0.1-0.3-0.1-0.5
		L34.9,30l0-0.1l0,0l0,0c0-0.1,0,0.1,0-0.1l0-0.1c-0.1-0.3-0.2-0.7-0.3-1c-0.1-0.3-0.2-0.7-0.3-1c-0.1-0.3-0.2-0.7-0.3-1
		c-0.1-0.3-0.1-0.7-0.2-1c0-0.3-0.1-0.6-0.1-1l0-0.5c0-0.2,0-0.3,0-0.5c0-1.3,0.3-2.8,0.7-4.2c0.3-1.5,0.8-3,1.2-4.5
		c0.2-0.8,0.4-1.5,0.6-2.3c0.1-0.4,0.2-0.7,0.3-1.1l0.1-0.6l0.1-0.6c0.2-0.8,0.4-1.6,0.4-2.3C37,7.7,37,7.3,37,6.9
		C37.1,6.5,37.1,6.2,37.1,5.8z"/>
</g>
<g id="MATCHES">
	<path id="matches_1_" class="st0" d="M66.7,33.7L65.3,34L63,25.4c0.6-1.2,0.8-2.8,0.3-4.5c-0.8-2.9-2.9-4.8-4.8-4.3
		c-1.9,0.5-2.9,3.2-2.1,6.1c0.4,1.7,1.3,3,2.4,3.7l2.3,8.7l-4.8,1.3L54,27.8c0.6-1.2,0.8-2.8,0.3-4.5c-0.8-2.9-2.9-4.8-4.8-4.3
		c-1.9,0.5-2.9,3.2-2.1,6.1c0.4,1.7,1.3,3,2.4,3.7l2.3,8.7l-4.8,1.3L45,30.2c0.6-1.2,0.8-2.8,0.3-4.5c-0.8-2.9-2.9-4.8-4.8-4.3
		c-1.9,0.5-2.9,3.2-2.1,6.1c0.4,1.7,1.3,3,2.4,3.7l2.3,8.7l-4.8,1.3L36,32.5c0.6-1.2,0.8-2.8,0.3-4.5c-0.8-2.9-2.9-4.8-4.8-4.3
		s-2.9,3.2-2.1,6.1c0.4,1.7,1.3,3,2.4,3.7l2.3,8.7l-4.8,1.3L27,34.9c0.6-1.2,0.8-2.8,0.3-4.5c-0.8-2.9-2.9-4.8-4.8-4.3
		c-1.9,0.5-2.9,3.2-2.1,6.1c0.4,1.7,1.3,3,2.4,3.7l2.3,8.7l-4.8,1.3L18,37.3c0.6-1.2,0.8-2.8,0.3-4.5c-0.8-2.9-2.9-4.8-4.8-4.3
		c-1.9,0.5-2.9,3.2-2.1,6.1c0.4,1.7,1.3,3,2.4,3.7l2.3,8.7l-4.8,1.3L9,39.6c0.6-1.2,0.8-2.8,0.3-4.5c-0.8-2.9-2.9-4.8-4.8-4.3
		c-1.9,0.5-2.9,3.2-2.1,6.1c0.4,1.7,1.3,3,2.4,3.7l2.3,8.7l-1.3,0.3c-0.3,0.1-0.6,0.4-0.5,0.8l7.9,29.8c0.1,0.3,0.4,0.6,0.8,0.5
		l60.9-16c0.3-0.1,0.6-0.4,0.5-0.8l-7.9-29.8C67.4,33.8,67,33.6,66.7,33.7z M7.4,53.3L67,37.6l0.2,0.6L7.5,54L7.4,53.3z M61.2,27
		c0.3-0.1,0.5-0.2,0.8-0.4l2,7.7l-0.8,0.2L61.2,27C61.2,27,61.2,27,61.2,27z M60.3,27.1c0.1,0,0.2,0,0.2,0l2,7.7l-0.2,0.1L60.3,27.1
		z M52.2,29.4c0.3-0.1,0.5-0.2,0.8-0.4l2,7.7l-0.8,0.2L52.2,29.4C52.2,29.4,52.2,29.4,52.2,29.4z M51.3,29.4c0.1,0,0.2,0,0.3,0
		l2,7.7l-0.2,0.1L51.3,29.4z M43.2,31.7c0.3-0.1,0.5-0.2,0.8-0.4l2,7.7l-0.8,0.2L43.2,31.7z M42.3,31.8c0.1,0,0.2,0,0.3,0l2,7.7
		l-0.3,0.1L42.3,31.8z M34.2,34.1c0.3-0.1,0.5-0.2,0.8-0.4l2,7.7l-0.8,0.2L34.2,34.1z M33.3,34.2c0.1,0,0.2,0,0.3,0l2,7.7l-0.3,0.1
		L33.3,34.2z M25.3,36.5c0.3-0.1,0.5-0.2,0.7-0.3l2,7.7L27.2,44L25.3,36.5z M24.3,36.5c0.1,0,0.2,0,0.3,0l2,7.7l-0.3,0.1L24.3,36.5z
		 M16.3,38.8c0.3-0.1,0.5-0.2,0.7-0.3l2,7.7l-0.7,0.2L16.3,38.8z M15.3,38.9c0.1,0,0.2,0,0.3,0l2,7.6l-0.3,0.1L15.3,38.9z M7.3,41.2
		C7.5,41.1,7.8,41,8,40.8l2,7.7l-0.7,0.2L7.3,41.2z M6.3,41.3c0.1,0,0.2,0,0.4,0l2,7.6L8.3,49L6.3,41.3z M8,50.4l3-0.8l6-1.6l3-0.8
		l6-1.6l3-0.8l6-1.6l3-0.8l6-1.6l3-0.8l6-1.6l3-0.8l6-1.6l3-0.8l1.4-0.4l0.5,1.9L7.2,52.7l-0.5-1.9L8,50.4z M14.2,79.3L7.7,54.6
		l59.7-15.7l6.5,24.8L14.2,79.3z"/>
	<path id="zip" class="st0" d="M65.3,54.7l-48,12.6c-0.8,0.2-1.3,1-1.1,1.8l1.2,4.4c0.2,0.8,1,1.3,1.8,1.1l48-12.6
		c0.8-0.2,1.3-1,1.1-1.8l-1.2-4.4C66.9,55,66.1,54.5,65.3,54.7z"/>
</g>
<path id="TNT" class="st0" d="M56.1,33.8l-3.2,1.1l-0.7-2.1l-6,2l0.7,2.1l-6.5,2.2l-1.5-4.5l-3.8,1.3l-4.9-14.8l12-4
	c1.7-0.6,2.5-2.3,2-4l-0.2-0.5c-0.6-1.7-2.3-2.5-4-2L8.7,21.1c-1.7,0.6-2.5,2.3-2,4l0.2,0.5c0.6,1.7,2.3,2.5,4,2l12-4l4.9,14.8
	L24,39.6l1.5,4.5L19,46.3L18.2,44l-6,2l0.7,2.2l2.4-0.8l-5.6,1.9l17.1,51l46.3-15.5L56.1,33.8z M25.3,23.9l3.1-1l4.3,12.7l-3.1,1
	L25.3,23.9z M33,78.2l-2.1,0.7l-3.5-10.4l-3.9,1.3l-0.6-1.9l9.8-3.3l0.6,1.9l-3.9,1.3L33,78.2z M47.2,73.5l-9.5-6.6l2.9,8.8
	l-2.1,0.7l-4.1-12.3l2-0.7l9.5,6.6l-3-8.8l2-0.7l4.1,12.3L47.2,73.5z M54.9,70.9l-3.5-10.4l-3.9,1.3L47,59.9l9.8-3.3l0.6,1.9
	l-3.9,1.3L57,70.2L54.9,70.9z"/>
<path id="REVEAL" class="st0" d="M57.5,18.3c-9.1-8.9-20.9-11.5-26.4-5.9c-0.6,0.6-1,1.2-1.4,1.9L11.9,38.2c0,0,0,2,0.5,4.9
	L1.8,56.6c0,0-0.1,1.5,0.3,3.5l-4.7,6.7c0,0-2,7,7.8,8.7l7.5-5.1c1.3,0.3,2.7,0.5,4.3,0.6l11.1-8.6c4.1,1.5,6.7,1,6.7,1l25.9-16.8
	c1.3-0.5,2.4-1.2,3.3-2.2C69.5,39,66.6,27.2,57.5,18.3z M56.2,36c-2.3,2.3-7.7,0.6-12.2-3.8c-4.5-4.4-6.3-9.8-4-12.1
	c2.3-2.3,7.7-0.6,12.2,3.8C56.7,28.3,58.4,33.7,56.2,36z"/>
</svg>
