<?xml version="1.0" encoding="utf-8"?>
<!-- Generator: Adobe Illustrator 21.0.2, SVG Export Plug-In . SVG Version: 6.00 Build 0)  -->
<svg version="1.1" id="GOLD" xmlns="http://www.w3.org/2000/svg" xmlns:xlink="http://www.w3.org/1999/xlink" x="0px" y="0px"
	 viewBox="0 0 6.2 5.8" style="enable-background:new 0 0 6.2 5.8;" xml:space="preserve">
<style type="text/css">
	.st0{fill:#FDEA3A;}
	.st1{fill:#C4852C;}
</style>
<path id="GOLD-light" class="st0" d="M0.8,0.8C0.5,1.7,0.2,2.7,0.3,3.7c0,0.4,0.1,0.5,0.5,0.5c0.9,0.1,1.7-0.5,2.5-0.5
	c0.4,0,0.7-0.4,0.9-0.8C4.4,2,4.3,1.1,4,0.2C2.9,0,1.8,0.1,0.8,0.8z"/>
<path id="GOLD-dark" class="st1" d="M6.1,2.7c-0.5-0.8-1-1.6-1.5-2.4C4.5,0.1,4.4-0.2,4,0.1C4.3,1,4.4,1.9,4.2,2.8
	C4.1,3.2,3.7,3.6,3.3,3.6C2.4,3.7,1.7,4.3,0.8,4.1C0.4,4,0.3,3.9,0.3,3.6c-0.1-1,0.2-1.9,0.5-2.9C0.6,0.7,0.5,0.9,0.4,1
	C0,2.1-0.1,3.3,0.2,4.5c0.4,1.2,0.8,1.4,2,1.1c1.3-0.3,2.5-1.1,3.6-1.9C6.2,3.6,6.3,3.1,6.1,2.7z"/>
</svg>
