<?xml version="1.0" encoding="utf-8"?>
<!-- Generator: Adobe Illustrator 21.0.2, SVG Export Plug-In . SVG Version: 6.00 Build 0)  -->
<svg version="1.1" id="Layer_1" xmlns="http://www.w3.org/2000/svg" xmlns:xlink="http://www.w3.org/1999/xlink" x="0px" y="0px"
	 viewBox="0 0 126 176" style="enable-background:new 0 0 126 176;" xml:space="preserve">
<g>
	<path d="M47.1,83.1c1.4,0.2,2.3-0.7,2.8-3.5s0.8-4.7,1.1-6.7c0.3-2,0.1-3.1-2.2-6s-2.9-3.1-5.7-5.9c-2.2-2.2-3.6-4.3-5.1-4.6
		c-0.3,0.1-0.5,0.2-0.7,0.4c-1.5,1.1-2.8,3.9-2.8,3.9s-3.6,6.1-6.7,12.2c-0.9,2.2-1.2,3.3-1.1,4.1c1.5,0.6,4.9,2.1,9.4,3.3
		C42.1,81.9,45,82.6,47.1,83.1z"/>
	<path d="M47.1,83.1c-2.2-0.5-5.1-1.2-11.1-2.9c-4.5-1.3-7.9-2.7-9.4-3.3c0.2,1,1,1.6,2,3.1c3.3,3.3,5.7,5.6,7.4,6.8
		c1.5,1.2,4.3,1.9,10.9,1.7c1.1-0.1,2.2-0.2,3.3-0.3l-1.8-5.3C48.1,83.1,47.6,83.2,47.1,83.1z"/>
	<path d="M52.2,71.7c1.1,0.2,10.9,2.4,14.1,3c-0.2-1.6-1.7-2.6-3.4-4.1C61.1,69,50.7,62.1,45.4,59c-3.4-2-5.7-3.2-7.3-2.8
		c1.5,0.3,2.9,2.4,5.1,4.6c2.8,2.8,3.4,3,5.7,5.9c2.2,2.8,2.4,4,2.2,5.8C51.2,72.1,51.5,71.6,52.2,71.7z"/>
	<path d="M66.3,74.8c-3.1-0.7-13-2.8-14.1-3c-0.7-0.1-1,0.4-1.2,0.9c0,0.1,0,0.1,0,0.2c-0.3,2-0.5,3.9-1.1,6.7
		c-0.3,1.8-0.8,2.8-1.5,3.2l1.8,5.3c4-0.5,8-1.6,11.2-2.2c3.6-0.8,3.9-1.8,4.4-4.6C66.3,78.5,66.3,76.7,66.3,74.8
		C66.3,74.9,66.3,74.9,66.3,74.8z"/>
</g>
<g>
	<path d="M84.5,76.3c1.1,0.2,1.8-0.5,2.2-2.7c0.4-2.2,0.6-3.6,0.9-5.2c0.2-1.5,0.1-2.4-1.7-4.6s-2.2-2.4-4.4-4.6
		c-1.7-1.7-2.8-3.3-4-3.6c-0.2,0.1-0.4,0.2-0.5,0.3c-1.2,0.9-2.2,3-2.2,3s-2.8,4.7-5.2,9.4c-0.7,1.7-0.9,2.6-0.9,3.2
		c1.2,0.5,3.8,1.6,7.3,2.6C80.6,75.4,82.8,76,84.5,76.3z"/>
	<path d="M84.5,76.3c-1.7-0.4-4-0.9-8.6-2.2c-3.5-1-6.1-2.1-7.3-2.6c0.2,0.8,0.8,1.2,1.5,2.4c2.6,2.6,4.4,4.3,5.7,5.3
		c1.2,0.9,3.3,1.5,8.4,1.3c0.9-0.1,1.7-0.2,2.6-0.2l-1.4-4.1C85.2,76.3,84.9,76.4,84.5,76.3z"/>
	<path d="M88.4,67.5c0.9,0.2,8.4,1.9,10.9,2.3c-0.2-1.2-1.3-2-2.6-3.2c-1.4-1.2-9.4-6.6-13.6-9c-2.6-1.5-4.4-2.5-5.7-2.2
		c1.2,0.2,2.2,1.9,4,3.6c2.2,2.2,2.6,2.3,4.4,4.6c1.7,2.2,1.9,3.1,1.7,4.5C87.6,67.8,87.9,67.4,88.4,67.5z"/>
	<path d="M99.3,69.9c-2.4-0.5-10.1-2.2-10.9-2.3c-0.5-0.1-0.8,0.3-0.9,0.7c0,0.1,0,0.1,0,0.2c-0.2,1.5-0.4,3-0.9,5.2
		c-0.2,1.4-0.6,2.2-1.2,2.5l1.4,4.1c3.1-0.4,6.2-1.2,8.7-1.7c2.8-0.6,3-1.4,3.4-3.6C99.3,72.8,99.3,71.4,99.3,69.9
		C99.3,70,99.3,70,99.3,69.9z"/>
</g>
<g>
	<path d="M75.2,100.3c0.8,0.1,1.3-0.4,1.6-2.1c0.3-1.6,0.5-2.8,0.6-3.9c0.2-1.2,0.1-1.8-1.3-3.5s-1.7-1.8-3.3-3.5
		c-1.3-1.3-2.1-2.5-3-2.7c-0.2,0.1-0.3,0.1-0.4,0.2c-0.9,0.6-1.6,2.3-1.6,2.3s-2.1,3.6-3.9,7.2c-0.5,1.3-0.7,1.9-0.6,2.4
		c0.9,0.4,2.9,1.2,5.5,1.9C72.2,99.6,73.9,100,75.2,100.3z"/>
	<path d="M75.2,100.3c-1.3-0.3-3-0.7-6.5-1.7C66,97.8,64,97,63.1,96.6c0.1,0.6,0.6,0.9,1.2,1.8c1.9,1.9,3.3,3.3,4.3,4
		c0.9,0.7,2.5,1.1,6.4,1c0.6-0.1,1.3-0.1,1.9-0.2l-1.1-3.1C75.8,100.3,75.5,100.3,75.2,100.3z"/>
	<path d="M78.2,93.6c0.6,0.1,6.4,1.4,8.3,1.8c-0.1-0.9-1-1.5-2-2.4c-1.1-0.9-7.2-5-10.3-6.8c-2-1.2-3.3-1.9-4.3-1.6
		c0.9,0.2,1.7,1.4,3,2.7c1.6,1.6,2,1.8,3.3,3.5c1.3,1.6,1.4,2.3,1.3,3.4C77.6,93.8,77.8,93.5,78.2,93.6z"/>
	<path d="M86.5,95.4c-1.8-0.4-7.6-1.6-8.3-1.8c-0.4-0.1-0.6,0.2-0.7,0.5c0,0.1,0,0.1,0,0.1c-0.2,1.2-0.3,2.3-0.6,3.9
		c-0.2,1.1-0.5,1.6-0.9,1.9l1.1,3.1c2.3-0.3,4.7-0.9,6.6-1.3c2.1-0.5,2.3-1.1,2.6-2.7C86.5,97.6,86.5,96.5,86.5,95.4
		C86.5,95.4,86.5,95.4,86.5,95.4z"/>
</g>
</svg>
