<svg 
 xmlns="http://www.w3.org/2000/svg"
 xmlns:xlink="http://www.w3.org/1999/xlink"
 width="133px" height="1133px">
<path fill-rule="evenodd" fill="#3e3842"
 d="M131.347,19.127 C131.037,19.771 106.190,71.719 80.634,149.806 C83.273,158.599 85.896,167.716 88.471,177.179 C95.531,203.122 102.236,231.495 107.799,261.806 C113.379,292.107 117.846,324.347 120.349,357.888 C122.895,391.416 123.435,426.253 121.257,461.509 C120.630,470.352 120.000,479.229 119.369,488.134 C118.969,492.511 118.568,496.895 118.167,501.283 C117.733,505.693 117.130,510.212 116.616,514.680 C114.343,532.500 111.227,550.182 107.470,567.728 C104.699,580.706 101.579,593.574 98.259,606.334 C98.830,610.703 99.373,615.073 99.890,619.441 C101.912,636.817 103.695,654.158 104.878,671.412 C107.350,705.913 108.033,739.990 107.310,772.942 C106.824,797.102 105.533,820.655 103.602,843.355 C126.734,934.032 133.962,1000.953 109.848,1119.131 C108.933,1123.614 105.009,1126.703 100.630,1126.703 C100.002,1126.703 99.365,1126.640 98.727,1126.509 C93.630,1125.456 90.347,1120.448 91.393,1115.322 C109.775,1025.233 109.304,965.639 97.261,901.188 C94.856,919.001 92.109,936.052 89.140,952.203 C84.392,978.203 79.225,1001.913 73.956,1022.779 C70.010,1038.503 66.129,1052.645 62.467,1064.995 C62.943,1066.423 63.420,1067.826 63.899,1069.185 C68.783,1083.100 73.756,1093.310 77.442,1099.668 C80.363,1104.750 82.435,1107.333 82.836,1107.811 C82.823,1107.796 82.816,1107.788 82.799,1107.769 C87.992,1113.629 87.479,1122.613 81.654,1127.836 C75.829,1133.059 66.897,1132.543 61.704,1126.684 C61.045,1125.951 57.517,1121.661 53.082,1113.554 C51.854,1111.331 50.551,1108.807 49.205,1106.010 C48.588,1107.748 48.006,1109.358 47.461,1110.839 C46.016,1114.788 44.850,1117.821 44.034,1119.889 C43.163,1122.042 42.713,1123.153 42.713,1123.153 C39.767,1130.429 31.516,1133.925 24.282,1130.962 C17.049,1127.999 13.573,1119.699 16.519,1112.423 C16.626,1112.159 16.740,1111.899 16.861,1111.644 L17.027,1111.300 C17.027,1111.300 17.452,1110.414 18.275,1108.698 C19.125,1106.884 20.386,1104.136 21.983,1100.496 C25.164,1093.212 29.755,1082.377 34.990,1068.288 C35.005,1068.247 35.020,1068.205 35.035,1068.165 C31.113,1054.728 27.498,1039.147 24.565,1021.715 C22.716,1010.772 21.121,999.106 19.817,986.800 C19.480,983.731 19.160,980.608 18.890,977.414 C18.612,974.243 18.285,970.965 18.076,967.829 C17.959,966.242 17.841,964.645 17.723,963.040 L17.544,960.625 L17.453,959.309 L17.388,958.068 C17.215,954.756 17.039,951.408 16.862,948.025 C15.514,920.965 15.636,891.502 18.420,860.556 C19.009,852.812 19.977,845.001 20.873,837.089 C21.364,833.139 21.961,829.179 22.506,825.190 C23.028,821.196 23.677,817.201 24.353,813.189 C25.601,805.145 27.179,797.081 28.722,788.933 C29.575,784.879 30.432,780.805 31.293,776.714 C32.145,772.620 33.151,768.551 34.079,764.442 C38.135,747.078 42.858,729.609 47.950,712.072 C39.371,680.485 30.258,645.521 20.708,605.362 C6.118,544.009 1.998,474.511 8.464,398.800 C12.135,355.815 19.209,310.754 29.560,264.266 C29.292,259.989 29.053,255.743 28.773,251.537 C28.418,244.212 28.068,236.998 27.724,229.904 C27.504,222.804 27.287,215.823 27.075,208.972 C26.994,202.118 26.698,195.391 26.663,188.799 C26.248,162.429 26.786,138.242 27.433,116.788 C27.880,103.681 28.483,91.614 29.137,80.681 C26.730,74.924 24.421,69.545 22.243,64.575 C16.091,50.578 10.939,39.759 7.351,32.477 C5.557,28.836 4.153,26.079 3.207,24.250 C2.277,22.478 1.797,21.564 1.797,21.564 L1.682,21.344 C-1.963,14.402 0.678,5.802 7.580,2.136 C14.482,-1.530 23.032,1.126 26.677,8.069 C26.729,8.168 26.808,8.326 26.858,8.425 C26.858,8.425 27.377,9.487 28.385,11.544 C29.353,13.555 30.756,16.514 32.525,20.375 C32.952,21.307 33.402,22.294 33.870,23.331 C34.233,20.149 34.523,17.605 34.726,15.817 C35.009,13.601 35.155,12.458 35.155,12.458 C36.152,4.662 43.242,-0.845 50.992,0.157 C58.743,1.159 64.218,8.291 63.222,16.087 C63.166,16.520 63.092,16.946 63.000,17.364 L62.962,17.532 C62.962,17.532 62.737,18.538 62.302,20.489 C61.872,22.481 61.236,25.467 60.492,29.410 C58.976,37.286 56.877,48.940 54.735,63.895 C54.394,66.186 54.055,68.583 53.716,71.028 C59.121,85.064 65.015,101.258 71.022,119.361 C93.870,53.735 114.111,11.446 114.393,10.861 C116.662,6.153 122.295,4.186 126.978,6.469 C131.659,8.751 133.615,14.418 131.347,19.127 ZM101.152,512.580 C101.733,508.284 102.393,504.067 102.912,499.715 C103.403,495.335 103.893,490.961 104.382,486.593 L104.962,480.213 C105.162,478.053 105.369,475.895 105.447,473.729 C105.627,469.399 105.908,465.085 106.002,460.768 C107.160,426.255 105.676,392.227 102.264,359.519 C98.895,326.800 93.639,295.395 87.347,265.912 C81.617,238.980 74.998,213.658 68.090,190.292 C65.950,197.610 63.833,205.081 61.754,212.702 C56.012,233.755 50.327,256.822 45.190,281.350 C46.578,308.640 49.105,337.167 52.740,366.460 C54.687,382.623 57.323,398.962 60.132,415.474 C61.585,423.721 63.210,431.988 64.798,440.306 C66.593,448.578 68.316,456.912 70.204,465.242 C72.204,473.570 74.212,481.931 76.226,490.318 C77.259,494.519 78.293,498.726 79.329,502.939 C80.307,507.204 81.285,511.473 82.265,515.747 C85.701,531.208 88.806,546.775 91.568,562.421 C95.422,545.894 98.683,529.223 101.152,512.580 ZM92.835,772.476 C94.250,739.994 93.907,706.350 92.015,672.250 C91.413,661.000 90.570,649.705 89.516,638.390 C86.455,649.214 83.336,659.959 80.250,670.621 C76.010,685.194 71.876,699.641 67.997,713.959 C73.300,733.359 78.393,751.495 83.245,768.772 C86.073,778.839 88.794,788.529 91.398,797.908 C91.972,789.519 92.455,781.040 92.835,772.476 ZM54.505,769.065 C53.684,773.083 52.782,777.069 52.038,781.061 C51.283,785.051 50.531,789.022 49.783,792.975 C48.451,800.903 47.079,808.745 46.034,816.542 C45.459,820.433 44.909,824.305 44.486,828.169 C44.040,832.031 43.539,835.863 43.144,839.682 C42.439,847.328 41.655,854.870 41.243,862.339 C39.169,892.184 39.633,920.509 41.462,946.550 C41.699,949.805 41.933,953.026 42.164,956.212 L42.251,957.405 L42.350,958.512 L42.578,960.923 C42.729,962.525 42.879,964.119 43.029,965.703 C43.309,968.915 43.675,971.891 44.001,974.907 C44.314,977.901 44.681,980.879 45.067,983.829 C46.559,995.610 48.309,1006.710 50.272,1017.042 C50.511,1018.304 50.754,1019.553 50.999,1020.792 C51.404,1019.455 51.810,1018.108 52.216,1016.746 C58.192,996.591 64.378,973.638 69.947,948.300 C75.476,922.958 80.600,895.278 84.598,865.775 C85.201,861.227 85.776,856.632 86.328,852.001 C80.329,828.096 73.158,802.561 65.115,773.924 C62.996,766.379 60.826,758.650 58.618,750.746 C57.170,756.878 55.795,762.985 54.505,769.065 ZM39.031,600.954 C45.667,628.859 52.094,654.240 58.281,677.751 C59.581,673.549 60.892,669.345 62.209,665.138 C69.747,640.960 77.373,616.627 84.057,592.057 C82.986,584.485 81.836,576.920 80.604,569.368 C77.753,552.256 74.471,535.200 70.808,518.328 C69.867,514.124 68.926,509.924 67.987,505.730 C66.972,501.515 65.959,497.306 64.947,493.103 C62.905,484.672 60.869,476.266 58.842,467.893 C50.984,434.237 44.995,400.735 40.287,368.167 C38.544,356.258 37.026,344.468 35.692,332.829 C22.307,417.051 17.994,512.493 39.031,600.954 ZM47.550,127.865 C46.016,146.405 44.910,166.867 44.202,188.936 C44.013,194.815 43.881,200.812 43.799,206.909 C48.433,189.960 53.252,173.718 58.098,158.339 C54.573,147.647 51.036,137.465 47.550,127.865 ZM82.836,1107.811 C82.930,1107.918 82.927,1107.920 82.836,1107.811 Z"/>
</svg>