<svg 
 xmlns="http://www.w3.org/2000/svg"
 xmlns:xlink="http://www.w3.org/1999/xlink"
 width="385px" height="876px">
<path fill-rule="evenodd" fill="#39333d"
 d="M319.037,796.392 C309.627,791.626 301.730,786.077 295.101,780.242 C295.015,780.167 294.931,780.092 294.846,780.017 C294.611,779.808 294.388,779.597 294.155,779.387 C307.614,828.548 280.108,875.851 280.108,875.851 C280.108,875.851 260.995,868.414 247.494,816.372 C244.991,806.725 243.883,797.624 243.734,789.196 C242.697,790.776 241.634,792.325 240.530,793.819 C240.530,793.819 240.530,793.819 240.530,793.819 C240.530,793.819 240.530,793.819 240.530,793.819 C239.994,794.544 239.454,795.263 238.904,795.968 C238.904,795.964 238.903,795.959 238.903,795.955 C210.738,832.094 164.755,842.106 164.755,842.106 C164.755,842.106 157.338,822.889 186.422,777.666 C209.039,742.500 241.124,732.004 254.276,729.075 C254.277,729.074 254.278,729.072 254.278,729.071 C255.110,728.885 255.858,728.732 256.530,728.603 C256.802,728.300 257.043,728.033 257.261,727.790 C244.199,686.420 224.229,656.448 209.669,638.491 C208.769,647.038 205.960,663.620 197.178,682.835 C188.240,702.391 171.520,727.524 140.675,747.805 C144.433,754.612 147.068,766.614 126.404,774.728 C108.293,781.840 95.538,782.982 94.859,783.039 C94.837,783.043 94.821,783.046 94.821,783.046 L87.692,784.561 L87.693,784.557 L74.218,787.421 C74.218,787.421 105.214,732.589 127.823,736.789 C127.824,736.789 127.824,736.789 127.825,736.789 C127.829,736.789 127.833,736.791 127.837,736.791 C127.977,736.818 128.116,736.856 128.256,736.890 C128.574,736.959 128.891,737.035 129.205,737.129 C129.337,737.173 129.468,737.218 129.600,737.262 C129.600,737.262 129.600,737.262 129.600,737.262 C129.819,737.335 130.039,737.401 130.257,737.486 C130.257,737.486 130.257,737.486 130.257,737.486 C130.286,737.498 130.316,737.512 130.345,737.526 C130.898,737.747 131.443,738.020 131.983,738.324 C132.056,738.365 132.129,738.405 132.201,738.447 C132.729,738.757 133.252,739.098 133.765,739.491 C133.775,739.499 133.784,739.508 133.794,739.515 C134.270,739.881 134.737,740.294 135.199,740.735 C135.314,740.844 135.428,740.954 135.542,741.068 C136.014,741.541 136.482,742.040 136.940,742.597 C136.944,742.602 136.947,742.607 136.951,742.612 C137.036,742.701 137.454,743.144 138.035,743.869 C167.910,724.231 184.113,699.953 192.778,681.066 C203.520,657.654 205.096,637.823 205.320,633.283 C197.108,623.744 191.445,618.808 191.230,618.624 L194.303,615.021 C195.173,615.764 215.860,633.594 236.351,668.580 C245.024,683.388 254.363,702.677 261.737,726.104 C262.279,726.374 263.311,726.895 264.767,727.647 C265.669,727.545 266.581,727.424 267.472,727.340 C267.559,727.332 267.648,727.318 267.734,727.310 C267.736,727.312 267.738,727.315 267.741,727.317 C354.951,719.258 384.999,811.070 384.999,811.070 C384.999,811.070 366.779,820.573 319.037,796.392 ZM356.325,172.040 C356.325,172.040 342.770,171.633 319.466,164.958 C311.039,162.544 303.346,158.541 296.550,153.911 C296.550,153.914 296.551,153.917 296.551,153.920 C294.559,152.563 292.648,151.150 290.815,149.709 C291.545,152.162 291.989,154.746 292.073,157.462 C292.073,157.487 292.075,157.511 292.076,157.536 C292.087,157.929 292.088,158.326 292.084,158.725 C292.083,158.791 292.086,158.857 292.085,158.923 C292.077,159.384 292.059,159.848 292.030,160.316 C290.226,189.586 298.415,217.251 298.415,217.251 C298.415,217.251 298.386,217.232 298.343,217.203 C298.329,217.194 298.324,217.190 298.306,217.178 C298.249,217.140 298.170,217.087 298.066,217.016 C298.059,217.012 298.056,217.010 298.050,217.005 C297.815,216.846 297.468,216.607 297.025,216.293 C297.022,216.291 297.019,216.289 297.016,216.286 C290.748,211.850 264.976,192.287 254.406,163.700 C254.366,163.848 254.317,164.005 254.277,164.154 C254.043,165.013 253.793,165.890 253.529,166.784 C253.491,166.909 253.461,167.027 253.424,167.153 C253.411,167.194 253.398,167.235 253.386,167.276 C253.362,167.355 253.333,167.439 253.309,167.518 C252.974,168.624 252.623,169.744 252.237,170.891 C252.237,170.890 252.236,170.889 252.236,170.888 C247.375,185.343 238.352,202.691 221.725,213.429 C221.725,213.429 215.890,174.898 232.507,145.383 C231.814,145.835 231.119,146.277 230.424,146.690 C230.164,146.844 229.905,146.993 229.646,147.142 C228.870,147.587 228.094,148.010 227.318,148.409 C227.075,148.535 226.832,148.659 226.589,148.780 C225.800,149.173 225.014,149.541 224.231,149.890 C223.982,150.001 223.734,150.111 223.485,150.217 C222.670,150.567 221.858,150.896 221.052,151.202 C220.828,151.287 220.605,151.368 220.381,151.450 C219.617,151.730 218.860,151.990 218.109,152.233 C217.906,152.298 217.704,152.366 217.503,152.429 C216.659,152.692 215.824,152.934 215.001,153.154 C214.814,153.204 214.630,153.250 214.443,153.298 C213.706,153.489 212.978,153.663 212.262,153.822 C212.068,153.865 211.875,153.908 211.683,153.949 C210.941,154.107 210.213,154.248 209.498,154.375 C209.411,154.390 209.318,154.412 209.231,154.427 C209.237,154.425 209.245,154.422 209.251,154.420 C199.681,156.082 192.777,155.119 192.777,155.119 C206.895,126.075 233.286,119.613 246.934,118.266 C246.935,118.265 246.935,118.263 246.936,118.262 C247.111,118.245 247.279,118.230 247.451,118.214 C247.561,118.204 247.673,118.193 247.781,118.184 C248.236,118.144 248.672,118.110 249.093,118.081 C249.146,118.077 249.197,118.074 249.249,118.071 C250.608,117.980 251.766,117.943 252.723,117.931 C249.011,110.555 244.918,103.796 240.523,98.636 C228.979,85.083 215.000,76.751 198.974,73.875 C186.977,71.722 178.262,73.607 178.175,73.626 L177.135,69.007 C177.436,68.939 201.863,63.739 226.775,80.099 C228.398,80.456 236.874,82.132 246.328,80.479 C253.230,79.273 258.988,76.619 263.616,72.604 C257.227,68.929 251.491,61.062 260.397,44.434 C269.584,27.282 278.561,18.150 279.037,17.671 C279.046,17.660 279.060,17.642 279.060,17.642 L283.509,11.870 L283.510,11.874 L291.917,0.965 C291.917,0.965 303.855,62.804 283.912,74.248 C283.911,74.249 283.911,74.250 283.910,74.251 C283.907,74.252 283.903,74.254 283.900,74.256 C283.833,74.294 283.762,74.325 283.694,74.362 C283.398,74.525 283.099,74.684 282.788,74.825 C282.788,74.825 282.788,74.825 282.788,74.825 C282.611,74.905 282.423,74.971 282.241,75.044 C282.241,75.044 282.241,75.044 282.241,75.044 C282.030,75.128 281.823,75.220 281.607,75.294 C281.607,75.294 281.607,75.294 281.607,75.294 C281.577,75.304 281.546,75.312 281.516,75.321 C280.945,75.512 280.348,75.658 279.733,75.777 C279.655,75.792 279.578,75.808 279.499,75.822 C278.895,75.928 278.275,76.007 277.628,76.040 C277.615,76.040 277.601,76.039 277.588,76.040 C276.990,76.069 276.368,76.057 275.732,76.021 C275.574,76.012 275.416,76.002 275.256,75.989 C274.590,75.935 273.911,75.858 273.202,75.730 C273.196,75.729 273.190,75.727 273.184,75.726 C272.946,75.702 270.932,75.477 268.355,74.659 C258.950,83.832 246.581,85.868 237.519,85.868 C236.412,85.868 235.362,85.835 234.365,85.785 C237.673,88.592 240.947,91.831 244.130,95.568 C248.762,101.007 253.035,108.020 256.885,115.622 C257.740,114.863 258.742,114.011 259.927,113.082 C259.932,113.084 259.937,113.086 259.943,113.088 C270.508,104.777 293.868,91.372 325.557,102.173 C325.557,102.173 321.419,107.545 313.435,112.876 C313.444,112.872 313.453,112.868 313.462,112.864 C307.254,117.025 298.682,121.137 287.916,122.677 C295.288,123.919 303.628,126.045 311.797,129.664 C330.266,137.850 356.325,172.040 356.325,172.040 ZM176.382,275.984 L178.931,271.993 C179.678,272.470 197.452,283.958 216.617,309.456 C216.905,309.839 217.199,310.246 217.489,310.639 C217.881,310.646 218.375,310.647 218.837,310.648 C241.605,310.703 261.109,318.138 276.947,332.720 C277.820,332.353 278.778,332.150 279.785,332.150 C283.836,332.150 287.119,335.432 287.119,339.481 C287.119,343.530 283.836,346.812 279.785,346.812 C275.734,346.812 272.450,343.530 272.450,339.481 C272.450,338.169 272.800,336.940 273.404,335.874 C252.686,316.979 230.627,315.522 220.911,315.397 C230.752,329.534 241.383,348.605 249.408,372.836 C250.783,373.905 252.102,375.000 253.353,376.124 C253.600,376.120 253.853,376.097 254.099,376.096 C254.319,376.095 254.540,376.089 254.759,376.090 C256.035,376.097 257.295,376.149 258.542,376.235 C258.850,376.257 259.157,376.281 259.464,376.307 C259.727,376.329 259.995,376.342 260.257,376.368 C260.268,376.379 260.277,376.390 260.287,376.400 C303.602,380.679 329.354,431.266 329.354,431.266 C309.581,432.195 292.148,423.326 279.784,414.392 C279.784,414.393 279.785,414.394 279.785,414.395 C279.698,414.332 279.617,414.270 279.531,414.207 C278.902,413.750 278.283,413.294 277.680,412.838 C277.575,412.758 277.473,412.679 277.369,412.599 C276.766,412.139 276.173,411.681 275.598,411.226 C275.506,411.152 275.417,411.080 275.326,411.007 C274.817,410.601 274.321,410.199 273.835,409.799 C283.015,443.392 269.188,478.952 269.188,478.952 C269.188,478.952 259.755,451.686 241.259,428.922 C238.871,425.983 237.193,422.832 236.073,419.574 C235.966,419.936 235.866,420.297 235.756,420.661 C235.704,420.835 235.650,421.009 235.596,421.183 C235.354,421.969 235.102,422.755 234.838,423.544 C234.805,423.642 234.774,423.739 234.741,423.837 C234.459,424.673 234.168,425.509 233.861,426.347 C233.859,426.344 233.858,426.341 233.857,426.339 C231.021,434.055 227.091,441.783 221.640,448.645 C206.564,467.621 195.774,475.831 195.774,475.831 C195.774,475.831 197.083,432.870 207.347,415.475 C215.464,401.718 226.808,391.513 234.037,385.876 C234.039,385.871 234.041,385.866 234.043,385.861 C235.689,384.581 237.116,383.542 238.247,382.747 C238.339,382.683 238.425,382.623 238.513,382.561 C238.581,382.513 238.649,382.466 238.716,382.420 C240.170,381.410 241.027,380.879 241.027,380.879 C242.387,377.952 243.702,375.523 244.712,373.771 C221.965,305.915 176.948,276.346 176.382,275.984 ZM218.074,311.431 C218.080,311.439 218.086,311.448 218.093,311.456 L218.095,311.454 C218.089,311.445 218.081,311.440 218.074,311.431 ZM87.622,412.170 C88.039,412.078 88.472,411.986 88.925,411.895 C89.023,411.875 89.126,411.856 89.226,411.836 C89.400,411.802 89.571,411.767 89.750,411.733 C89.751,411.735 89.752,411.736 89.753,411.737 C103.226,409.178 130.368,407.929 152.115,431.807 C152.115,431.807 145.764,434.679 136.113,435.785 C136.121,435.786 136.129,435.786 136.136,435.786 C129.171,436.588 120.477,436.440 111.215,433.644 C135.524,457.266 140.815,495.914 140.815,495.914 C121.831,490.305 108.276,476.209 99.530,463.714 C99.530,463.715 99.530,463.716 99.529,463.717 C99.414,463.552 99.305,463.389 99.191,463.225 C99.133,463.141 99.081,463.060 99.024,462.977 C98.547,462.284 98.082,461.598 97.635,460.918 C97.601,460.867 97.564,460.814 97.530,460.762 C97.460,460.655 97.387,460.547 97.318,460.440 C97.181,460.229 97.051,460.023 96.917,459.814 C96.746,459.547 96.573,459.280 96.406,459.016 C96.402,459.010 96.398,459.004 96.394,458.998 C96.362,458.947 96.330,458.896 96.298,458.844 C96.000,458.370 95.701,457.896 95.417,457.431 C93.352,487.841 74.151,513.882 69.394,519.904 C69.392,519.906 69.391,519.907 69.390,519.909 C69.052,520.337 68.786,520.666 68.606,520.885 C68.601,520.890 68.599,520.893 68.594,520.898 C68.514,520.997 68.453,521.070 68.409,521.123 C68.395,521.139 68.391,521.144 68.381,521.156 C68.347,521.196 68.325,521.223 68.325,521.223 C68.325,521.223 68.366,492.373 58.368,464.803 C58.208,464.362 58.060,463.922 57.923,463.482 C57.903,463.418 57.887,463.354 57.867,463.290 C57.750,462.909 57.639,462.529 57.539,462.149 C57.533,462.124 57.528,462.100 57.521,462.075 C56.834,459.446 56.530,456.843 56.538,454.285 C55.187,456.184 53.752,458.079 52.225,459.943 C52.224,459.940 52.224,459.937 52.223,459.934 C47.012,466.293 40.762,472.304 33.360,476.998 C12.889,489.978 0.001,494.194 0.001,494.194 C0.001,494.194 15.342,454.041 30.748,440.976 C37.534,435.222 44.902,430.841 51.601,427.573 C45.117,428.502 39.132,428.314 33.846,427.512 C33.787,427.504 33.730,427.494 33.671,427.485 C32.849,427.358 32.040,427.220 31.252,427.067 C31.238,427.064 31.224,427.061 31.209,427.058 C30.504,426.920 29.816,426.770 29.140,426.613 C28.966,426.573 28.792,426.534 28.621,426.493 C28.015,426.348 27.421,426.196 26.840,426.039 C26.576,425.968 26.319,425.895 26.060,425.821 C25.701,425.719 25.348,425.615 24.999,425.509 C15.501,422.634 9.782,418.486 9.782,418.486 C37.129,399.184 63.324,405.449 75.810,410.441 C75.815,410.437 75.819,410.434 75.824,410.430 C77.389,411.053 78.724,411.652 79.831,412.183 C81.319,403.801 83.314,395.838 86.001,389.241 C91.956,374.618 99.561,364.896 106.998,358.400 C95.251,355.006 60.073,347.106 31.496,363.942 C31.650,364.533 31.740,365.150 31.740,365.789 C31.740,369.838 28.456,373.120 24.406,373.120 C20.355,373.120 17.071,369.838 17.071,365.789 C17.071,361.740 20.355,358.458 24.406,358.458 C26.090,358.458 27.637,359.032 28.875,359.986 C62.659,339.815 103.882,352.244 111.497,354.821 C115.127,352.212 118.628,350.306 121.766,348.945 C133.510,343.851 142.807,344.751 143.197,344.792 L142.703,349.500 C141.670,349.399 123.188,347.867 106.350,365.429 C110.295,368.581 118.268,376.225 120.698,388.071 C123.953,388.820 126.383,391.728 126.383,395.209 C126.383,399.258 123.100,402.540 119.049,402.540 C114.999,402.540 111.715,399.258 111.715,395.209 C111.715,392.273 113.446,389.746 115.941,388.576 C113.626,378.274 106.447,371.567 103.199,368.986 C98.567,374.594 94.155,381.775 90.388,391.026 C87.852,397.254 85.953,404.863 84.528,412.932 C85.368,412.703 86.353,412.453 87.487,412.200 C87.532,412.190 87.576,412.180 87.622,412.170 Z"/>
</svg>