<svg 
 xmlns="http://www.w3.org/2000/svg"
 xmlns:xlink="http://www.w3.org/1999/xlink"
 width="109px" height="915px">
<path fill-rule="evenodd" fill="#3e3842"
 d="M106.680,179.735 C106.280,160.687 89.788,146.546 70.507,142.775 C68.068,137.317 65.539,131.912 63.011,126.555 C53.949,107.343 42.270,87.114 41.523,65.403 C40.644,39.964 62.830,23.122 80.660,8.673 C85.039,5.126 79.215,-1.299 74.725,1.391 C54.785,13.337 35.044,31.087 30.509,54.806 C26.694,74.763 35.449,94.649 43.546,112.406 C56.663,141.169 72.271,169.123 76.768,200.850 C80.556,227.564 72.303,252.577 62.078,276.879 C50.216,305.076 35.583,332.921 32.822,363.825 C32.612,366.185 32.505,368.544 32.453,370.900 C31.973,368.685 31.313,366.438 30.395,364.146 C29.994,363.147 29.272,362.443 28.436,361.989 C30.217,357.430 31.318,352.693 30.934,347.544 C30.791,345.610 27.748,345.028 27.261,347.073 C25.279,355.387 20.794,362.608 16.459,369.890 C15.910,370.315 15.455,370.914 15.178,371.722 C15.084,371.994 14.992,372.266 14.901,372.537 C11.522,378.340 8.439,384.267 6.987,390.902 C5.854,396.090 5.849,401.348 6.079,406.589 C5.695,407.536 5.314,408.483 4.933,409.430 C4.219,411.203 5.069,412.651 6.438,413.456 C6.715,418.885 6.829,424.250 5.772,429.447 C3.600,433.712 1.651,437.968 0.211,442.225 C-1.160,446.278 4.718,447.870 6.883,444.889 C10.524,439.875 12.360,434.567 13.241,429.075 C20.611,414.340 30.858,400.239 32.960,384.763 C35.207,409.496 44.135,433.914 51.116,457.310 C60.220,487.828 66.801,517.250 53.303,547.319 C44.115,567.784 30.254,585.768 22.476,606.927 C14.547,628.493 17.842,650.447 27.763,670.721 C36.738,689.069 51.732,705.868 60.953,724.609 C59.186,729.198 57.212,733.616 55.137,737.940 C53.353,740.191 51.648,742.495 49.973,744.819 C39.741,754.362 31.177,765.088 25.037,778.035 C22.899,782.541 28.636,787.205 32.362,783.387 C32.396,783.352 32.428,783.313 32.466,783.278 C30.017,789.342 29.438,796.005 30.219,802.909 C30.761,807.670 37.567,807.729 38.042,802.909 C38.831,794.880 40.921,787.489 43.655,780.414 C46.367,776.802 49.889,773.451 53.989,769.899 C61.069,763.771 65.836,757.069 66.450,747.561 C66.539,746.166 65.975,745.114 65.092,744.421 C65.067,744.131 65.032,743.836 64.998,743.546 C65.260,743.065 65.525,742.593 65.787,742.112 C67.095,739.689 66.044,737.586 64.236,736.599 C64.530,735.862 64.807,735.110 65.084,734.363 C66.598,738.643 67.781,743.031 68.417,747.591 C72.523,777.018 54.830,806.299 43.197,832.111 C31.731,857.539 28.215,882.604 33.356,910.095 C34.541,916.419 46.042,915.063 45.253,908.572 C41.498,877.680 47.834,852.434 60.950,824.681 C72.313,800.638 84.994,773.196 81.115,745.964 C77.209,718.551 57.346,698.159 43.717,675.104 C28.550,649.450 24.932,625.972 37.705,598.618 C44.697,583.646 53.833,569.873 61.066,555.107 C62.756,557.544 64.421,560.001 66.039,562.482 C67.914,565.952 70.056,569.455 72.253,572.973 C72.194,582.535 72.197,592.092 72.565,601.645 C72.785,607.330 81.607,607.330 81.827,601.645 C81.981,597.709 82.068,593.778 82.117,589.842 C84.244,594.136 85.912,598.441 86.731,602.745 C86.409,607.777 86.075,612.563 86.063,616.739 C86.053,620.881 92.396,621.599 93.527,617.693 C94.845,613.143 94.932,608.730 94.175,604.421 C95.535,578.413 97.047,548.267 65.641,544.882 C66.516,542.700 67.348,540.501 68.097,538.256 C77.298,510.675 68.817,481.583 60.661,454.819 C50.542,421.623 37.428,388.424 43.123,353.130 C47.967,323.103 64.099,295.309 76.212,267.798 C85.274,247.210 90.484,226.901 88.638,204.305 C87.641,192.123 84.776,180.313 80.887,168.791 C87.488,176.926 95.704,184.476 99.914,190.495 C100.491,191.321 101.441,191.762 102.398,191.833 C104.607,193.795 109.204,192.355 108.981,189.048 C108.768,185.891 107.930,182.773 106.680,179.735 Z"/>
</svg>