<svg 
 xmlns="http://www.w3.org/2000/svg"
 xmlns:xlink="http://www.w3.org/1999/xlink"
 width="97px" height="931px">
<path fill-rule="evenodd" fill="#39333d"
 d="M94.174,569.160 C93.711,569.314 93.245,569.430 92.782,569.572 C92.511,570.562 91.823,571.474 90.567,572.110 C88.848,572.977 87.026,573.697 85.158,574.343 C85.641,575.488 85.607,576.787 84.700,577.978 C80.305,583.746 74.679,587.192 67.619,588.816 C64.943,589.433 61.895,589.811 58.990,590.452 C56.586,591.329 54.191,592.243 51.828,593.243 C49.838,594.636 48.343,596.613 47.741,599.561 C46.728,604.508 38.112,603.486 38.539,598.364 C38.672,596.771 38.841,595.176 39.056,593.592 C32.710,626.679 27.356,659.888 28.635,694.073 C30.099,733.248 38.088,771.667 39.095,810.916 C40.085,849.497 41.444,889.837 35.942,928.094 C35.242,932.963 28.394,931.046 27.835,927.043 C23.841,898.405 26.843,868.933 26.955,840.094 C27.038,819.062 26.792,797.971 24.963,777.002 C23.297,757.940 19.880,739.114 18.258,720.052 C15.425,686.748 16.442,653.561 21.807,620.561 C28.072,582.019 40.270,544.492 43.595,505.493 C46.299,473.750 45.550,441.981 44.165,410.216 C42.792,405.163 42.119,399.732 42.429,393.772 C42.480,392.794 42.807,391.996 43.295,391.359 C43.229,390.001 43.165,388.643 43.100,387.285 C41.478,353.835 41.385,320.336 41.163,286.841 C35.830,296.032 24.553,300.573 16.320,308.386 C13.913,312.581 11.247,316.610 8.206,320.394 C5.609,323.624 -1.561,322.150 0.344,317.212 C1.709,313.674 3.828,310.645 6.355,307.914 C8.116,304.852 9.696,301.645 11.179,298.359 C10.220,297.506 9.762,296.217 10.394,294.589 C12.671,288.720 16.463,277.810 22.048,272.213 C26.031,263.349 30.725,255.085 37.654,248.666 C38.617,247.773 39.844,247.828 40.746,248.379 C40.227,217.600 39.071,186.842 35.969,156.148 C34.370,140.347 32.231,124.544 30.663,108.704 C30.024,107.969 29.387,107.234 28.709,106.522 C26.789,104.507 26.870,102.060 28.006,100.232 C27.984,100.129 27.970,100.023 27.948,99.919 C27.847,99.727 27.738,99.536 27.667,99.345 C25.085,94.300 22.607,89.198 20.397,83.939 C18.795,80.125 23.375,77.784 26.353,78.221 C27.140,78.336 27.906,78.471 28.658,78.618 C28.601,76.348 28.567,74.076 28.564,71.802 C28.543,47.738 30.720,21.585 45.729,1.800 C48.879,-2.357 56.452,1.556 53.157,5.968 C43.375,19.066 39.424,35.277 38.290,51.427 C37.589,61.400 37.587,71.362 38.027,81.310 C62.723,91.259 67.054,119.161 66.334,145.593 C69.311,152.801 69.694,160.422 64.324,168.122 C61.846,171.676 54.679,170.931 55.052,165.711 C55.486,159.638 56.047,152.982 56.339,146.196 C53.759,149.017 47.870,147.935 47.531,143.073 C47.209,138.479 46.694,134.027 45.721,129.840 C44.477,128.361 43.249,126.926 42.090,125.545 C42.575,129.559 43.071,133.569 43.560,137.575 C47.609,170.693 49.628,204.056 50.738,237.398 C52.079,277.686 50.691,318.128 52.457,358.372 C52.794,366.074 53.201,373.781 53.615,381.489 C55.196,381.903 56.547,382.996 56.979,384.892 C59.971,398.040 67.236,408.488 73.391,420.212 C74.552,422.421 75.596,424.633 76.584,426.854 C78.342,429.093 80.012,431.424 81.461,433.981 C82.627,436.035 82.254,437.945 81.156,439.338 C81.946,442.080 82.622,444.863 83.156,447.708 C84.539,448.930 85.919,450.150 87.290,451.372 C90.136,453.907 87.619,457.865 84.405,458.058 C84.368,458.061 84.334,458.058 84.297,458.061 C83.361,461.855 77.101,462.614 75.091,459.081 C74.496,458.036 73.867,457.027 73.240,456.016 C64.831,452.004 59.854,442.745 56.476,433.009 C56.357,432.845 56.230,432.682 56.110,432.518 C56.625,447.465 56.822,462.415 56.364,477.360 C55.229,514.428 47.469,550.460 40.417,586.566 C41.209,583.565 42.287,580.709 43.773,578.123 C42.268,575.569 42.853,571.945 46.794,570.766 C48.655,570.211 50.538,569.776 52.428,569.403 C53.206,568.961 54.018,568.546 54.886,568.172 C66.375,563.250 80.073,564.414 92.165,562.169 C96.840,561.299 98.837,567.600 94.174,569.160 ZM32.603,271.664 C32.666,271.794 32.771,271.917 32.823,272.050 C33.767,270.830 34.740,269.632 35.632,268.372 C37.056,266.363 39.224,265.965 40.992,266.687 C40.948,262.209 40.893,257.731 40.824,253.254 C37.790,259.182 35.142,265.380 32.603,271.664 ZM53.828,114.059 C51.323,105.027 46.729,97.298 38.685,92.351 C38.800,93.911 38.923,95.470 39.055,97.028 C39.270,97.237 39.479,97.461 39.673,97.718 C40.344,98.606 41.046,99.452 41.731,100.322 C45.797,104.871 49.748,109.522 53.828,114.059 Z"/>
</svg>