<svg 
 xmlns="http://www.w3.org/2000/svg"
 xmlns:xlink="http://www.w3.org/1999/xlink"
 width="686px" height="163px">
<path fill-rule="evenodd" fill="#39333d"
 d="M682.616,35.922 C674.976,36.367 667.335,36.804 659.696,37.242 C662.421,43.076 661.733,49.488 659.007,55.413 C658.115,57.354 654.581,57.727 653.885,55.367 C652.538,50.803 650.154,46.858 647.057,43.532 C644.822,41.949 642.699,40.226 640.730,38.303 C632.190,38.775 623.651,39.247 615.108,39.682 C602.513,40.323 587.249,42.214 575.080,37.860 C572.730,37.018 570.617,35.816 568.796,34.366 C553.242,44.152 534.941,49.739 517.029,52.937 C500.549,55.880 483.751,57.172 466.947,57.162 C467.056,57.329 467.167,57.468 467.274,57.646 C467.660,58.292 466.918,59.060 466.289,58.570 C465.455,57.921 464.613,57.452 463.765,57.140 C462.733,57.128 461.700,57.121 460.666,57.101 C463.267,65.944 462.065,74.657 452.519,78.261 C451.863,78.508 451.078,78.721 450.218,78.920 C449.058,80.315 447.254,80.452 445.976,79.725 C442.140,80.378 437.825,81.089 434.618,82.565 C432.650,85.014 430.821,86.984 429.179,88.042 C426.550,89.737 423.567,87.452 424.502,84.487 C425.609,80.975 428.106,78.892 431.224,77.508 C432.460,76.022 433.776,74.370 435.159,72.629 C435.336,72.106 435.671,71.617 436.200,71.218 C436.264,71.170 436.329,71.124 436.393,71.075 C440.439,65.990 444.945,60.477 449.432,56.691 C441.596,56.279 433.784,55.609 426.024,54.709 C413.126,53.211 400.239,51.179 387.619,48.050 C378.158,45.706 368.903,42.604 359.595,39.714 C364.025,55.212 347.630,63.338 334.475,67.617 C332.449,68.276 330.763,65.790 332.578,64.372 C338.270,59.922 342.099,53.468 345.817,47.310 C345.130,46.715 344.811,45.622 345.254,44.813 C346.017,43.418 347.441,42.603 348.980,42.064 C349.976,40.448 351.046,38.887 352.310,37.517 C345.212,35.459 338.043,33.670 330.692,32.576 C318.180,30.712 304.204,30.118 291.605,33.593 C294.341,34.727 296.741,36.431 298.555,38.911 C305.809,48.835 300.423,61.190 288.967,64.717 C280.322,67.378 262.113,64.928 260.756,53.121 C260.049,46.959 263.850,41.839 268.807,37.867 C267.494,38.077 266.185,38.306 264.887,38.568 C250.628,41.453 236.540,46.358 222.940,51.527 C183.511,66.514 151.362,94.865 114.749,115.154 C103.057,121.632 90.290,128.616 76.855,130.334 C69.482,131.277 62.029,131.752 54.577,131.902 C54.491,131.960 54.397,132.016 54.312,132.074 C54.441,132.189 54.575,132.294 54.682,132.443 C64.153,145.587 54.634,161.862 39.174,162.539 C37.374,162.619 35.756,161.016 36.586,159.159 C40.305,150.831 41.081,138.417 47.454,131.954 C45.888,131.945 44.322,131.925 42.759,131.892 C40.894,131.851 36.223,131.851 30.652,131.522 C29.906,134.024 25.466,134.174 25.013,131.083 C12.073,129.813 -2.233,126.406 1.502,117.010 C2.206,115.238 5.010,116.349 4.317,118.188 C2.271,123.617 12.494,126.077 22.771,127.196 C19.626,124.390 17.457,121.164 16.489,117.727 C15.731,115.995 15.512,114.205 15.274,112.213 C15.150,111.164 15.678,110.293 16.448,109.749 C17.164,107.113 18.599,104.454 20.884,101.850 C22.495,100.015 25.819,100.650 26.148,103.268 C27.182,111.516 29.164,119.598 30.377,127.814 C35.593,128.112 39.904,128.131 41.292,128.137 C46.062,128.157 50.865,128.098 55.665,127.907 C56.392,127.801 57.144,127.724 57.949,127.704 C58.123,127.700 58.275,127.733 58.414,127.786 C64.431,127.474 70.432,126.926 76.351,125.990 C91.997,123.518 106.972,114.624 120.346,106.520 C139.316,95.024 157.476,81.515 176.422,69.543 C170.895,70.099 165.200,68.287 161.145,64.106 C160.311,63.246 159.571,62.343 158.916,61.403 C157.354,60.379 155.858,59.228 154.467,57.863 C152.924,56.348 153.729,53.788 155.451,53.337 C154.990,51.217 154.798,49.028 154.841,46.815 C153.381,44.410 153.464,41.382 156.596,37.108 C158.034,35.147 161.960,36.463 161.293,39.063 C160.781,41.060 160.389,43.199 160.209,45.363 C162.163,48.376 168.077,50.193 170.929,52.162 C175.837,55.553 178.048,59.898 176.862,65.487 C178.792,65.631 180.770,65.634 182.756,65.623 C196.367,57.383 210.464,50.119 225.625,45.117 C238.426,40.893 250.983,35.889 264.287,33.400 C268.438,32.623 273.687,31.747 278.943,31.646 C279.624,31.316 280.292,31.003 280.927,30.717 C296.517,23.739 315.135,23.434 331.741,26.206 C351.288,29.469 369.504,36.999 388.682,41.604 C389.871,41.889 391.071,42.129 392.265,42.399 C391.985,42.066 391.707,41.729 391.425,41.398 C387.313,39.336 384.714,35.799 383.321,31.595 C383.057,31.242 382.771,30.907 382.514,30.548 C381.979,29.803 382.041,28.966 382.420,28.304 C382.283,28.080 382.150,27.856 382.009,27.630 C381.374,26.612 381.531,25.591 382.093,24.891 C381.790,19.747 382.745,14.309 384.539,9.686 C385.517,7.167 389.050,8.473 388.944,10.901 C388.395,23.475 400.703,31.358 400.545,44.155 C409.336,45.877 418.201,47.231 427.097,48.209 C451.987,50.946 477.565,51.666 502.536,48.522 C498.574,46.512 495.569,43.211 494.357,38.138 C492.713,31.260 493.860,24.057 492.900,17.129 C492.336,15.556 491.933,13.907 491.806,12.134 C491.577,8.946 496.625,7.397 497.630,10.673 C498.055,12.059 498.336,13.536 498.533,15.066 C502.037,26.165 516.835,33.750 512.920,45.567 C513.309,45.983 513.680,46.390 514.032,46.788 C515.977,46.443 517.918,46.075 519.852,45.679 C535.096,42.558 550.878,37.589 564.358,29.349 C561.544,24.578 561.242,18.650 564.879,12.854 C570.620,3.704 583.894,-1.502 594.265,0.959 C596.160,1.410 597.985,3.433 596.836,5.495 C594.443,9.794 591.742,13.961 588.514,17.675 C584.288,22.535 579.545,26.775 574.446,30.512 C580.351,33.854 589.088,33.582 595.175,33.487 C607.630,33.293 620.094,32.646 632.558,31.856 C632.964,26.384 640.258,20.187 643.964,17.680 C651.496,12.587 659.747,9.585 668.891,10.081 C671.411,10.219 672.560,14.121 670.259,15.423 C663.187,19.424 657.312,25.090 650.828,29.767 C651.568,29.950 652.286,30.192 652.983,30.485 C662.583,29.815 672.182,29.144 681.767,28.611 C686.634,28.341 687.526,35.635 682.616,35.922 ZM443.181,74.448 C443.913,74.301 444.635,74.149 445.338,73.988 C445.443,73.677 445.548,73.368 445.655,73.060 C444.833,73.525 444.009,73.991 443.181,74.448 ZM345.359,55.814 C345.150,55.751 344.951,55.665 344.765,55.558 C343.568,57.468 342.317,59.332 340.950,61.102 C343.326,60.053 345.658,58.854 347.748,57.470 C346.710,57.466 345.725,56.774 345.359,55.814 ZM43.500,154.696 C43.272,155.468 43.034,156.236 42.777,156.999 C43.867,156.671 44.897,156.235 45.859,155.713 C44.958,155.748 44.031,155.396 43.500,154.696 ZM47.680,139.768 C47.789,139.785 47.897,139.806 48.004,139.835 C48.305,139.276 48.597,138.709 48.880,138.138 C48.979,137.824 49.063,137.505 49.154,137.188 C48.612,137.994 48.112,138.842 47.680,139.768 ZM53.337,142.736 C53.061,143.390 52.732,144.034 52.303,144.664 C52.164,144.870 52.002,145.025 51.830,145.151 C50.605,148.169 49.271,151.153 48.122,154.207 C48.118,154.217 48.111,154.226 48.107,154.237 C51.653,151.433 53.725,147.236 53.337,142.736 ZM286.134,37.664 C284.809,37.423 283.475,37.277 282.140,37.172 C280.395,38.036 278.686,38.984 277.045,40.073 C273.212,42.616 263.044,49.603 268.494,55.078 C274.598,61.211 285.040,62.871 291.942,57.128 C300.125,50.319 296.203,39.489 286.134,37.664 ZM355.572,41.921 C355.352,42.243 355.136,42.570 354.921,42.895 C355.258,43.025 355.565,43.220 355.824,43.466 C355.770,42.962 355.687,42.447 355.572,41.921 ZM386.449,20.513 C386.285,22.110 386.281,23.671 386.426,25.183 C388.037,26.315 389.529,27.510 390.891,28.782 C389.325,26.072 387.699,23.369 386.449,20.513 ZM499.374,27.503 C499.291,27.401 499.211,27.298 499.129,27.197 C499.180,28.509 499.256,29.800 499.383,31.057 C499.455,31.140 499.531,31.212 499.599,31.307 C500.673,32.824 501.814,34.237 502.959,35.624 C503.858,35.741 504.721,36.265 505.245,37.278 C505.541,37.852 505.801,38.445 506.051,39.043 C506.450,39.329 507.011,39.799 507.678,40.396 C507.008,35.639 502.552,31.369 499.374,27.503 ZM588.054,7.092 C578.419,7.731 564.860,14.297 569.111,24.642 C569.283,25.058 569.494,25.432 569.701,25.811 C576.814,20.724 583.092,14.566 588.054,7.092 ZM645.747,23.262 C644.540,24.213 643.292,25.246 642.120,26.368 C643.790,25.392 645.431,24.373 647.038,23.305 C646.975,22.984 646.983,22.648 647.069,22.309 C646.627,22.626 646.172,22.928 645.747,23.262 ZM148.825,116.955 C148.758,116.685 148.752,116.385 148.839,116.049 C148.972,115.536 149.105,115.029 149.239,114.520 C149.390,113.617 149.542,112.715 149.693,111.813 C149.070,103.443 151.114,95.744 156.951,89.599 C157.844,88.660 159.557,88.425 160.393,89.625 C161.181,90.757 161.819,91.902 162.336,93.053 C163.460,93.181 164.542,94.178 164.272,95.388 C164.108,96.124 163.907,96.834 163.716,97.552 C165.579,108.243 157.926,119.134 150.574,126.981 C149.408,128.225 146.489,127.612 147.035,125.508 C147.768,122.686 148.323,119.826 148.825,116.955 ZM157.752,109.911 C157.514,109.922 157.276,109.888 157.047,109.821 C156.094,111.701 155.142,113.581 154.189,115.462 C153.982,115.871 153.660,116.159 153.292,116.344 C153.167,116.621 153.040,116.909 152.918,117.175 C152.836,117.354 152.727,117.503 152.606,117.639 C152.553,117.969 152.501,118.299 152.447,118.629 C154.498,115.917 156.394,112.969 157.752,109.911 Z"/>
</svg>