<svg 
 xmlns="http://www.w3.org/2000/svg"
 xmlns:xlink="http://www.w3.org/1999/xlink"
 width="682px" height="121px">
<path fill-rule="evenodd" fill="#3e3842"
 d="M680.823,7.578 C667.162,-0.990 651.634,-1.498 636.722,4.176 C621.157,10.098 608.088,20.586 591.469,24.001 C572.734,27.851 555.566,21.263 537.210,18.949 C519.005,16.654 505.269,24.109 490.929,34.382 C484.851,38.736 478.845,43.120 471.677,45.498 C461.301,48.940 450.238,44.648 440.630,40.934 C424.413,34.668 408.378,27.559 390.858,26.003 C373.017,24.419 356.086,32.152 338.447,30.867 C332.800,30.455 327.670,28.103 322.686,25.610 C314.504,21.517 306.484,17.168 298.076,13.532 C284.471,7.653 269.929,7.469 256.801,14.537 C242.668,22.145 235.001,37.500 220.990,44.839 C210.062,50.564 195.725,47.682 183.889,47.997 C169.506,48.381 155.677,50.537 143.204,58.033 C131.878,64.842 123.256,75.748 114.549,85.431 C103.025,98.250 90.799,109.301 73.533,113.169 C65.534,114.961 1.253,121.827 5.313,104.818 C5.901,102.352 1.930,101.889 1.330,104.254 C-3.991,125.215 46.922,120.035 57.388,119.629 C73.696,118.999 88.406,114.885 101.458,104.898 C115.253,94.345 124.896,79.389 137.902,67.969 C151.780,55.782 168.731,53.206 186.635,52.763 C199.330,52.450 213.332,55.103 224.883,48.357 C240.964,38.964 249.242,21.127 267.978,15.279 C286.685,9.440 305.887,23.007 321.823,31.018 C332.208,36.239 342.179,36.821 353.589,35.144 C362.470,33.839 371.077,31.665 380.070,31.097 C389.144,30.525 398.230,31.895 406.957,34.289 C423.630,38.865 438.953,47.945 455.945,51.312 C469.280,53.954 480.470,48.355 491.072,40.911 C498.140,35.949 504.973,30.523 512.924,27.018 C521.617,23.186 531.199,23.445 540.382,24.820 C556.393,27.216 571.372,32.404 587.779,30.017 C602.915,27.814 615.528,20.856 628.875,13.844 C635.685,10.266 642.708,7.260 650.350,6.054 C660.097,4.515 669.700,7.739 678.852,10.682 C680.683,11.270 682.792,8.813 680.823,7.578 Z"/>
</svg>