<svg 
 xmlns="http://www.w3.org/2000/svg"
 xmlns:xlink="http://www.w3.org/1999/xlink"
 width="488px" height="251px">
<path fill-rule="evenodd" fill="#39333d"
 d="M477.103,65.813 C471.176,87.588 461.482,108.370 449.436,127.451 C447.292,130.849 445.064,134.252 442.758,137.643 C452.715,145.115 436.744,161.194 446.024,170.632 C447.819,172.458 445.392,175.466 443.231,174.067 C435.564,169.099 431.532,161.934 431.203,153.586 C410.291,180.663 384.110,205.208 353.104,218.194 C342.693,222.555 331.823,225.317 320.762,226.769 C327.402,237.617 312.684,247.049 302.580,250.887 C300.674,251.611 298.631,249.166 299.813,247.471 C304.108,241.311 306.259,233.008 311.089,227.706 C290.903,228.989 270.333,226.216 250.930,220.978 C228.784,215.000 206.991,206.502 186.289,196.062 C186.005,196.235 185.724,196.411 185.437,196.581 C185.575,197.044 185.588,197.547 185.420,198.029 C185.652,198.120 185.864,198.245 186.050,198.399 C187.522,198.589 188.546,200.476 187.666,201.749 C187.422,202.102 187.117,202.340 186.791,202.540 C186.799,202.544 186.809,202.550 186.818,202.555 C185.697,203.253 184.026,204.248 182.334,205.360 C177.448,209.602 171.726,212.715 166.534,216.685 C164.886,217.945 161.802,216.386 163.239,214.273 C165.732,210.609 168.287,206.916 171.174,203.579 C171.263,203.219 171.452,202.873 171.764,202.574 C172.287,202.072 172.846,201.622 173.399,201.164 C176.114,198.395 179.150,195.991 182.686,194.214 C171.973,188.660 161.562,182.598 151.572,176.085 C135.372,165.523 119.725,153.749 104.852,140.940 C103.373,141.637 101.117,140.758 101.063,138.812 C101.050,138.372 100.999,137.972 100.965,137.555 C98.968,135.795 96.984,134.021 95.018,132.224 C94.917,132.148 94.825,132.061 94.737,131.967 C55.671,96.204 22.645,53.173 0.191,6.144 C-0.336,5.039 0.320,3.754 1.635,3.757 C4.832,3.765 6.027,6.539 7.950,8.822 C8.800,9.831 7.474,11.026 6.492,10.206 C6.153,9.923 5.823,9.602 5.493,9.279 C22.975,43.208 45.771,74.636 71.744,102.588 C78.934,110.326 86.386,117.878 94.083,125.188 C94.072,124.169 94.059,123.148 94.060,122.128 C94.060,121.609 94.217,121.203 94.435,120.858 C93.861,117.528 93.720,114.157 94.136,111.006 C94.417,108.874 97.536,107.516 98.749,109.820 C103.190,118.255 107.630,127.001 106.520,136.569 C124.206,152.163 143.146,166.355 163.394,178.346 C190.196,194.218 221.356,208.872 253.345,216.661 C251.844,215.013 250.780,213.139 250.210,211.121 C249.346,210.252 248.711,209.231 248.769,208.133 C248.815,207.272 249.193,206.662 249.766,206.208 C250.049,203.272 251.270,200.227 253.534,197.317 C254.612,195.929 256.334,195.664 257.724,196.804 C264.814,202.614 268.168,210.382 268.330,219.449 C268.332,219.565 268.319,219.671 268.308,219.779 C305.601,226.176 343.271,222.153 375.815,198.880 C397.979,183.031 417.461,162.884 433.476,140.549 C433.426,139.507 433.386,138.465 433.369,137.421 C433.341,135.706 435.145,134.601 436.717,135.001 C436.907,135.049 437.067,135.107 437.249,135.157 C442.255,127.812 446.906,120.263 451.138,112.562 C455.189,105.190 458.830,97.668 462.061,89.986 C460.448,91.512 457.935,92.177 455.440,92.736 C449.639,94.037 443.728,94.715 438.115,96.745 C435.764,97.595 434.277,94.927 435.124,93.054 C440.327,81.560 452.782,79.762 463.596,76.425 C464.354,76.192 465.323,76.805 465.274,77.639 C465.119,80.277 462.166,81.608 459.486,82.456 C460.052,82.589 460.474,82.892 460.748,83.293 C461.116,83.377 461.486,83.462 461.860,83.554 C462.855,83.799 463.734,84.724 463.794,85.770 C467.095,77.447 469.901,68.929 472.115,60.168 C476.598,42.433 483.140,23.238 480.470,4.746 C479.917,0.906 485.989,-0.616 486.532,3.160 C489.522,23.999 482.529,45.874 477.103,65.813 ZM256.240,202.551 C255.667,203.496 255.181,204.499 254.868,205.534 C255.514,204.643 256.832,204.272 257.988,204.583 C257.452,203.887 256.868,203.210 256.240,202.551 ZM439.679,142.086 C439.434,142.435 439.185,142.783 438.939,143.132 C439.010,144.145 439.091,145.155 439.176,146.166 C439.795,147.537 440.315,148.906 440.727,150.311 C441.495,147.119 441.684,144.157 439.679,142.086 Z"/>
</svg>