<svg 
 xmlns="http://www.w3.org/2000/svg"
 xmlns:xlink="http://www.w3.org/1999/xlink"
 width="494px" height="233px">
<path fill-rule="evenodd" fill="#3e3842"
 d="M492.091,5.829 C494.920,3.120 490.505,-0.856 487.793,1.728 C477.763,11.289 469.925,22.108 465.778,35.257 C465.497,34.899 465.021,34.668 464.529,34.792 C452.649,37.786 443.180,49.501 437.739,59.877 C436.890,61.495 438.013,63.075 439.740,63.202 C450.142,63.970 458.106,58.925 462.729,50.731 C461.581,62.242 462.311,73.912 461.186,85.455 C459.980,97.847 453.603,107.143 445.038,115.130 C442.127,113.777 439.253,112.723 436.328,112.062 C435.997,111.730 435.540,111.474 434.932,111.354 C427.238,109.837 420.078,108.840 412.523,111.527 C410.510,112.242 410.158,114.382 411.197,115.645 C407.149,117.100 403.081,118.523 398.781,119.210 C396.562,119.565 397.202,122.831 399.297,122.848 C411.650,122.954 424.131,124.005 436.398,122.359 C424.509,131.552 412.079,139.359 402.837,151.612 C397.006,159.342 392.629,168.008 388.218,176.654 C387.907,175.426 386.179,174.741 385.434,176.082 C384.088,178.508 384.235,180.650 385.242,182.427 C382.811,187.069 380.275,191.643 377.395,195.999 C375.235,199.267 372.947,202.069 370.512,204.456 C370.922,202.920 370.812,201.123 370.397,199.757 C369.447,196.625 366.106,194.781 363.363,193.500 C355.552,189.851 341.851,188.154 343.046,176.814 C343.287,174.526 339.742,173.880 338.723,175.697 C333.226,185.509 336.118,194.521 345.141,200.737 C349.663,203.852 355.167,205.709 360.471,206.942 C362.005,207.299 364.147,207.860 366.248,208.080 C359.007,213.339 350.443,215.356 339.821,214.376 C325.234,213.029 311.061,210.106 296.619,214.210 C280.879,218.683 267.058,229.873 249.898,227.601 C233.461,225.425 217.544,215.621 203.808,206.941 C189.601,197.963 176.201,187.698 163.174,177.101 C162.407,176.478 161.640,175.854 160.871,175.231 C160.912,172.788 160.645,170.283 160.195,167.875 C159.865,166.110 157.587,166.031 156.459,166.934 C155.459,167.736 154.511,168.593 153.582,169.469 C149.519,166.355 145.360,163.378 141.002,160.731 C141.370,160.041 141.724,159.352 142.028,158.670 C142.703,158.298 143.064,157.415 142.805,156.705 C147.011,145.017 141.938,134.581 131.647,126.544 C130.011,125.267 126.750,126.938 128.319,128.994 C132.829,134.905 130.450,141.794 131.315,148.580 C131.686,151.485 132.962,153.678 134.798,155.362 C134.954,156.080 135.115,156.798 135.283,157.516 C132.987,156.338 130.632,155.262 128.202,154.317 C114.812,149.104 99.649,149.215 86.833,142.559 C77.579,137.753 73.335,127.734 69.681,118.539 C67.034,111.879 64.949,105.106 61.347,98.873 C57.879,92.870 52.966,87.695 47.878,83.055 C45.483,80.870 42.991,78.811 40.466,76.799 C41.375,75.924 42.201,74.977 42.842,73.858 C43.179,73.268 42.504,72.787 41.970,73.026 C40.654,73.614 39.426,74.303 38.233,75.034 C32.471,70.530 26.596,66.186 21.237,61.207 C28.488,50.611 24.552,36.566 31.772,25.843 C33.316,23.550 29.898,21.498 28.076,23.123 C21.656,28.852 11.359,40.107 11.666,50.363 C6.874,43.404 3.865,35.526 2.742,27.002 C1.660,18.780 2.093,10.501 0.833,2.284 C0.767,1.856 0.066,1.968 0.062,2.383 C-0.077,20.417 -0.524,36.912 9.854,52.477 C11.734,55.296 13.857,57.888 16.132,60.334 C16.196,60.752 16.234,61.172 16.314,61.589 C16.570,62.914 17.742,63.328 18.851,63.133 C23.969,68.133 29.702,72.544 35.352,76.989 C34.435,77.676 33.546,78.395 32.686,79.148 C31.912,78.317 30.551,78.029 29.586,79.050 C25.814,83.044 22.571,87.499 19.491,92.038 C19.130,92.571 19.099,93.123 19.268,93.617 C16.300,96.915 13.167,100.017 9.547,102.547 C7.439,103.538 5.686,104.542 4.529,105.608 C2.666,107.322 5.107,109.773 7.107,108.794 C9.322,107.708 11.337,106.390 13.233,104.932 C16.258,103.492 19.838,102.153 23.431,100.731 C23.967,102.034 25.953,102.797 27.134,101.569 C28.384,100.270 29.586,98.932 30.759,97.571 C35.239,95.381 39.025,92.796 40.816,89.377 C41.819,88.815 42.018,87.790 41.709,86.895 C42.023,85.397 41.982,83.755 41.505,81.939 C41.918,82.281 42.336,82.619 42.744,82.963 C48.797,88.081 54.016,93.865 58.024,100.725 C62.198,107.872 64.020,116.362 66.971,124.064 C70.391,132.989 75.029,140.951 83.342,146.046 C95.141,153.276 110.153,153.139 123.005,157.430 C132.662,160.655 141.139,166.079 149.180,172.163 C147.900,172.872 146.705,173.715 145.778,174.434 C138.496,180.079 133.351,189.167 124.896,193.210 C122.448,194.487 124.678,197.840 127.034,196.700 C132.015,194.129 137.613,193.492 143.103,192.459 C143.438,194.250 145.747,195.389 147.236,193.831 C148.190,192.834 149.078,191.806 149.934,190.760 C150.730,190.491 151.519,190.200 152.294,189.860 C156.656,187.946 159.007,184.671 160.099,180.845 C162.091,182.473 164.078,184.099 166.070,185.696 C179.719,196.637 194.005,206.930 209.025,215.900 C222.625,224.022 238.851,232.458 255.032,232.862 C270.330,233.245 283.910,223.416 297.996,218.972 C312.624,214.357 327.988,218.458 342.812,219.614 C364.852,221.332 377.371,206.973 387.062,190.012 C388.298,193.155 390.129,196.162 391.997,199.027 C393.757,201.725 400.167,208.494 401.765,213.708 C401.332,215.738 400.826,217.720 400.320,219.608 C399.827,221.450 402.088,222.388 403.382,221.308 C406.025,219.102 406.255,216.433 405.457,213.777 C407.102,205.395 407.299,196.731 403.265,188.921 C402.063,186.595 399.048,185.537 396.766,184.747 C394.321,183.901 392.480,183.414 391.124,182.508 C394.406,176.157 397.444,169.721 400.557,163.849 C404.591,156.237 409.475,149.337 415.724,143.387 C422.209,137.214 430.242,132.469 437.424,127.133 C439.072,125.908 440.701,124.668 442.301,123.406 C443.640,124.659 444.633,126.406 445.423,128.799 C447.634,135.489 451.316,139.377 458.486,140.432 C460.755,140.765 463.270,138.726 461.788,136.334 C457.821,129.927 453.293,123.925 447.605,118.987 C453.841,113.462 459.261,107.243 462.829,99.361 C469.219,85.246 467.472,70.019 468.532,54.987 C468.574,54.384 468.636,53.790 468.690,53.192 C469.667,54.188 470.760,55.123 472.006,55.974 C477.699,59.863 486.316,62.556 485.952,70.760 C485.997,73.982 491.013,73.961 491.143,70.760 C491.168,70.154 491.149,69.580 491.108,69.021 C490.904,61.707 489.841,54.575 485.060,48.730 C481.623,44.527 476.166,42.117 470.988,39.968 C473.732,29.668 478.650,20.307 486.110,11.896 C487.996,9.771 490.042,7.792 492.091,5.829 ZM443.615,58.735 C444.367,57.459 445.156,56.214 445.986,55.000 C446.569,56.190 448.023,56.970 449.343,56.033 C449.512,55.914 449.666,55.781 449.833,55.659 C449.835,55.662 449.837,55.664 449.839,55.667 C449.854,55.653 449.866,55.638 449.881,55.623 C451.538,54.419 453.116,53.137 454.652,51.809 C455.656,51.323 456.636,50.791 457.594,50.218 C454.406,55.016 449.723,58.145 443.615,58.735 ZM365.614,202.245 C365.477,202.158 365.338,202.073 365.199,201.988 C365.198,201.662 365.139,201.331 365.005,201.021 C365.172,200.965 365.326,200.884 365.473,200.791 C365.628,201.265 365.647,201.748 365.614,202.245 ZM23.618,33.929 C23.349,35.195 23.120,36.471 22.923,37.756 C22.727,37.473 22.432,37.271 22.097,37.151 C22.085,36.785 21.977,36.464 21.794,36.199 C22.366,35.419 22.983,34.667 23.618,33.929 ZM20.592,48.382 C20.697,48.084 20.808,47.786 20.898,47.488 C21.444,45.834 21.863,44.146 22.262,42.449 C21.809,45.788 21.296,49.094 20.329,52.237 C20.376,50.954 20.465,49.668 20.592,48.382 ZM20.595,98.013 C21.485,97.035 22.362,96.040 23.224,95.028 C23.825,95.289 24.409,95.271 24.912,95.067 C25.032,95.400 25.229,95.690 25.475,95.929 C23.892,96.654 22.249,97.345 20.595,98.013 ZM36.975,82.865 C35.828,83.616 34.821,84.469 33.904,85.394 C33.531,85.384 33.153,85.468 32.804,85.677 C32.469,85.878 32.149,86.086 31.831,86.296 C33.567,84.979 35.343,83.705 37.122,82.422 C37.150,82.527 37.194,82.636 37.218,82.739 C37.135,82.777 37.053,82.814 36.975,82.865 ZM137.148,141.254 C136.610,140.949 135.956,140.850 135.330,140.939 C135.331,140.926 135.332,140.914 135.332,140.901 C135.440,139.177 135.440,137.509 135.291,135.890 C136.538,137.470 137.583,139.115 138.364,140.822 C137.933,140.864 137.517,141.014 137.148,141.254 ZM136.091,189.747 C136.730,189.105 137.354,188.453 137.974,187.801 C138.379,188.423 139.057,188.872 139.910,188.840 C140.430,188.821 140.940,188.785 141.443,188.740 C139.661,189.092 137.872,189.409 136.091,189.747 ZM402.717,199.319 C402.902,200.638 402.998,201.976 403.001,203.328 C402.753,202.881 402.501,202.436 402.245,201.992 C402.245,201.970 402.257,201.955 402.257,201.932 C402.264,201.109 402.246,200.294 402.232,199.479 C402.399,199.448 402.561,199.391 402.717,199.319 ZM395.390,188.420 C395.168,188.648 395.021,188.964 395.020,189.373 C395.017,190.065 395.014,190.758 395.011,191.450 C394.142,190.106 393.280,188.759 392.441,187.396 C393.525,187.769 394.501,188.086 395.390,188.420 ZM389.581,187.128 C389.487,187.063 389.393,186.999 389.299,186.935 C389.228,186.750 389.141,186.574 389.074,186.387 C389.132,186.281 389.190,186.176 389.247,186.069 C389.600,186.259 389.963,186.434 390.333,186.599 C390.028,186.703 389.771,186.890 389.581,187.128 Z"/>
</svg>