<svg 
 xmlns="http://www.w3.org/2000/svg"
 xmlns:xlink="http://www.w3.org/1999/xlink"
 width="350px" height="180px">
<path fill-rule="evenodd" fill="#39333d"
 d="M342.100,46.668 C337.853,62.294 330.907,77.207 322.277,90.901 C320.740,93.339 319.144,95.781 317.491,98.214 C324.626,103.577 313.182,115.115 319.832,121.889 C321.117,123.199 319.378,125.358 317.830,124.354 C312.336,120.789 309.447,115.646 309.212,109.655 C294.227,129.087 275.468,146.701 253.251,156.020 C245.791,159.150 238.003,161.132 230.077,162.174 C234.835,169.958 224.289,176.727 217.050,179.481 C215.684,180.001 214.220,178.247 215.067,177.030 C218.144,172.609 219.685,166.651 223.146,162.846 C208.683,163.767 193.943,161.777 180.040,158.018 C164.174,153.729 148.560,147.631 133.728,140.140 C133.524,140.264 133.319,140.388 133.112,140.510 C133.212,140.843 133.221,141.203 133.101,141.550 C133.267,141.614 133.419,141.704 133.552,141.815 C134.606,141.951 135.340,143.305 134.710,144.219 C134.535,144.472 134.317,144.643 134.082,144.786 C134.089,144.790 134.096,144.793 134.102,144.797 C133.299,145.298 132.101,146.012 130.889,146.810 C127.388,149.854 123.288,152.088 119.568,154.937 C118.387,155.841 116.177,154.723 117.207,153.206 C118.993,150.577 120.824,147.927 122.892,145.532 C122.956,145.274 123.092,145.025 123.316,144.811 C123.690,144.451 124.091,144.128 124.487,143.799 C126.433,141.812 128.608,140.087 131.142,138.811 C123.465,134.826 116.005,130.475 108.847,125.801 C97.239,118.222 86.028,109.773 75.371,100.581 C74.311,101.081 72.694,100.450 72.656,99.053 C72.647,98.738 72.610,98.451 72.585,98.152 C71.155,96.889 69.733,95.615 68.324,94.326 C68.252,94.271 68.186,94.209 68.123,94.142 C40.131,68.477 16.467,37.597 0.378,3.847 C0.001,3.055 0.471,2.133 1.412,2.135 C3.703,2.140 4.560,4.131 5.938,5.770 C6.547,6.494 5.597,7.351 4.893,6.763 C4.650,6.559 4.413,6.330 4.177,6.097 C16.704,30.446 33.037,52.999 51.648,73.058 C56.800,78.611 62.139,84.031 67.655,89.277 C67.647,88.545 67.638,87.813 67.638,87.081 C67.638,86.709 67.751,86.417 67.907,86.169 C67.495,83.780 67.395,81.360 67.692,79.099 C67.894,77.569 70.129,76.595 70.998,78.248 C74.180,84.301 77.361,90.578 76.566,97.444 C89.239,108.635 102.810,118.819 117.318,127.424 C136.522,138.814 158.850,149.330 181.771,154.920 C180.695,153.737 179.933,152.393 179.524,150.944 C178.906,150.321 178.450,149.588 178.492,148.800 C178.525,148.182 178.796,147.745 179.207,147.418 C179.409,145.311 180.284,143.126 181.906,141.038 C182.679,140.042 183.912,139.852 184.909,140.670 C189.989,144.840 192.392,150.414 192.508,156.920 C192.510,157.004 192.500,157.080 192.492,157.158 C219.214,161.748 246.206,158.861 269.524,142.160 C285.405,130.786 299.365,116.329 310.841,100.300 C310.805,99.553 310.776,98.805 310.763,98.056 C310.743,96.825 312.036,96.032 313.163,96.319 C313.299,96.353 313.413,96.395 313.544,96.431 C317.131,91.160 320.463,85.742 323.496,80.216 C326.398,74.926 329.007,69.527 331.323,64.015 C330.167,65.110 328.366,65.587 326.578,65.989 C322.422,66.922 318.186,67.409 314.164,68.865 C312.480,69.475 311.414,67.561 312.021,66.216 C315.749,57.968 324.674,56.678 332.422,54.283 C332.965,54.116 333.660,54.556 333.625,55.154 C333.513,57.047 331.398,58.002 329.477,58.611 C329.883,58.707 330.185,58.924 330.381,59.212 C330.645,59.272 330.910,59.333 331.179,59.399 C331.891,59.575 332.521,60.239 332.564,60.989 C334.930,55.017 336.940,48.904 338.527,42.617 C341.739,29.890 346.426,16.115 344.513,2.844 C344.116,0.089 348.468,-1.003 348.857,1.706 C350.999,16.661 345.988,32.359 342.100,46.668 ZM183.845,144.794 C183.435,145.473 183.087,146.192 182.862,146.935 C183.325,146.295 184.269,146.029 185.098,146.253 C184.714,145.753 184.295,145.267 183.845,144.794 ZM315.285,101.403 C315.109,101.653 314.931,101.904 314.754,102.154 C314.806,102.880 314.864,103.606 314.924,104.331 C315.368,105.315 315.741,106.297 316.036,107.306 C316.586,105.015 316.721,102.890 315.285,101.403 Z"/>
</svg>