<svg 
 xmlns="http://www.w3.org/2000/svg"
 xmlns:xlink="http://www.w3.org/1999/xlink"
 width="354px" height="167px">
<path fill-rule="evenodd" fill="#3e3842"
 d="M352.974,3.798 C355.001,1.854 351.837,-1.000 349.894,0.855 C342.707,7.716 337.091,15.480 334.119,24.916 C333.918,24.659 333.577,24.493 333.225,24.582 C324.713,26.731 317.927,35.138 314.029,42.584 C313.420,43.746 314.225,44.879 315.462,44.970 C322.916,45.521 328.623,41.901 331.935,36.021 C331.112,44.281 331.635,52.656 330.829,60.939 C329.965,69.832 325.396,76.504 319.259,82.235 C317.173,81.264 315.113,80.508 313.018,80.034 C312.781,79.795 312.453,79.612 312.017,79.525 C306.505,78.436 301.374,77.721 295.960,79.649 C294.518,80.163 294.266,81.698 295.010,82.604 C292.110,83.649 289.196,84.670 286.114,85.163 C284.524,85.417 284.983,87.761 286.484,87.774 C295.335,87.850 304.278,88.604 313.068,87.423 C304.549,94.020 295.642,99.623 289.020,108.415 C284.842,113.962 281.706,120.181 278.545,126.386 C278.323,125.505 277.084,125.014 276.551,125.976 C275.586,127.717 275.692,129.254 276.413,130.529 C274.671,133.860 272.854,137.143 270.791,140.269 C269.242,142.614 267.603,144.624 265.858,146.338 C266.152,145.235 266.073,143.946 265.776,142.965 C265.096,140.718 262.701,139.395 260.736,138.475 C255.139,135.857 245.322,134.639 246.178,126.501 C246.351,124.859 243.811,124.396 243.081,125.700 C239.142,132.740 241.214,139.208 247.679,143.668 C250.919,145.904 254.863,147.237 258.663,148.121 C259.763,148.378 261.298,148.780 262.803,148.938 C257.614,152.712 251.479,154.160 243.868,153.456 C233.416,152.490 223.260,150.392 212.912,153.337 C201.633,156.547 191.731,164.577 179.435,162.947 C167.657,161.385 156.252,154.350 146.410,148.121 C136.230,141.678 126.629,134.311 117.295,126.707 C116.745,126.260 116.195,125.812 115.644,125.365 C115.673,123.612 115.482,121.814 115.159,120.086 C114.923,118.819 113.291,118.763 112.483,119.411 C111.766,119.986 111.087,120.601 110.421,121.230 C107.510,118.995 104.530,116.859 101.408,114.960 C101.671,114.464 101.925,113.970 102.142,113.480 C102.626,113.213 102.885,112.580 102.699,112.070 C105.713,103.683 102.078,96.193 94.704,90.426 C93.532,89.510 91.195,90.709 92.319,92.184 C95.551,96.426 93.846,101.370 94.467,106.240 C94.732,108.324 95.646,109.898 96.962,111.107 C97.074,111.622 97.189,112.137 97.310,112.652 C95.664,111.807 93.977,111.035 92.236,110.356 C82.642,106.616 71.777,106.696 62.594,101.919 C55.963,98.470 52.921,91.280 50.303,84.682 C48.407,79.902 46.913,75.042 44.332,70.568 C41.847,66.261 38.327,62.547 34.681,59.217 C32.965,57.649 31.180,56.172 29.370,54.728 C30.021,54.100 30.614,53.420 31.072,52.617 C31.314,52.194 30.831,51.849 30.448,52.020 C29.505,52.442 28.625,52.937 27.770,53.461 C23.641,50.229 19.432,47.112 15.592,43.539 C20.788,35.935 17.967,25.856 23.141,18.161 C24.247,16.515 21.798,15.042 20.492,16.209 C15.892,20.320 8.514,28.396 8.734,35.756 C5.300,30.762 3.144,25.110 2.340,18.992 C1.564,13.092 1.875,7.151 0.972,1.254 C0.925,0.947 0.422,1.027 0.420,1.325 C0.320,14.267 -0.001,26.104 7.436,37.274 C8.783,39.296 10.304,41.156 11.934,42.912 C11.980,43.212 12.007,43.513 12.065,43.813 C12.248,44.764 13.088,45.060 13.882,44.921 C17.550,48.509 21.657,51.674 25.706,54.864 C25.048,55.357 24.412,55.873 23.796,56.413 C23.241,55.817 22.265,55.610 21.574,56.343 C18.872,59.209 16.548,62.407 14.341,65.664 C14.082,66.046 14.060,66.442 14.181,66.797 C12.054,69.163 9.810,71.389 7.215,73.205 C5.705,73.916 4.449,74.637 3.620,75.401 C2.285,76.632 4.035,78.390 5.467,77.688 C7.055,76.909 8.499,75.963 9.857,74.917 C12.025,73.884 14.590,72.922 17.164,71.902 C17.548,72.837 18.971,73.384 19.817,72.503 C20.713,71.571 21.574,70.611 22.415,69.634 C25.625,68.063 28.338,66.208 29.621,63.754 C30.340,63.351 30.482,62.615 30.261,61.973 C30.486,60.898 30.457,59.719 30.115,58.417 C30.411,58.662 30.710,58.904 31.002,59.152 C35.340,62.824 39.079,66.974 41.951,71.898 C44.942,77.026 46.247,83.119 48.362,88.646 C50.813,95.051 54.136,100.765 60.092,104.421 C68.547,109.610 79.303,109.511 88.512,112.590 C95.431,114.905 101.505,118.797 107.268,123.163 C106.350,123.672 105.494,124.277 104.830,124.793 C99.612,128.844 95.925,135.366 89.867,138.267 C88.113,139.184 89.710,141.590 91.399,140.772 C94.968,138.927 98.979,138.469 102.913,137.728 C103.153,139.013 104.807,139.831 105.874,138.713 C106.558,137.997 107.194,137.259 107.807,136.509 C108.378,136.316 108.943,136.107 109.499,135.863 C112.624,134.490 114.309,132.140 115.091,129.393 C116.518,130.562 117.942,131.729 119.370,132.875 C129.149,140.726 139.386,148.113 150.148,154.550 C159.893,160.379 171.520,166.432 183.113,166.723 C194.075,166.998 203.805,159.944 213.899,156.755 C224.380,153.443 235.389,156.386 246.010,157.215 C261.803,158.448 270.773,148.144 277.717,135.972 C278.602,138.228 279.914,140.386 281.253,142.442 C282.514,144.377 287.107,149.235 288.252,152.977 C287.942,154.434 287.580,155.856 287.217,157.211 C286.864,158.533 288.484,159.206 289.411,158.431 C291.305,156.848 291.469,154.933 290.898,153.027 C292.076,147.011 292.218,140.794 289.327,135.189 C288.466,133.520 286.306,132.761 284.670,132.194 C282.918,131.587 281.599,131.237 280.627,130.587 C282.980,126.030 285.156,121.411 287.386,117.197 C290.277,111.735 293.777,106.783 298.255,102.513 C302.901,98.083 308.657,94.678 313.803,90.849 C314.984,89.970 316.151,89.080 317.298,88.174 C318.257,89.073 318.968,90.327 319.535,92.044 C321.119,96.845 323.757,99.635 328.894,100.392 C330.521,100.631 332.323,99.168 331.261,97.451 C328.418,92.854 325.174,88.546 321.098,85.003 C325.566,81.038 329.450,76.575 332.007,70.919 C336.585,60.790 335.333,49.863 336.093,39.075 C336.123,38.642 336.167,38.216 336.206,37.787 C336.906,38.501 337.690,39.172 338.582,39.783 C342.661,42.574 348.835,44.507 348.575,50.394 C348.607,52.706 352.201,52.691 352.295,50.394 C352.312,49.959 352.299,49.547 352.269,49.146 C352.123,43.897 351.362,38.779 347.936,34.585 C345.473,31.569 341.563,29.839 337.853,28.297 C339.819,20.905 343.343,14.188 348.688,8.152 C350.039,6.627 351.505,5.207 352.974,3.798 ZM318.239,41.765 C318.778,40.849 319.344,39.956 319.938,39.084 C320.356,39.938 321.398,40.498 322.344,39.825 C322.464,39.740 322.575,39.645 322.695,39.558 C322.696,39.560 322.697,39.561 322.699,39.563 C322.709,39.553 322.718,39.542 322.729,39.532 C323.916,38.668 325.047,37.747 326.148,36.794 C326.867,36.445 327.569,36.064 328.256,35.653 C325.971,39.095 322.616,41.341 318.239,41.765 ZM262.349,144.751 C262.251,144.688 262.151,144.627 262.052,144.567 C262.051,144.332 262.009,144.095 261.912,143.872 C262.032,143.832 262.143,143.774 262.248,143.707 C262.359,144.047 262.373,144.394 262.349,144.751 ZM17.298,23.963 C17.105,24.871 16.941,25.787 16.800,26.710 C16.660,26.506 16.448,26.361 16.208,26.275 C16.199,26.013 16.122,25.782 15.991,25.592 C16.401,25.033 16.843,24.493 17.298,23.963 ZM15.130,34.335 C15.205,34.121 15.284,33.907 15.349,33.693 C15.740,32.507 16.041,31.295 16.327,30.077 C16.002,32.474 15.634,34.846 14.941,37.101 C14.975,36.181 15.039,35.258 15.130,34.335 ZM15.132,69.951 C15.770,69.250 16.398,68.536 17.016,67.810 C17.446,67.997 17.865,67.984 18.226,67.837 C18.311,68.077 18.452,68.284 18.629,68.456 C17.495,68.976 16.317,69.472 15.132,69.951 ZM26.868,59.081 C26.047,59.620 25.326,60.232 24.668,60.896 C24.401,60.889 24.130,60.949 23.880,61.099 C23.640,61.243 23.411,61.392 23.183,61.543 C24.427,60.598 25.699,59.684 26.974,58.763 C26.994,58.839 27.026,58.917 27.043,58.991 C26.984,59.018 26.925,59.044 26.868,59.081 ZM98.646,100.982 C98.261,100.763 97.792,100.692 97.343,100.756 C97.344,100.747 97.344,100.738 97.345,100.729 C97.422,99.491 97.422,98.295 97.315,97.133 C98.209,98.267 98.958,99.447 99.517,100.672 C99.209,100.702 98.910,100.810 98.646,100.982 ZM97.889,135.782 C98.346,135.321 98.793,134.854 99.237,134.385 C99.528,134.832 100.014,135.154 100.625,135.132 C100.998,135.118 101.363,135.092 101.723,135.059 C100.446,135.312 99.165,135.539 97.889,135.782 ZM288.934,142.651 C289.067,143.598 289.136,144.558 289.138,145.528 C288.960,145.208 288.779,144.888 288.596,144.569 C288.596,144.553 288.605,144.543 288.605,144.527 C288.610,143.935 288.597,143.351 288.587,142.766 C288.706,142.744 288.822,142.703 288.934,142.651 ZM283.684,134.830 C283.525,134.994 283.420,135.220 283.419,135.514 C283.417,136.011 283.415,136.507 283.413,137.004 C282.790,136.040 282.173,135.073 281.571,134.095 C282.348,134.362 283.047,134.590 283.684,134.830 ZM279.522,133.903 C279.455,133.856 279.388,133.810 279.320,133.764 C279.269,133.631 279.207,133.505 279.159,133.371 C279.200,133.295 279.242,133.219 279.283,133.143 C279.535,133.279 279.796,133.405 280.061,133.523 C279.842,133.598 279.658,133.732 279.522,133.903 Z"/>
</svg>