<svg 
 xmlns="http://www.w3.org/2000/svg"
 xmlns:xlink="http://www.w3.org/1999/xlink"
 width="249px" height="385px">
<path fill-rule="evenodd" fill="#4a444e"
 d="M248.323,178.296 C247.878,178.656 247.220,179.169 246.376,179.797 C244.685,181.048 242.235,182.724 239.234,184.540 C237.739,185.467 236.094,186.391 234.350,187.353 C233.474,187.823 232.574,188.305 231.655,188.797 C230.727,189.264 229.779,189.740 228.815,190.225 C224.950,192.137 220.766,193.981 216.526,195.646 C212.286,197.314 207.997,198.825 203.930,200.096 C203.665,200.179 203.404,200.234 203.139,200.310 C204.722,200.987 206.315,201.711 207.894,202.477 C210.994,203.977 214.025,205.661 216.805,207.403 C218.200,208.260 219.517,209.173 220.763,210.047 C222.003,210.934 223.171,211.787 224.221,212.647 C226.336,214.329 228.039,215.891 229.202,217.060 C229.782,217.648 230.231,218.128 230.534,218.466 C230.832,218.813 230.991,218.999 230.991,218.999 C230.991,218.999 230.750,219.033 230.296,219.096 C229.846,219.150 229.192,219.214 228.369,219.272 C226.724,219.382 224.415,219.430 221.717,219.297 C220.361,219.248 218.921,219.117 217.404,218.965 C215.892,218.797 214.301,218.613 212.688,218.336 C209.451,217.807 206.064,217.070 202.746,216.148 C199.427,215.230 196.165,214.159 193.161,213.012 C190.160,211.859 187.584,210.184 185.549,208.290 C184.529,207.348 183.645,206.349 182.895,205.375 C182.311,204.637 181.840,203.909 181.421,203.221 C180.598,204.623 179.774,206.042 178.967,207.518 C175.883,212.935 172.878,218.786 169.855,224.871 C166.905,230.994 163.952,237.364 161.231,243.955 C160.547,245.601 159.861,247.253 159.173,248.910 C158.525,250.584 157.875,252.262 157.223,253.943 C155.884,257.290 154.705,260.714 153.475,264.116 C152.848,265.812 152.276,267.528 151.718,269.247 C151.152,270.963 150.587,272.676 150.022,274.387 C148.913,277.813 147.932,281.266 146.890,284.666 C145.913,288.086 145.020,291.502 144.096,294.861 C143.232,298.237 142.452,301.592 141.644,304.878 C140.163,311.484 138.800,317.882 137.741,323.993 C137.463,325.518 137.189,327.021 136.919,328.503 C136.690,329.991 136.465,331.457 136.244,332.899 C135.818,335.784 135.335,338.558 135.000,341.242 C134.368,346.606 133.643,351.540 133.309,355.863 C132.925,360.220 132.492,363.905 132.335,367.162 C131.926,373.568 131.692,377.229 131.692,377.229 C131.410,381.648 127.602,385.000 123.188,384.718 C122.245,384.657 121.361,384.416 120.540,384.061 C120.253,384.070 119.964,384.078 119.670,384.041 C117.199,383.732 115.330,381.855 114.873,379.537 C114.855,379.451 114.841,379.366 114.827,379.279 C114.794,379.053 114.772,378.826 114.767,378.593 C114.759,378.389 114.766,378.185 114.781,377.977 C114.787,377.904 114.777,377.833 114.786,377.759 C114.792,377.712 114.798,377.666 114.805,377.620 L114.853,377.308 C114.853,377.308 114.861,377.257 114.864,377.237 C114.868,377.221 114.866,377.205 114.870,377.188 C114.872,377.178 114.874,377.168 114.877,377.158 C114.987,376.445 115.537,372.886 116.432,367.098 C116.558,366.286 116.690,365.429 116.829,364.531 C116.920,363.628 117.015,362.683 117.114,361.698 C117.314,359.727 117.530,357.595 117.760,355.318 C117.866,354.178 118.017,353.003 118.097,351.790 C118.155,350.576 118.215,349.327 118.276,348.045 C118.396,345.479 118.523,342.781 118.655,339.965 C118.642,337.147 118.628,334.212 118.613,331.174 C118.610,330.414 118.607,329.648 118.604,328.875 C118.596,328.102 118.525,327.327 118.488,326.543 C118.398,324.977 118.308,323.387 118.215,321.774 C118.115,320.162 118.051,318.524 117.917,316.872 C117.737,315.224 117.555,313.556 117.371,311.870 C117.187,310.182 117.002,308.477 116.814,306.755 C116.582,305.039 116.273,303.317 116.002,301.574 C115.723,299.832 115.441,298.075 115.157,296.306 C114.837,294.543 114.424,292.785 114.059,291.006 C113.683,289.228 113.304,287.439 112.923,285.642 C112.456,283.864 111.986,282.078 111.515,280.285 C111.024,278.497 110.614,276.676 110.052,274.894 C109.493,273.111 108.932,271.322 108.370,269.530 L107.526,266.837 C107.246,265.939 106.893,265.064 106.580,264.175 L104.645,258.856 C104.037,257.066 103.248,255.348 102.545,253.597 C101.820,251.854 101.095,250.113 100.371,248.376 C99.579,246.667 98.789,244.962 98.001,243.262 L96.822,240.715 C96.421,239.871 95.977,239.050 95.558,238.218 C94.755,236.651 93.955,235.091 93.159,233.538 C92.999,233.870 92.839,234.203 92.634,234.577 C92.086,235.573 91.396,236.738 90.524,237.926 C89.662,239.131 88.639,240.398 87.447,241.640 C85.068,244.135 82.020,246.543 78.427,248.521 C74.831,250.494 70.917,252.454 66.925,254.271 C62.934,256.090 58.854,257.744 54.937,259.126 C53.954,259.466 52.988,259.800 52.042,260.126 C51.083,260.429 50.145,260.725 49.232,261.013 C47.394,261.567 45.648,262.078 44.001,262.481 C40.724,263.323 37.911,263.874 35.904,264.190 C34.899,264.344 34.100,264.448 33.550,264.510 C32.994,264.562 32.698,264.590 32.698,264.590 C32.698,264.590 32.883,264.356 33.228,263.918 C33.579,263.489 34.100,262.874 34.776,262.113 C36.131,260.598 38.122,258.534 40.608,256.238 C41.843,255.073 43.219,253.884 44.683,252.640 C45.421,252.030 46.179,251.402 46.954,250.761 C47.741,250.144 48.546,249.513 49.365,248.872 C52.653,246.332 56.257,243.802 59.951,241.437 C63.645,239.071 67.416,236.847 71.024,234.898 C72.300,234.210 73.582,233.640 74.858,233.122 C71.000,232.857 66.820,232.237 62.496,231.168 C56.975,229.797 51.125,228.176 45.314,226.397 C42.406,225.519 39.519,224.558 36.681,223.596 C35.257,223.133 33.856,222.628 32.472,222.128 C31.090,221.622 29.715,221.161 28.380,220.636 C27.042,220.124 25.726,219.620 24.439,219.127 C23.158,218.607 21.904,218.098 20.684,217.602 C18.250,216.587 15.953,215.613 13.851,214.640 C9.637,212.730 6.167,210.972 3.758,209.664 C2.554,209.006 1.613,208.470 0.974,208.094 C0.337,207.708 -0.002,207.503 -0.002,207.503 C-0.002,207.503 0.394,207.481 1.137,207.441 C1.878,207.411 2.960,207.383 4.331,207.371 C7.072,207.354 10.960,207.441 15.576,207.746 C17.889,207.879 20.373,208.104 22.998,208.358 C24.307,208.496 25.652,208.639 27.027,208.785 C28.395,208.958 29.792,209.134 31.214,209.313 C32.638,209.480 34.068,209.723 35.525,209.929 C36.981,210.141 38.454,210.357 39.928,210.620 C42.884,211.112 45.883,211.627 48.861,212.225 C54.823,213.398 60.746,214.728 66.261,216.125 C70.095,217.100 73.668,218.334 76.892,219.709 C72.341,215.843 67.475,210.986 62.783,205.348 C58.063,199.668 53.155,193.504 48.372,187.237 C45.972,184.111 43.637,180.930 41.351,177.789 C40.194,176.230 39.082,174.653 37.985,173.095 C36.892,171.532 35.781,170.015 34.746,168.475 C33.701,166.943 32.673,165.437 31.667,163.963 C30.682,162.471 29.719,161.011 28.781,159.591 C26.924,156.733 25.180,154.021 23.630,151.469 C20.499,146.390 18.022,142.049 16.350,138.958 C15.516,137.410 14.877,136.182 14.449,135.338 C14.029,134.486 13.805,134.032 13.805,134.032 C13.805,134.032 14.209,134.337 14.967,134.908 C15.716,135.485 16.804,136.343 18.168,137.450 C20.891,139.669 24.693,142.912 29.097,146.935 C31.314,148.934 33.651,151.153 36.112,153.509 C37.332,154.696 38.586,155.915 39.868,157.161 C41.128,158.424 42.416,159.715 43.725,161.027 C45.044,162.332 46.328,163.706 47.659,165.071 C48.985,166.439 50.325,167.826 51.641,169.254 C54.300,172.086 56.988,174.973 59.611,177.915 C61.983,180.560 64.323,183.225 66.616,185.878 C70.199,189.806 73.958,194.070 77.672,198.782 C79.796,201.359 81.819,204.131 83.933,206.931 C84.158,207.226 84.370,207.536 84.589,207.838 C84.190,205.709 83.849,203.511 83.629,201.216 C83.090,195.547 82.680,189.485 82.430,183.408 C82.294,180.371 82.243,177.325 82.208,174.326 C82.173,172.828 82.184,171.338 82.196,169.865 C82.215,168.392 82.194,166.941 82.246,165.506 C82.285,164.073 82.324,162.663 82.362,161.283 C82.428,159.901 82.492,158.549 82.554,157.233 C82.704,154.598 82.861,152.105 83.082,149.797 C83.156,148.940 83.236,148.119 83.317,147.317 C81.306,147.308 79.279,147.279 77.245,147.215 C72.302,147.062 67.354,146.722 62.709,146.212 C61.547,146.077 60.405,145.945 59.287,145.815 C58.168,145.658 57.073,145.504 56.008,145.355 C53.876,145.030 51.859,144.709 49.996,144.335 C46.270,143.626 43.160,142.865 40.980,142.251 C39.890,141.940 39.033,141.677 38.448,141.487 C37.863,141.286 37.551,141.178 37.551,141.178 C37.551,141.178 37.856,141.051 38.426,140.813 C38.998,140.586 39.836,140.268 40.904,139.888 C43.040,139.137 46.096,138.177 49.769,137.232 C51.605,136.739 53.596,136.290 55.703,135.829 C56.757,135.612 57.840,135.388 58.946,135.160 C60.054,134.959 61.185,134.754 62.336,134.545 C66.939,133.738 71.856,133.082 76.778,132.613 C81.701,132.143 86.629,131.835 91.253,131.700 C94.340,131.614 97.279,131.837 100.015,132.260 C99.869,132.179 99.727,132.105 99.580,132.023 C95.004,129.464 90.037,126.046 85.164,121.865 C80.295,117.679 75.207,113.090 70.226,108.378 C67.728,106.031 65.286,103.619 62.892,101.233 C61.683,100.053 60.514,98.848 59.360,97.656 C58.211,96.459 57.048,95.308 55.954,94.119 C54.850,92.940 53.766,91.781 52.704,90.646 C51.660,89.490 50.639,88.360 49.644,87.259 C47.673,85.038 45.818,82.928 44.156,80.922 C40.808,76.938 38.129,73.489 36.306,71.014 C35.397,69.773 34.695,68.784 34.224,68.101 C33.760,67.410 33.512,67.042 33.512,67.042 C33.512,67.042 33.913,67.233 34.664,67.591 C35.408,67.957 36.489,68.506 37.848,69.224 C40.562,70.664 44.364,72.810 48.793,75.539 C51.020,76.890 53.378,78.416 55.862,80.041 C57.096,80.864 58.363,81.709 59.659,82.572 C60.936,83.457 62.242,84.360 63.569,85.279 C64.905,86.188 66.213,87.170 67.565,88.132 C68.913,89.099 70.276,90.079 71.619,91.102 C74.329,93.122 77.071,95.185 79.758,97.314 C85.147,101.552 90.430,105.914 95.282,110.120 C100.131,114.331 104.238,118.745 107.439,122.900 C107.559,123.054 107.668,123.205 107.785,123.358 C107.067,121.780 106.345,120.111 105.635,118.335 C103.118,112.071 100.736,104.636 98.853,96.516 C96.976,88.395 95.133,79.696 93.448,70.961 C92.594,66.595 91.824,62.211 91.080,57.892 C90.691,55.736 90.350,53.587 90.015,51.464 C89.686,49.339 89.322,47.249 89.035,45.176 C88.736,43.107 88.442,41.072 88.155,39.080 C87.894,37.082 87.639,35.127 87.390,33.224 C86.918,29.413 86.485,25.806 86.161,22.460 C85.476,15.775 85.071,10.166 84.866,6.222 C84.767,4.249 84.708,2.695 84.678,1.632 C84.659,0.568 84.649,-0.000 84.649,-0.000 C84.649,-0.000 84.887,0.515 85.334,1.482 C85.771,2.450 86.396,3.874 87.167,5.693 C88.702,9.331 90.783,14.554 93.081,20.868 C94.249,24.021 95.432,27.455 96.670,31.090 C97.276,32.911 97.898,34.781 98.535,36.693 C99.144,38.611 99.767,40.570 100.401,42.563 C101.046,44.552 101.630,46.592 102.260,48.648 C102.885,50.705 103.515,52.787 104.105,54.896 C105.320,59.107 106.538,63.389 107.673,67.689 C109.966,76.285 112.101,84.917 113.953,93.044 C115.799,101.172 116.899,108.902 117.364,115.637 C117.430,116.565 117.481,117.469 117.524,118.357 C118.458,113.744 119.904,108.694 121.914,103.519 C124.245,97.533 126.884,91.207 129.674,84.941 C131.058,81.804 132.521,78.698 133.977,75.646 C134.688,74.113 135.436,72.610 136.177,71.125 C136.925,69.643 137.624,68.163 138.382,66.735 C139.127,65.303 139.861,63.894 140.578,62.515 C141.321,61.146 142.048,59.807 142.756,58.503 C144.196,55.905 145.570,53.454 146.910,51.220 C149.554,46.736 151.917,43.063 153.646,40.521 C154.514,39.252 155.214,38.261 155.701,37.590 C156.198,36.922 156.464,36.566 156.464,36.566 C156.464,36.566 156.416,37.008 156.328,37.836 C156.229,38.660 156.070,39.862 155.844,41.384 C155.386,44.425 154.625,48.727 153.520,53.814 C152.986,56.365 152.329,59.098 151.620,61.983 C151.254,63.420 150.878,64.897 150.494,66.407 C150.083,67.907 149.664,69.439 149.238,70.997 C148.824,72.560 148.333,74.121 147.874,75.716 C147.410,77.310 146.938,78.922 146.419,80.529 C145.413,83.758 144.377,87.032 143.262,90.275 C141.053,96.769 138.693,103.204 136.338,109.181 C134.448,113.963 132.274,118.313 130.019,122.126 C131.590,120.937 133.278,119.787 135.089,118.714 C139.259,116.248 143.790,113.758 148.403,111.409 C153.016,109.059 157.723,106.870 162.233,104.983 C163.364,104.517 164.476,104.060 165.565,103.611 C166.668,103.187 167.746,102.772 168.796,102.368 C170.910,101.581 172.915,100.850 174.804,100.242 C178.565,98.991 181.784,98.097 184.079,97.540 C185.228,97.265 186.141,97.066 186.769,96.939 C187.402,96.822 187.740,96.759 187.740,96.759 C187.740,96.759 187.521,97.024 187.110,97.520 C186.694,98.007 186.075,98.708 185.275,99.579 C183.671,101.313 181.322,103.692 178.399,106.370 C176.948,107.726 175.333,109.122 173.618,110.586 C172.753,111.307 171.865,112.048 170.958,112.805 C170.036,113.538 169.095,114.287 168.138,115.049 C164.294,118.072 160.091,121.120 155.793,124.007 C151.496,126.896 147.117,129.644 142.933,132.087 C138.747,134.526 134.516,136.250 130.641,137.305 C126.794,138.360 123.306,138.762 120.732,138.838 C121.620,142.786 122.551,147.055 123.473,151.641 C124.127,154.751 124.723,158.007 125.385,161.369 C125.985,164.742 126.661,168.220 127.254,171.813 C127.408,172.699 127.557,173.611 127.708,174.511 C129.045,173.329 130.255,172.314 131.233,171.540 C132.066,170.886 132.737,170.382 133.204,170.044 C133.680,169.712 133.933,169.535 133.933,169.535 C133.933,169.535 133.876,169.839 133.769,170.410 C133.653,170.974 133.470,171.794 133.216,172.823 C132.702,174.878 131.871,177.752 130.702,181.088 C130.304,182.262 129.837,183.499 129.347,184.764 C129.829,187.944 130.301,191.168 130.757,194.455 C131.308,198.391 131.791,202.404 132.305,206.462 C132.742,210.530 133.264,214.640 133.644,218.798 C134.045,222.954 134.464,227.143 134.770,231.359 C134.934,233.467 135.099,235.578 135.264,237.691 L135.656,244.045 C136.184,252.519 136.467,261.011 136.630,269.376 C136.691,272.670 136.686,275.938 136.692,279.186 C137.675,276.397 138.648,273.592 139.701,270.802 C140.364,269.072 141.030,267.339 141.695,265.605 C142.353,263.868 143.025,262.135 143.752,260.423 C145.181,256.989 146.559,253.539 148.097,250.170 C148.847,248.478 149.596,246.790 150.343,245.107 C151.129,243.443 151.914,241.783 152.695,240.130 C155.805,233.512 159.140,227.135 162.456,221.021 C165.845,214.944 169.201,209.119 172.615,203.736 C173.557,202.196 174.519,200.711 175.475,199.249 C174.784,199.119 174.060,198.962 173.298,198.728 C172.157,198.393 170.950,197.946 169.754,197.355 C167.353,196.180 164.984,194.436 162.964,192.120 C160.949,189.801 158.924,187.219 157.022,184.531 C155.117,181.846 153.361,179.032 151.847,176.280 C151.079,174.914 150.405,173.534 149.771,172.221 C149.149,170.897 148.573,169.636 148.098,168.422 C147.121,166.019 146.435,163.904 146.017,162.372 C145.810,161.603 145.663,160.986 145.570,160.559 C145.486,160.124 145.441,159.893 145.441,159.893 C145.441,159.893 145.663,159.971 146.080,160.119 C146.489,160.274 147.076,160.511 147.805,160.828 C149.258,161.469 151.246,162.459 153.476,163.782 C154.606,164.430 155.767,165.187 156.983,165.998 C158.188,166.819 159.451,167.690 160.688,168.652 C163.184,170.557 165.705,172.711 168.078,174.993 C169.694,176.545 171.246,178.146 172.706,179.747 C172.649,178.641 172.626,177.515 172.658,176.365 C172.782,172.102 173.078,167.560 173.537,163.024 C173.994,158.487 174.638,153.957 175.433,149.715 C175.639,148.655 175.841,147.613 176.039,146.593 C176.265,145.573 176.485,144.576 176.700,143.605 C177.155,141.664 177.600,139.829 178.088,138.138 C179.024,134.755 179.975,131.941 180.721,129.974 C181.098,128.991 181.413,128.219 181.639,127.693 C181.876,127.167 182.002,126.887 182.002,126.887 C182.002,126.887 182.110,127.174 182.312,127.714 C182.503,128.254 182.769,129.045 183.081,130.050 C183.699,132.062 184.467,134.931 185.184,138.367 C185.562,140.086 185.887,141.946 186.217,143.912 C186.369,144.895 186.525,145.904 186.684,146.936 C186.816,147.967 186.951,149.020 187.088,150.092 C187.609,154.375 187.960,158.938 188.124,163.494 C188.289,168.033 188.293,172.566 188.144,176.813 C189.303,174.993 190.584,173.159 191.998,171.343 C195.401,166.983 199.160,162.433 203.046,157.984 C204.989,155.760 206.968,153.563 208.955,151.432 C210.941,149.299 212.943,147.238 214.895,145.255 C215.884,144.273 216.855,143.308 217.807,142.363 C218.780,141.434 219.731,140.526 220.658,139.643 C222.531,137.890 224.313,136.243 226.019,134.770 C229.400,131.799 232.352,129.429 234.482,127.820 C235.550,127.018 236.404,126.400 236.995,125.985 C237.594,125.577 237.914,125.359 237.914,125.359 C237.914,125.359 237.778,125.721 237.524,126.401 C237.262,127.074 236.864,128.051 236.339,129.280 C235.283,131.733 233.684,135.166 231.604,139.158 C230.579,141.167 229.403,143.291 228.147,145.528 C227.509,146.639 226.854,147.780 226.184,148.946 C225.492,150.095 224.786,151.269 224.068,152.463 C222.606,154.832 221.081,157.268 219.483,159.705 C217.887,162.144 216.224,164.589 214.526,167.006 C211.131,171.841 207.608,176.576 204.184,180.919 C203.094,182.300 201.971,183.584 200.838,184.822 C204.450,183.707 208.266,182.649 212.133,181.714 C216.561,180.642 221.044,179.748 225.305,179.093 C226.373,178.936 227.422,178.782 228.450,178.631 C229.485,178.506 230.498,178.383 231.485,178.265 C233.465,178.051 235.342,177.863 237.097,177.762 C240.596,177.525 243.564,177.491 245.665,177.543 C246.717,177.573 247.549,177.615 248.120,177.654 C248.694,177.703 249.000,177.729 249.000,177.729 C249.000,177.729 248.764,177.926 248.323,178.296 ZM120.136,172.968 C119.619,169.402 119.017,165.949 118.489,162.599 C117.897,159.261 117.371,156.027 116.784,152.937 C115.966,148.415 115.131,144.190 114.334,140.287 C113.978,140.533 113.591,140.790 113.154,141.057 C111.036,142.370 107.999,143.901 104.333,145.065 C100.668,146.237 96.372,147.033 91.749,147.200 C91.048,147.225 90.328,147.239 89.614,147.256 C89.792,147.869 89.971,148.495 90.151,149.141 C90.792,151.369 91.404,153.790 92.035,156.353 C92.338,157.635 92.649,158.953 92.967,160.299 C93.258,161.649 93.555,163.027 93.858,164.429 C94.172,165.829 94.417,167.260 94.707,168.704 C94.990,170.150 95.274,171.612 95.515,173.091 C96.031,176.046 96.540,179.049 96.964,182.060 C97.835,188.079 98.544,194.113 99.056,199.784 C99.342,202.992 99.394,206.076 99.289,209.007 C99.594,208.481 99.910,207.956 100.244,207.433 C102.563,203.817 105.174,200.049 107.921,196.368 C110.668,192.688 113.571,189.108 116.454,185.857 C117.181,185.048 117.895,184.252 118.595,183.473 C119.317,182.710 120.024,181.962 120.712,181.235 C120.898,181.043 121.075,180.867 121.259,180.678 C120.894,178.066 120.522,175.483 120.136,172.968 ZM127.048,244.474 L126.784,238.203 C126.662,236.115 126.540,234.030 126.418,231.948 C126.198,227.783 125.864,223.641 125.548,219.530 C125.253,215.417 124.816,211.349 124.463,207.322 C124.129,204.200 123.805,201.118 123.461,198.064 C122.420,200.146 121.322,202.235 120.180,204.298 C117.957,208.317 115.597,212.248 113.256,215.850 C110.911,219.449 108.184,222.461 105.435,224.776 C104.067,225.937 102.689,226.922 101.389,227.744 C100.397,228.387 99.433,228.917 98.556,229.361 C98.679,229.575 98.807,229.784 98.927,230.000 C99.844,231.665 100.766,233.339 101.691,235.020 C102.148,235.863 102.630,236.696 103.070,237.553 L104.364,240.142 C105.229,241.872 106.096,243.608 106.965,245.346 C107.786,247.107 108.566,248.893 109.371,250.670 C110.151,252.457 111.017,254.212 111.703,256.042 L113.869,261.488 C114.220,262.398 114.611,263.295 114.930,264.216 L115.888,266.979 C116.525,268.820 117.162,270.658 117.796,272.490 C118.433,274.323 118.918,276.197 119.482,278.039 C120.027,279.888 120.569,281.730 121.108,283.562 C121.560,285.419 122.010,287.266 122.457,289.102 C122.892,290.941 123.373,292.760 123.761,294.584 C124.112,296.417 124.461,298.237 124.806,300.042 C125.142,301.848 125.516,303.635 125.810,305.416 C125.888,305.972 125.964,306.515 126.041,307.068 C126.097,306.406 126.152,305.755 126.209,305.087 C126.437,301.328 126.671,297.487 126.908,293.580 C127.053,289.667 127.201,285.689 127.350,281.662 C127.403,277.630 127.518,273.550 127.522,269.434 C127.521,261.204 127.406,252.837 127.048,244.474 Z"/>
</svg>