<svg 
 xmlns="http://www.w3.org/2000/svg"
 xmlns:xlink="http://www.w3.org/1999/xlink"
 width="268px" height="251px">
<path fill-rule="evenodd" fill="#4a444e"
 d="M267.315,19.826 C255.648,30.075 241.621,28.396 241.621,28.396 C246.663,29.390 248.855,34.381 248.855,34.381 C245.753,35.121 242.527,35.056 239.557,34.617 C233.751,33.759 228.292,31.308 223.644,27.711 L220.858,25.554 L219.573,25.723 C219.353,26.153 219.130,26.590 218.897,27.048 C218.637,27.555 218.371,28.075 218.099,28.606 C217.819,29.132 217.498,29.653 217.189,30.195 C216.561,31.273 215.907,32.395 215.229,33.559 C214.486,34.687 213.717,35.856 212.922,37.063 C209.794,41.625 205.827,46.491 200.954,51.196 C202.650,63.547 196.402,72.673 196.402,72.673 C199.356,69.004 204.342,69.373 204.342,69.373 C203.621,72.212 202.195,74.806 200.574,77.030 C197.405,81.378 193.090,84.759 188.192,86.986 L186.343,87.827 L185.763,89.206 C195.646,87.391 203.740,84.341 209.399,81.711 L209.840,80.009 C210.803,76.290 212.648,72.840 215.312,70.078 C216.675,68.665 218.321,67.344 220.227,66.489 C220.227,66.489 221.097,69.951 218.883,72.479 C218.883,72.479 225.479,66.010 235.647,66.665 C232.152,76.227 223.568,79.653 223.568,79.653 C226.776,78.647 229.598,80.837 229.598,80.837 C228.047,82.235 226.173,83.208 224.330,83.885 C220.726,85.209 216.822,85.507 213.027,84.889 L210.522,84.482 C205.876,86.627 199.708,89.024 192.316,90.853 C196.927,91.126 201.450,92.353 205.511,94.590 C207.928,95.922 210.326,97.670 212.189,99.938 C212.189,99.938 207.831,102.372 203.591,100.294 C203.591,100.294 214.788,106.872 217.678,120.869 C203.452,119.610 195.631,109.237 195.631,109.237 C198.183,113.213 196.270,117.826 196.270,117.826 C193.804,116.235 191.792,114.053 190.192,111.804 C187.063,107.408 185.211,102.233 184.636,96.873 L184.235,93.131 L183.697,92.581 C172.516,94.341 159.324,94.480 144.905,90.952 C143.561,92.065 142.221,93.186 140.913,94.356 C134.464,100.145 128.580,106.709 123.345,113.789 C121.979,115.534 120.833,117.350 119.589,119.127 L118.671,120.464 L117.765,121.912 L115.958,124.807 C114.746,126.749 113.536,128.687 112.330,130.619 C111.131,132.622 109.753,134.501 108.465,136.429 C103.176,144.051 97.345,151.132 91.205,157.517 C85.072,163.912 78.625,169.599 72.166,174.538 C70.430,175.869 68.695,177.138 66.965,178.364 C79.008,181.339 90.112,182.946 100.136,183.633 L100.102,183.600 L101.208,182.468 L101.275,177.921 C101.363,171.940 102.881,166.043 105.891,160.883 C107.430,158.245 109.431,155.640 111.996,153.646 C111.996,153.646 114.583,158.563 112.168,163.202 C112.168,163.202 119.754,150.988 135.355,148.239 C133.590,163.989 121.882,172.330 121.882,172.330 C126.358,169.628 131.425,171.902 131.425,171.902 C129.597,174.588 127.124,176.750 124.589,178.452 C119.897,181.603 114.459,183.445 108.837,184.027 C120.802,184.255 130.924,183.218 138.825,181.840 C141.366,181.396 143.746,180.905 145.986,180.391 L148.180,176.704 C150.933,172.081 154.768,168.164 159.438,165.494 C161.827,164.128 164.561,162.996 167.462,162.593 C167.462,162.593 167.280,167.589 163.308,170.121 C163.308,170.121 174.725,164.005 188.165,168.868 C179.716,180.356 166.813,181.601 166.813,181.601 C171.527,181.505 174.471,185.554 174.471,185.554 C171.835,186.827 168.931,187.402 166.183,187.590 C160.810,187.959 155.435,186.830 150.564,184.514 L147.466,183.041 C135.712,185.799 119.692,187.919 100.151,186.632 L105.547,188.972 C113.470,192.408 120.501,197.707 125.733,204.585 C128.408,208.103 130.786,212.218 132.043,216.746 C132.043,216.746 124.075,217.468 119.212,211.672 C119.212,211.672 131.345,228.571 126.484,250.909 C106.454,239.815 101.735,219.567 101.735,219.567 C102.891,227.037 97.090,232.535 97.090,232.535 C94.509,228.606 92.980,224.107 92.096,219.780 C90.368,211.319 91.018,202.551 93.658,194.343 L95.911,187.341 C95.730,186.892 95.585,186.529 95.475,186.256 C85.658,185.357 75.036,183.607 63.655,180.641 C60.081,183.054 56.543,185.270 53.102,187.253 C40.781,194.364 29.682,198.750 21.732,201.352 C17.753,202.658 14.550,203.526 12.313,204.074 C11.196,204.349 10.314,204.542 9.703,204.671 C9.056,204.799 8.721,204.865 8.721,204.865 C4.927,205.614 1.235,203.143 0.474,199.345 C-0.287,195.547 2.171,191.861 5.965,191.111 C6.014,191.102 6.062,191.093 6.110,191.084 L6.300,191.052 C6.300,191.052 6.527,191.013 6.967,190.938 C7.441,190.850 8.166,190.712 9.134,190.500 C11.066,190.079 13.948,189.381 17.591,188.288 C24.868,186.113 35.228,182.335 46.811,176.040 C52.600,172.901 58.687,169.142 64.801,164.702 C70.919,160.270 77.050,155.139 82.915,149.329 C87.827,144.476 92.541,139.134 96.965,133.419 C89.924,116.177 89.882,99.651 92.237,86.232 L88.792,85.909 C84.852,85.539 81.036,84.229 77.777,81.973 C76.111,80.819 74.489,79.363 73.297,77.566 C73.297,77.566 76.665,76.115 79.608,77.951 C79.608,77.951 71.917,72.306 70.853,61.865 C81.156,63.851 86.095,72.014 86.095,72.014 C84.527,68.919 86.271,65.693 86.271,65.693 C87.954,67.040 89.261,68.785 90.262,70.547 C92.156,73.880 93.113,77.656 93.191,81.481 C93.856,78.557 94.617,75.812 95.421,73.282 C98.670,63.053 102.897,55.021 105.860,50.088 L105.745,48.147 C105.532,44.532 106.186,40.904 107.773,37.655 C108.585,35.993 109.677,34.332 111.136,33.013 C111.136,33.013 112.915,35.867 111.664,38.776 C111.664,38.776 115.699,31.063 124.992,28.708 C124.627,38.297 117.933,43.855 117.933,43.855 C120.514,42.024 123.673,43.171 123.673,43.171 C122.689,44.874 121.293,46.290 119.839,47.430 C116.995,49.661 113.586,51.058 110.010,51.602 L108.349,51.855 C104.997,57.527 100.000,67.324 96.835,79.615 C99.658,74.909 103.528,70.889 108.248,68.080 C110.770,66.579 113.666,65.321 116.753,64.837 C116.753,64.837 116.651,70.169 112.462,72.944 C112.462,72.944 124.527,66.209 138.953,71.148 C130.155,83.558 116.414,85.125 116.414,85.125 C121.441,84.935 124.657,89.200 124.657,89.200 C121.869,90.606 118.781,91.273 115.853,91.525 C110.129,92.018 104.375,90.913 99.136,88.533 L95.276,86.779 C92.956,99.798 93.115,114.934 99.111,130.612 C99.253,130.420 99.402,130.238 99.543,130.046 C100.794,128.269 102.138,126.543 103.310,124.690 C104.548,122.815 105.790,120.934 107.035,119.049 L108.916,116.202 L109.860,114.776 L110.910,113.318 C112.323,111.391 113.682,109.384 115.175,107.569 C120.983,100.119 127.529,93.190 134.613,87.157 C141.704,81.131 149.235,75.946 156.651,71.434 C164.059,66.879 171.291,62.893 177.833,58.819 C184.355,54.740 190.242,50.615 195.090,46.190 C199.972,41.802 203.906,37.239 207.038,32.918 C207.802,31.821 208.541,30.760 209.254,29.736 C209.912,28.671 210.546,27.644 211.154,26.657 C211.455,26.161 211.767,25.686 212.041,25.201 C212.307,24.711 212.568,24.231 212.822,23.762 C213.167,23.130 213.484,22.546 213.807,21.954 L212.495,21.559 C209.544,20.671 206.832,19.085 204.692,16.864 C203.598,15.729 202.584,14.369 201.950,12.816 C201.950,12.816 204.744,12.228 206.708,14.080 C206.708,14.080 201.706,8.595 202.499,0.473 C210.058,3.572 212.572,10.554 212.572,10.554 C211.852,7.953 213.679,5.763 213.679,5.763 C214.757,7.048 215.486,8.579 215.979,10.076 C216.591,11.934 216.833,13.876 216.803,15.819 C217.304,14.719 217.739,13.724 218.060,12.905 C218.865,10.980 219.295,9.953 219.295,9.953 L219.354,9.810 C220.046,8.159 221.946,7.385 223.599,8.081 C225.224,8.766 226.003,10.622 225.372,12.254 C225.372,12.254 224.949,13.345 224.155,15.392 C223.779,16.428 223.265,17.692 222.628,19.166 L222.922,18.851 C226.928,14.576 231.921,11.304 237.515,9.551 C240.375,8.655 243.550,8.088 246.732,8.335 C246.732,8.335 245.376,13.604 240.559,15.372 C240.559,15.372 254.137,11.527 267.315,19.826 ZM180.692,83.757 C178.927,78.660 178.397,73.193 179.356,67.892 C179.373,67.797 179.400,67.701 179.418,67.605 C173.582,71.339 167.463,74.994 161.403,78.942 C156.797,81.910 152.266,85.119 147.873,88.570 C160.574,91.361 172.232,91.253 182.259,89.786 L182.545,89.106 L180.692,83.757 ZM184.933,63.983 C185.340,65.128 185.570,66.463 185.377,67.926 C185.377,67.926 185.883,65.522 187.469,62.220 C186.633,62.811 185.789,63.399 184.933,63.983 Z"/>
</svg>