<svg 
 xmlns="http://www.w3.org/2000/svg"
 xmlns:xlink="http://www.w3.org/1999/xlink"
 width="251px" height="347px">
<path fill-rule="evenodd" fill="#4a444e"
 d="M168.234,243.728 C165.210,248.932 162.388,254.107 159.879,259.240 C159.457,260.103 159.037,260.963 158.619,261.819 C158.227,262.684 157.838,263.545 157.450,264.402 C157.064,265.259 156.681,266.112 156.299,266.961 L156.200,267.180 C156.191,267.202 156.180,267.227 156.187,267.213 L156.154,267.296 L156.088,267.464 L155.826,268.132 L155.302,269.464 C154.199,272.541 153.216,276.073 152.352,279.431 C150.670,286.236 149.409,292.843 148.392,298.956 C146.358,311.200 145.368,321.522 144.816,328.712 C144.571,332.311 144.392,335.137 144.326,337.060 C144.242,338.984 144.197,340.010 144.197,340.010 L144.191,340.148 C144.021,344.008 140.752,347.001 136.890,346.831 C135.696,346.779 134.604,346.404 133.643,345.833 C130.448,344.927 128.254,341.853 128.591,338.432 C128.597,338.376 128.603,338.320 128.610,338.265 L128.630,338.106 C128.630,338.106 128.663,337.848 128.727,337.346 C128.786,336.799 128.873,335.987 128.987,334.928 C129.193,332.778 129.453,329.578 129.634,325.475 C129.994,317.276 130.055,305.445 128.678,291.348 C127.288,277.274 124.452,260.901 118.923,244.124 C117.994,241.300 116.960,238.468 115.877,235.636 C101.635,239.590 38.761,251.688 7.995,168.271 C-25.000,78.811 63.051,-0.001 63.051,-0.001 C63.051,-0.001 52.801,88.638 101.194,137.035 C138.187,174.031 130.205,209.574 123.455,225.700 C125.691,230.618 127.716,235.561 129.493,240.478 C130.955,244.520 132.247,248.534 133.420,252.507 C133.859,247.470 134.221,242.050 134.669,236.327 C134.933,233.277 135.058,230.129 135.225,226.915 C135.387,223.700 135.553,220.415 135.721,217.075 C135.922,213.736 135.981,210.332 136.090,206.889 C136.191,203.445 136.294,199.959 136.397,196.445 C136.542,189.415 136.582,182.267 136.664,175.119 C136.610,167.971 136.647,160.819 136.521,153.779 C136.419,148.662 136.350,143.605 136.227,138.648 C95.815,124.593 134.641,50.335 134.641,50.335 C134.641,50.335 135.172,51.077 136.055,52.587 C175.113,115.115 150.872,133.768 141.782,138.224 C142.056,143.263 142.284,148.395 142.540,153.605 C142.873,160.670 143.047,167.856 143.310,175.039 C143.439,182.227 143.609,189.416 143.668,196.497 C143.668,200.038 143.668,203.552 143.668,207.023 C143.658,210.495 143.699,213.924 143.596,217.299 C143.524,220.675 143.454,223.994 143.385,227.242 C143.312,230.492 143.278,233.671 143.102,236.766 C142.799,242.955 142.588,248.811 142.258,254.215 C141.849,259.618 141.474,264.571 141.142,268.961 C141.054,270.059 140.989,271.123 140.890,272.147 C140.776,273.172 140.665,274.159 140.559,275.108 C140.369,276.814 140.194,278.376 140.032,279.822 C140.340,278.672 140.640,277.529 140.974,276.359 C142.054,272.739 143.161,269.117 144.785,265.089 L145.355,263.777 L145.641,263.118 L145.849,262.639 L146.014,262.305 C146.451,261.415 146.891,260.521 147.333,259.622 C147.778,258.725 148.224,257.824 148.673,256.919 C149.145,256.030 149.621,255.137 150.098,254.240 C153.196,248.425 156.652,242.651 160.289,236.925 C152.574,221.922 140.290,185.742 174.397,148.054 C220.161,97.484 231.231,44.368 231.231,44.368 C231.231,44.368 303.721,224.915 168.234,243.728 Z"/>
</svg>