<svg 
 xmlns="http://www.w3.org/2000/svg"
 xmlns:xlink="http://www.w3.org/1999/xlink"
 width="317px" height="371px">
<path fill-rule="evenodd" fill="#4a444e"
 d="M288.142,54.904 C276.182,55.015 257.899,50.091 253.743,62.794 C249.319,75.805 269.717,74.123 282.659,71.371 C278.125,86.310 274.487,101.821 271.210,117.528 C268.472,116.788 265.521,115.941 262.910,114.639 C255.881,111.589 250.076,108.234 242.130,107.623 C228.074,106.709 202.098,114.639 212.794,133.851 C219.517,145.745 232.962,141.475 243.353,137.511 C250.974,134.763 259.621,132.755 267.974,133.601 C263.641,155.747 259.664,178.027 254.582,199.412 C252.944,198.773 251.422,198.052 250.380,197.590 C239.685,193.319 232.962,185.085 223.489,178.682 C210.961,170.141 183.765,162.824 176.430,181.732 C172.764,190.880 175.514,201.554 183.765,206.738 C190.488,211.007 199.043,210.093 206.683,209.788 C214.933,209.788 224.101,208.567 232.046,210.702 C238.283,212.547 243.821,216.483 249.057,220.534 C246.394,229.732 243.416,238.684 239.991,247.299 C235.534,258.591 230.307,269.880 224.069,280.471 C223.773,280.294 223.477,280.117 223.184,279.930 C211.573,272.612 202.098,262.243 191.710,253.094 C180.403,243.335 155.345,227.781 140.067,237.844 C126.316,246.995 121.121,271.392 138.233,279.320 C155.345,286.945 174.292,280.541 191.710,287.250 C198.371,289.711 205.626,294.360 210.909,299.590 C196.194,317.784 177.142,331.725 151.984,336.349 C118.592,342.300 72.424,325.015 71.332,285.650 C60.859,312.700 53.617,343.262 67.685,365.324 L66.263,366.743 C64.842,368.163 61.998,369.582 59.154,371.000 C44.561,353.316 56.717,313.528 70.405,282.921 C43.736,290.479 13.767,259.238 5.306,236.319 C0.252,220.732 -1.000,204.969 0.960,189.554 C8.348,191.470 15.801,196.164 21.502,199.115 C30.975,203.689 38.920,211.618 47.171,218.326 C58.171,227.171 71.006,226.867 76.507,211.618 C81.701,197.894 72.839,186.915 62.144,179.291 C51.143,171.362 38.614,170.752 25.474,169.227 C19.840,168.580 12.367,168.842 5.986,167.531 C11.791,149.909 21.654,133.114 34.642,117.993 C40.046,111.668 45.912,105.718 52.140,100.087 C67.423,111.542 72.794,133.306 85.980,147.270 C90.869,152.455 95.758,155.504 103.091,153.674 C109.509,151.844 115.009,146.355 116.842,139.950 C121.732,124.397 105.231,116.468 94.536,109.454 C84.726,102.927 76.372,95.148 68.437,86.650 C86.222,73.231 106.041,61.803 126.332,51.584 C129.261,55.906 131.371,61.181 132.733,65.844 C135.483,75.907 133.955,92.680 142.818,100.000 C153.513,109.148 169.708,97.560 168.179,85.055 C166.651,71.638 152.289,61.269 145.568,50.595 C144.075,48.429 142.840,46.258 141.856,44.015 C153.037,38.730 164.240,33.748 175.208,28.943 C179.423,27.211 183.766,25.519 188.211,23.877 C189.315,27.963 189.769,32.235 190.792,37.177 C192.932,48.461 200.877,60.963 213.711,51.510 C222.573,44.496 217.073,36.261 212.183,29.247 C209.730,25.575 207.047,21.902 205.136,18.037 C240.781,6.598 281.079,-1.001 316.997,0.885 C304.475,16.954 295.304,35.275 288.142,54.904 Z"/>
</svg>