<svg 
 xmlns="http://www.w3.org/2000/svg"
 xmlns:xlink="http://www.w3.org/1999/xlink"
 width="310px" height="434px">
<path fill-rule="evenodd" fill="#504a54"
 d="M292.043,80.330 C281.645,98.662 280.347,119.926 273.086,139.297 C259.423,138.588 243.996,135.077 232.013,132.285 C243.292,136.415 255.820,143.879 267.787,150.842 C266.888,152.443 265.928,154.023 264.884,155.577 C257.130,166.760 246.605,176.688 238.850,187.874 C232.615,197.077 227.971,206.744 221.645,215.618 C210.987,212.184 200.191,207.658 189.138,206.069 C194.919,213.369 205.056,219.033 213.945,225.164 C204.930,235.123 194.011,243.627 184.061,252.570 C170.841,263.278 159.763,276.629 147.248,287.993 C142.676,291.959 137.784,295.716 132.641,299.230 C127.276,294.090 119.167,289.332 114.431,284.447 C116.511,291.228 120.134,298.254 123.632,304.976 C96.188,321.306 63.082,330.702 32.287,327.690 C31.563,326.997 30.885,326.259 30.227,325.501 C16.769,355.082 -3.596,399.613 14.863,428.624 L13.520,429.968 C12.177,431.313 9.491,432.655 6.803,433.999 C-11.636,411.602 15.132,351.744 30.109,325.367 C30.062,325.314 30.014,325.262 29.968,325.209 C30.239,324.858 30.523,324.514 30.796,324.165 L30.796,324.165 C30.523,324.514 30.239,324.858 29.968,325.209 C9.758,301.434 20.270,247.549 33.120,222.098 C39.605,208.541 46.561,194.484 54.098,180.867 C57.028,181.907 59.717,182.889 61.647,183.579 C74.038,187.203 86.532,193.549 99.553,195.786 C96.562,189.892 76.588,173.976 63.430,164.796 C68.613,156.328 74.058,148.203 79.795,140.678 C90.824,125.966 104.145,117.980 119.481,109.234 C123.167,107.114 126.666,104.653 130.089,102.068 C140.910,107.989 152.252,115.338 161.467,121.291 L161.442,120.610 C155.446,112.302 146.794,103.433 140.082,94.289 C144.986,90.480 149.951,86.854 155.314,84.063 C166.601,78.162 177.905,72.697 187.713,65.249 C192.798,68.790 197.646,72.582 202.686,76.168 L202.660,75.490 C201.928,74.155 201.199,72.819 200.468,71.486 L201.148,71.459 C199.188,67.541 197.206,63.237 195.027,58.965 C207.219,46.322 214.795,30.659 229.245,21.379 C248.508,8.402 275.704,-10.999 295.504,8.695 C296.236,9.173 296.921,9.672 297.585,10.177 C320.999,27.970 303.231,60.710 292.043,80.330 ZM30.886,324.052 L30.886,324.052 C37.725,315.334 45.296,306.986 53.066,299.035 C45.292,306.985 37.725,315.334 30.886,324.052 ZM53.212,298.888 C54.453,297.619 55.698,296.360 56.946,295.112 C55.698,296.360 54.453,297.620 53.212,298.888 Z"/>
</svg>