<svg 
 xmlns="http://www.w3.org/2000/svg"
 xmlns:xlink="http://www.w3.org/1999/xlink"
 width="201px" height="220px">
<path fill-rule="evenodd" fill="#504a54"
 d="M176.937,58.786 C176.958,58.820 176.984,58.850 177.005,58.884 C176.841,59.045 176.665,59.197 176.499,59.358 L176.499,59.358 C176.665,59.197 176.841,59.045 177.005,58.884 C186.373,73.518 176.528,102.462 167.528,115.541 C162.932,122.534 158.038,129.769 152.858,136.717 C151.319,135.923 149.909,135.180 148.896,134.654 C142.331,131.724 135.913,127.285 128.897,125.073 C130.104,128.550 139.931,138.831 146.502,144.884 C143.007,149.167 139.393,153.242 135.663,156.963 C128.473,164.253 120.523,167.660 111.405,171.335 C109.212,172.228 107.097,173.323 105.014,174.492 C99.487,170.414 93.781,165.507 89.143,161.531 L89.106,161.909 C91.791,166.942 95.899,172.486 98.916,178.035 C95.924,179.768 92.913,181.397 89.744,182.534 C83.073,184.943 76.426,187.110 70.455,190.484 C67.915,188.148 65.525,185.692 63.013,183.335 L62.976,183.711 C63.280,184.503 63.582,185.294 63.885,186.085 L63.508,186.049 C64.295,188.358 65.066,190.881 65.948,193.402 C58.272,199.463 52.916,207.537 44.246,211.573 C32.643,217.287 16.181,225.951 6.734,213.599 C6.366,213.280 6.026,212.953 5.697,212.625 C-5.887,201.050 6.374,184.318 14.020,174.332 C21.134,164.997 23.446,153.362 28.906,143.218 C36.392,144.635 44.640,147.730 51.043,150.170 C45.129,147.045 38.777,141.986 32.697,137.246 C33.313,136.430 33.961,135.630 34.653,134.851 C39.771,129.262 46.324,124.575 51.443,118.984 C55.573,114.375 58.861,109.389 63.018,104.967 C68.641,107.662 74.258,110.970 80.237,112.676 C77.596,108.214 72.428,104.328 67.983,100.278 C73.705,95.459 80.368,91.587 86.529,87.399 C94.627,82.483 101.742,75.947 109.500,70.616 C112.320,68.771 115.302,67.065 118.403,65.512 C120.978,68.751 125.095,71.985 127.342,75.036 C126.703,71.138 125.231,66.989 123.805,63.018 C140.174,56.067 159.146,53.367 175.912,57.340 C176.260,57.778 176.575,58.240 176.881,58.708 C186.527,43.396 201.110,20.350 193.102,2.955 L193.944,2.315 C194.786,1.673 196.368,1.134 197.952,0.594 C206.448,14.341 187.177,45.363 176.937,58.786 ZM157.393,75.321 C163.944,70.445 170.521,65.161 176.432,59.420 C170.521,65.161 163.944,70.445 157.393,75.321 Z"/>
</svg>