<svg 
 xmlns="http://www.w3.org/2000/svg"
 xmlns:xlink="http://www.w3.org/1999/xlink"
 width="300px" height="301px">
<path fill-rule="evenodd" fill="#504a54"
 d="M296.294,158.041 C295.410,161.280 294.401,164.544 293.276,167.821 C292.729,165.211 291.995,162.693 291.597,161.032 C289.977,154.270 287.376,147.742 283.608,142.115 C276.798,130.999 264.760,121.136 249.333,124.523 C244.105,125.776 236.729,128.164 239.120,133.810 C241.369,138.868 251.152,139.321 256.034,140.950 C272.197,146.404 284.152,163.128 286.765,178.357 C287.037,179.743 287.262,181.139 287.466,182.536 C278.754,202.112 266.125,221.638 250.624,239.030 C252.417,233.579 253.687,228.017 254.773,223.645 C259.182,204.556 258.990,185.013 248.742,168.194 C244.365,161.469 238.823,155.646 230.135,153.997 C224.344,152.898 215.637,154.051 213.637,160.126 C209.940,170.650 229.968,183.574 235.721,190.280 C250.746,207.381 245.742,233.799 235.111,254.801 C228.930,260.486 222.417,265.807 215.627,270.674 C215.740,270.221 215.854,269.769 215.962,269.323 C219.333,258.878 221.910,247.999 222.455,237.298 C223.064,222.538 215.186,198.310 198.180,193.679 C192.248,191.991 184.431,195.418 185.329,202.044 C186.718,210.728 196.301,219.002 199.910,226.843 C208.129,243.840 205.282,262.245 197.370,279.687 C196.787,280.824 196.217,281.996 195.626,283.183 C182.497,290.240 168.602,295.507 154.219,298.419 C155.565,296.981 156.784,295.584 157.721,294.473 C164.481,286.635 171.170,278.503 175.151,269.154 C181.852,253.867 181.308,232.855 164.112,224.540 C143.085,214.654 152.759,252.134 152.931,258.621 C153.110,269.460 148.759,280.143 143.074,289.588 C140.940,293.069 138.226,297.108 135.105,300.830 C132.998,300.936 130.883,301.000 128.762,300.998 C119.060,300.865 108.955,300.044 98.713,298.801 C108.256,290.617 117.091,280.481 120.959,269.392 C122.887,263.023 123.925,254.379 120.160,248.752 C114.707,240.421 107.198,246.572 104.360,253.471 C100.379,262.821 98.642,272.875 93.939,282.086 C91.285,287.599 87.485,292.278 83.209,296.636 C73.054,295.049 62.902,293.166 53.003,291.229 C61.228,284.518 68.773,275.861 72.182,267.712 C74.950,260.519 72.395,252.737 62.590,255.086 C54.748,256.965 52.518,264.962 49.072,270.763 C45.526,276.871 41.915,282.757 37.511,288.136 C25.221,285.657 13.596,283.306 3.148,281.577 C2.272,281.432 1.392,281.284 0.537,281.149 C6.239,274.780 7.285,264.392 7.326,254.217 C15.409,251.015 29.855,249.693 35.407,249.785 C40.987,250.002 51.124,251.927 56.115,248.244 C61.875,243.442 56.448,236.659 50.585,235.266 C35.669,232.068 22.106,244.355 7.198,245.637 C7.110,242.033 7.027,238.623 7.136,235.625 C7.332,232.640 7.534,229.655 7.743,226.673 C15.979,224.977 24.236,223.373 32.800,223.049 C49.588,222.446 74.092,232.431 89.234,223.517 C96.187,219.364 98.884,211.877 92.502,206.877 C86.589,202.386 76.665,201.344 69.122,201.597 C59.551,202.026 50.427,205.767 40.810,207.448 C31.123,208.838 22.787,208.660 13.004,208.205 C11.782,208.136 10.530,208.181 9.278,208.251 C10.287,198.346 11.680,188.514 13.850,178.829 C15.361,178.325 16.873,177.827 18.400,177.374 C30.278,173.595 42.024,173.579 54.094,173.485 C65.839,173.469 77.044,172.649 88.557,174.553 C97.572,176.124 107.194,178.793 116.414,176.895 C123.675,175.466 130.672,170.058 128.256,162.864 C125.841,155.669 116.781,155.353 109.753,154.862 C92.870,153.621 75.410,157.184 58.835,158.669 C49.007,159.468 39.505,160.191 29.959,162.168 C25.799,163.008 21.840,163.956 17.849,164.593 C22.166,151.326 27.667,137.706 34.384,124.600 C45.797,121.234 57.702,118.250 69.193,118.254 C90.905,118.026 110.345,127.048 129.360,134.306 C135.433,136.582 143.147,142.817 150.663,141.016 C158.179,139.215 159.871,130.415 158.133,124.612 C153.703,110.440 131.258,106.180 117.458,104.823 C95.031,102.486 72.438,101.545 50.427,97.948 C55.501,90.778 61.019,84.010 66.993,77.843 C72.202,72.381 77.665,66.654 83.377,60.925 C91.906,60.420 101.208,62.553 108.272,65.050 C116.191,67.817 124.693,70.132 131.913,74.309 C139.602,78.996 146.078,85.839 152.600,91.426 C157.394,95.563 164.806,103.426 172.461,102.213 C179.466,101.156 183.655,92.690 183.298,86.869 C182.811,73.305 162.557,66.654 152.020,60.163 C143.537,55.044 134.894,52.141 125.897,47.767 C120.248,44.859 113.898,41.272 107.295,38.858 C121.395,27.181 136.747,17.144 153.383,11.541 C155.632,10.782 157.927,10.030 160.251,9.292 C162.259,10.542 164.208,11.856 166.009,13.282 C179.354,22.832 189.297,36.927 192.706,52.590 C195.125,64.135 204.915,84.798 219.389,67.337 C230.577,53.464 222.139,31.234 211.595,20.391 C204.676,13.369 194.749,8.450 186.312,2.509 C212.126,-2.390 238.138,-0.731 254.322,21.345 C270.901,44.724 257.937,67.520 241.114,87.415 C242.517,86.932 243.912,86.421 245.310,85.907 C253.658,82.838 261.993,79.718 271.781,82.661 C302.551,91.870 302.361,133.371 296.294,158.041 Z"/>
</svg>