<svg 
 xmlns="http://www.w3.org/2000/svg"
 xmlns:xlink="http://www.w3.org/1999/xlink"
 width="316px" height="276px">
<path fill-rule="evenodd" fill="#504a54"
 d="M249.640,184.226 C265.197,192.924 285.692,180.871 294.610,168.655 C300.370,160.654 303.550,150.041 307.990,140.727 C317.156,165.350 319.891,191.271 300.849,210.935 C280.588,231.206 255.937,222.257 233.499,209.015 C234.210,210.317 234.948,211.606 235.689,212.898 C240.118,220.612 244.594,228.304 243.337,238.447 C239.429,270.327 198.486,277.113 173.147,275.277 C169.806,274.950 166.418,274.503 162.999,273.945 C165.480,272.968 167.840,271.821 169.410,271.150 C175.804,268.416 181.802,264.756 186.715,260.096 C196.529,251.515 204.229,237.991 198.299,223.352 C196.185,218.408 192.592,211.539 187.427,214.844 C182.820,217.911 184.017,227.631 183.231,232.718 C180.570,249.567 166.093,264.162 151.519,269.297 C150.199,269.798 148.861,270.254 147.517,270.690 C126.756,265.391 105.386,256.223 85.636,243.864 C91.311,244.716 97.008,245.033 101.500,245.369 C121.058,246.508 140.291,243.035 155.150,230.106 C161.044,224.662 165.852,218.221 166.018,209.379 C166.129,203.486 163.530,195.097 157.204,194.145 C146.209,192.269 136.833,214.184 131.190,220.982 C116.856,238.667 89.973,238.173 67.483,231.221 C60.841,226.084 54.501,220.557 48.563,214.681 C49.028,214.717 49.493,214.753 49.950,214.785 C60.814,216.353 71.970,217.065 82.611,215.804 C97.264,213.925 119.824,202.088 121.532,184.546 C122.199,178.415 117.507,171.285 111.126,173.283 C102.799,176.111 96.253,186.948 89.129,191.823 C73.755,202.781 55.134,203.067 36.610,198.198 C35.391,197.815 34.140,197.449 32.870,197.066 C23.708,185.310 16.181,172.497 10.894,158.808 C12.538,159.893 14.120,160.860 15.372,161.597 C24.235,166.944 33.375,172.172 43.260,174.525 C59.455,178.563 80.077,174.496 85.385,156.147 C91.598,133.758 56.276,149.592 49.910,150.852 C39.255,152.849 27.993,150.355 17.727,146.337 C13.937,144.819 9.499,142.821 5.306,140.371 C4.847,138.312 4.429,136.238 4.074,134.146 C2.576,124.560 1.687,114.460 1.191,104.155 C10.863,112.187 22.338,119.194 33.920,121.144 C40.522,121.975 49.218,121.545 54.132,116.888 C61.429,110.113 54.104,103.744 46.826,102.106 C36.940,99.752 26.737,99.729 16.867,96.641 C10.987,94.951 5.736,91.990 0.721,88.508 C0.579,78.230 0.729,67.907 0.976,57.823 C8.973,64.803 18.775,70.786 27.381,72.778 C34.937,74.298 42.179,70.472 38.216,61.201 C35.046,53.786 26.788,52.931 20.491,50.509 C13.873,48.039 7.465,45.469 1.422,42.031 C1.800,29.499 2.165,17.644 2.114,7.055 C2.110,6.167 2.108,5.275 2.097,4.409 C9.334,8.960 19.750,8.246 29.788,6.576 C34.302,14.007 38.031,28.025 38.875,33.514 C39.598,39.051 39.403,49.367 43.873,53.668 C49.574,58.539 55.349,52.050 55.737,46.037 C56.384,30.795 41.993,19.489 38.223,5.009 C41.762,4.317 45.110,3.662 48.083,3.265 C51.058,2.957 54.035,2.655 57.010,2.360 C60.065,10.194 63.034,18.064 64.792,26.451 C68.207,42.900 62.481,68.733 73.813,82.162 C79.075,88.318 86.908,89.719 90.765,82.588 C94.199,76.004 93.559,66.046 92.042,58.653 C90.011,49.289 84.790,40.924 81.517,31.727 C78.519,22.410 77.295,14.163 76.099,4.443 C75.961,3.226 75.707,2.000 75.428,0.777 C85.362,0.108 95.287,-0.171 105.199,0.341 C105.950,1.745 106.695,3.153 107.398,4.582 C113.120,15.656 115.109,27.233 117.229,39.115 C119.219,50.690 121.909,61.599 121.967,73.268 C121.933,82.418 120.918,92.353 124.338,101.122 C126.967,108.040 133.474,114.029 140.160,110.438 C146.847,106.849 145.635,97.864 144.939,90.853 C143.326,74.002 136.880,57.389 132.631,41.300 C130.192,31.746 127.883,22.500 124.330,13.422 C122.803,9.462 121.203,5.719 119.905,1.891 C133.709,3.917 148.059,7.053 162.108,11.472 C167.343,22.157 172.285,33.392 174.212,44.720 C178.085,66.085 172.457,86.764 168.497,106.728 C167.274,113.098 162.424,121.749 165.462,128.856 C168.500,135.962 177.460,136.152 182.888,133.464 C196.114,126.715 196.543,103.873 195.562,90.042 C194.097,67.541 191.229,45.111 191.077,22.809 C198.997,26.606 206.596,30.909 213.679,35.762 C219.939,39.978 226.501,44.401 233.109,49.070 C235.040,57.393 234.501,66.921 233.226,74.304 C231.829,82.575 230.975,91.346 228.071,99.165 C224.742,107.531 219.085,115.065 214.672,122.433 C211.399,127.854 204.894,136.482 207.375,143.824 C209.595,150.552 218.644,153.259 224.323,151.929 C237.612,149.170 240.765,128.087 245.393,116.608 C249.014,107.387 250.424,98.379 253.224,88.775 C255.142,82.717 257.610,75.855 258.881,68.940 C272.761,80.878 285.234,94.325 293.553,109.783 C294.680,111.873 295.807,114.008 296.924,116.176 C296.029,118.365 295.062,120.507 293.959,122.522 C286.787,137.282 274.562,149.452 259.695,155.444 C248.720,159.768 229.996,172.891 249.640,184.226 Z"/>
</svg>