<svg 
 xmlns="http://www.w3.org/2000/svg"
 xmlns:xlink="http://www.w3.org/1999/xlink"
 width="250px" height="386px">
<path fill-rule="evenodd" fill="#504a54"
 d="M248.590,206.983 C247.956,207.369 247.023,207.919 245.829,208.595 C243.440,209.940 239.996,211.750 235.811,213.723 C233.724,214.729 231.441,215.737 229.022,216.789 C227.810,217.303 226.564,217.831 225.291,218.370 C224.011,218.883 222.703,219.406 221.373,219.939 C220.046,220.484 218.677,220.965 217.303,221.493 C215.927,222.014 214.533,222.539 213.117,223.024 C210.293,224.028 207.420,225.032 204.526,225.954 C198.742,227.821 192.917,229.530 187.416,230.983 C183.109,232.117 178.938,232.799 175.085,233.122 C176.369,233.621 177.658,234.173 178.945,234.841 C182.582,236.739 186.385,238.908 190.113,241.221 C193.842,243.533 197.484,246.011 200.809,248.504 C201.637,249.133 202.451,249.752 203.248,250.358 C204.032,250.988 204.799,251.605 205.546,252.205 C207.028,253.428 208.422,254.597 209.674,255.744 C212.194,258.005 214.215,260.040 215.593,261.537 C216.280,262.288 216.810,262.895 217.167,263.319 C217.519,263.753 217.707,263.984 217.707,263.984 C217.707,263.984 217.410,263.960 216.855,263.916 C216.304,263.863 215.503,263.771 214.495,263.631 C212.484,263.345 209.663,262.836 206.374,262.042 C204.721,261.662 202.968,261.177 201.122,260.650 C200.205,260.375 199.262,260.093 198.299,259.804 C197.348,259.492 196.377,259.172 195.390,258.847 C191.453,257.522 187.348,255.927 183.331,254.167 C179.313,252.407 175.370,250.504 171.745,248.583 C168.123,246.657 165.040,244.293 162.624,241.832 C161.413,240.607 160.371,239.354 159.491,238.161 C158.603,236.985 157.895,235.830 157.333,234.841 C157.127,234.479 156.951,234.140 156.788,233.817 C156.016,235.381 155.242,236.951 154.463,238.528 C154.056,239.366 153.625,240.194 153.236,241.045 L152.094,243.611 C151.332,245.324 150.567,247.042 149.801,248.763 C149.103,250.513 148.404,252.265 147.705,254.020 C147.028,255.782 146.265,257.513 145.683,259.313 L143.827,264.665 C143.527,265.559 143.188,266.439 142.921,267.342 L142.117,270.049 C141.582,271.851 141.047,273.649 140.514,275.441 C139.980,277.233 139.596,279.061 139.132,280.857 C138.687,282.659 138.244,284.453 137.803,286.238 C137.449,288.043 137.097,289.838 136.747,291.623 C136.408,293.409 136.022,295.174 135.728,296.942 C135.470,298.717 135.214,300.479 134.961,302.227 C134.716,303.975 134.432,305.702 134.226,307.422 C134.064,309.148 133.904,310.858 133.745,312.549 C133.586,314.239 133.428,315.910 133.273,317.562 C133.164,319.217 133.125,320.857 133.048,322.472 C132.980,324.086 132.912,325.679 132.846,327.248 C132.821,328.032 132.761,328.809 132.765,329.583 C132.773,330.356 132.781,331.123 132.789,331.884 C132.820,334.924 132.850,337.861 132.878,340.681 C133.052,343.496 133.218,346.194 133.377,348.760 C133.457,350.041 133.535,351.290 133.611,352.505 C133.709,353.717 133.878,354.890 134.001,356.029 C134.265,358.305 134.512,360.435 134.741,362.404 C134.855,363.388 134.964,364.332 135.069,365.235 C135.221,366.131 135.366,366.986 135.503,367.798 C136.483,373.571 137.086,377.125 137.208,377.840 C137.210,377.850 137.213,377.860 137.215,377.871 C137.219,377.888 137.218,377.904 137.222,377.921 C137.225,377.940 137.233,377.991 137.233,377.991 L137.286,378.301 C137.294,378.348 137.301,378.394 137.307,378.440 C137.317,378.514 137.308,378.585 137.316,378.659 C137.334,378.866 137.344,379.070 137.339,379.275 C137.337,379.508 137.319,379.735 137.289,379.962 C137.276,380.049 137.263,380.135 137.247,380.220 C136.825,382.547 134.983,384.453 132.517,384.799 C132.223,384.840 131.935,384.837 131.647,384.832 C130.832,385.200 129.952,385.454 129.010,385.528 C124.600,385.876 120.743,382.578 120.396,378.161 C120.396,378.161 120.107,374.501 119.603,368.097 C119.398,364.840 118.910,361.159 118.462,356.806 C118.064,352.485 117.265,347.559 116.554,342.201 C116.179,339.520 115.655,336.752 115.186,333.871 C114.944,332.432 114.697,330.968 114.446,329.482 C114.154,328.004 113.858,326.503 113.557,324.982 C112.408,318.882 110.950,312.501 109.371,305.912 C108.515,302.636 107.685,299.291 106.771,295.925 C105.797,292.578 104.854,289.174 103.825,285.765 C102.734,282.379 101.701,278.938 100.541,275.526 C99.951,273.823 99.361,272.117 98.769,270.409 C98.186,268.697 97.588,266.988 96.936,265.301 C95.656,261.915 94.427,258.506 93.037,255.177 C92.361,253.504 91.686,251.835 91.014,250.170 C90.301,248.522 89.590,246.879 88.882,245.243 C86.064,238.687 83.017,232.357 79.976,226.274 C76.863,220.230 73.772,214.420 70.607,209.045 C69.778,207.581 68.933,206.173 68.090,204.782 C67.682,205.477 67.221,206.212 66.648,206.959 C65.912,207.945 65.044,208.958 64.038,209.915 C62.031,211.840 59.480,213.555 56.496,214.753 C53.510,215.946 50.264,217.065 46.959,218.033 C43.655,219.005 40.280,219.793 37.051,220.370 C35.442,220.671 33.853,220.879 32.344,221.069 C30.829,221.244 29.392,221.397 28.037,221.466 C25.341,221.639 23.031,221.625 21.385,221.539 C20.561,221.493 19.906,221.439 19.456,221.392 C19.001,221.335 18.759,221.305 18.759,221.305 C18.759,221.305 18.916,221.117 19.209,220.765 C19.506,220.423 19.948,219.935 20.520,219.339 C21.665,218.152 23.344,216.563 25.434,214.848 C26.472,213.973 27.627,213.102 28.854,212.195 C30.087,211.303 31.390,210.370 32.772,209.491 C35.526,207.707 38.531,205.977 41.609,204.430 C43.177,203.640 44.759,202.893 46.331,202.192 C46.065,202.119 45.804,202.068 45.537,201.989 C41.452,200.778 37.141,199.329 32.877,197.723 C28.612,196.120 24.401,194.336 20.509,192.481 C19.537,192.010 18.582,191.547 17.648,191.094 C16.721,190.615 15.814,190.146 14.931,189.690 C13.173,188.752 11.515,187.852 10.006,186.947 C6.978,185.174 4.504,183.533 2.795,182.307 C1.941,181.690 1.276,181.187 0.826,180.834 C0.379,180.470 0.140,180.276 0.140,180.276 C0.140,180.276 0.446,180.246 1.019,180.188 C1.589,180.141 2.421,180.086 3.472,180.041 C5.572,179.957 8.540,179.948 12.042,180.133 C13.799,180.208 15.678,180.368 17.661,180.552 C18.649,180.657 19.664,180.764 20.701,180.874 C21.731,181.010 22.783,181.149 23.852,181.290 C28.123,181.882 32.619,182.710 37.062,183.717 C40.942,184.596 44.774,185.597 48.402,186.659 C47.251,185.438 46.109,184.170 44.998,182.804 C41.510,178.509 37.918,173.823 34.451,169.036 C32.717,166.642 31.019,164.220 29.386,161.804 C27.752,159.389 26.191,156.974 24.695,154.625 C23.959,153.441 23.235,152.277 22.527,151.137 C21.840,149.980 21.167,148.848 20.513,147.746 C19.224,145.526 18.017,143.418 16.962,141.424 C14.823,137.460 13.173,134.048 12.081,131.610 C11.537,130.388 11.125,129.416 10.853,128.746 C10.589,128.070 10.448,127.709 10.448,127.709 C10.448,127.709 10.771,127.922 11.376,128.322 C11.973,128.729 12.837,129.335 13.916,130.122 C16.069,131.700 19.056,134.027 22.481,136.949 C24.208,138.398 26.015,140.021 27.914,141.746 C28.853,142.617 29.819,143.511 30.805,144.425 C31.770,145.357 32.756,146.309 33.759,147.277 C35.740,149.232 37.773,151.265 39.790,153.369 C41.809,155.472 43.820,157.641 45.796,159.838 C49.748,164.232 53.574,168.729 57.041,173.041 C58.482,174.837 59.790,176.653 60.976,178.458 C60.764,174.210 60.700,169.674 60.798,165.130 C60.895,160.568 61.178,155.998 61.635,151.704 C61.756,150.630 61.875,149.574 61.992,148.540 C62.136,147.506 62.277,146.493 62.415,145.507 C62.715,143.535 63.013,141.670 63.365,139.944 C64.031,136.495 64.756,133.612 65.344,131.591 C65.642,130.580 65.895,129.785 66.079,129.242 C66.273,128.699 66.376,128.409 66.376,128.409 C66.376,128.409 66.507,128.688 66.751,129.210 C66.985,129.733 67.312,130.501 67.703,131.479 C68.478,133.437 69.471,136.238 70.457,139.610 C70.970,141.295 71.442,143.124 71.926,145.059 C72.155,146.027 72.390,147.022 72.631,148.039 C72.844,149.057 73.062,150.097 73.284,151.155 C74.142,155.387 74.853,159.910 75.377,164.443 C75.903,168.975 76.267,173.516 76.454,177.779 C76.503,178.930 76.496,180.057 76.455,181.164 C77.892,179.540 79.419,177.915 81.013,176.339 C83.351,174.020 85.840,171.828 88.307,169.885 C89.530,168.904 90.781,168.013 91.973,167.174 C93.177,166.345 94.326,165.570 95.446,164.904 C97.657,163.548 99.630,162.527 101.073,161.865 C101.797,161.536 102.381,161.290 102.787,161.129 C103.202,160.975 103.423,160.893 103.423,160.893 C103.423,160.893 103.382,161.126 103.304,161.562 C103.218,161.991 103.079,162.610 102.884,163.382 C102.488,164.922 101.834,167.048 100.893,169.467 C100.436,170.689 99.878,171.959 99.276,173.293 C98.662,174.617 98.009,176.007 97.261,177.386 C95.788,180.162 94.074,183.004 92.209,185.719 C90.347,188.437 88.360,191.050 86.380,193.401 C84.395,195.748 82.052,197.528 79.668,198.739 C78.481,199.349 77.281,199.814 76.145,200.166 C75.387,200.412 74.665,200.579 73.976,200.719 C74.954,202.168 75.938,203.640 76.902,205.167 C80.396,210.503 83.838,216.282 87.317,222.312 C90.723,228.380 94.153,234.713 97.361,241.288 C98.166,242.930 98.975,244.580 99.786,246.234 C100.558,247.907 101.331,249.585 102.107,251.266 C103.695,254.614 105.124,258.047 106.603,261.461 C107.356,263.163 108.054,264.887 108.737,266.616 C109.428,268.341 110.119,270.066 110.809,271.787 C111.903,274.563 112.917,277.355 113.942,280.131 C113.899,276.881 113.846,273.611 113.857,270.314 C113.897,261.941 114.053,253.440 114.456,244.953 L114.753,238.590 C114.887,236.473 115.020,234.357 115.154,232.246 C115.396,228.023 115.754,223.825 116.093,219.661 C116.411,215.494 116.872,211.374 117.249,207.297 C117.703,203.228 118.126,199.206 118.618,195.260 C119.026,191.964 119.450,188.731 119.885,185.542 C119.376,184.283 118.890,183.052 118.475,181.884 C117.257,178.562 116.383,175.700 115.838,173.651 C115.569,172.624 115.374,171.807 115.250,171.244 C115.134,170.675 115.073,170.371 115.073,170.371 C115.073,170.371 115.329,170.545 115.809,170.870 C116.281,171.201 116.960,171.695 117.802,172.338 C118.792,173.098 120.016,174.095 121.371,175.258 C121.509,174.356 121.645,173.441 121.785,172.551 C122.324,168.947 122.949,165.457 123.498,162.073 C124.111,158.699 124.659,155.433 125.266,152.311 C126.120,147.709 126.988,143.422 127.817,139.459 C125.242,139.421 121.748,139.071 117.886,138.072 C113.996,137.074 109.740,135.412 105.518,133.033 C101.298,130.650 96.879,127.966 92.539,125.139 C88.199,122.314 83.951,119.327 80.063,116.358 C79.095,115.610 78.142,114.875 77.210,114.155 C76.292,113.411 75.393,112.683 74.518,111.974 C72.781,110.535 71.146,109.161 69.674,107.826 C66.712,105.190 64.328,102.845 62.699,101.133 C61.886,100.273 61.257,99.581 60.833,99.100 C60.415,98.610 60.192,98.348 60.192,98.348 C60.192,98.348 60.531,98.406 61.165,98.514 C61.795,98.631 62.711,98.817 63.864,99.075 C66.167,99.598 69.400,100.445 73.178,101.641 C75.076,102.221 77.092,102.923 79.217,103.679 C80.273,104.068 81.357,104.467 82.466,104.876 C83.561,105.308 84.680,105.750 85.818,106.199 C90.356,108.020 95.095,110.140 99.742,112.424 C104.390,114.706 108.957,117.130 113.163,119.536 C114.989,120.583 116.695,121.708 118.283,122.874 C115.971,119.092 113.733,114.772 111.773,110.015 C109.329,104.070 106.874,97.666 104.569,91.200 C103.405,87.972 102.321,84.711 101.268,81.495 C100.725,79.894 100.229,78.288 99.741,76.701 C99.259,75.111 98.744,73.556 98.307,71.999 C97.858,70.446 97.416,68.919 96.984,67.425 C96.577,65.920 96.179,64.447 95.792,63.014 C95.040,60.138 94.343,57.413 93.771,54.869 C92.591,49.795 91.765,45.501 91.262,42.465 C91.014,40.946 90.837,39.745 90.726,38.922 C90.625,38.095 90.572,37.654 90.572,37.654 C90.572,37.654 90.842,38.006 91.349,38.667 C91.846,39.331 92.561,40.312 93.448,41.569 C95.214,44.087 97.631,47.728 100.342,52.175 C101.715,54.390 103.125,56.823 104.603,59.401 C105.330,60.695 106.077,62.024 106.840,63.383 C107.578,64.752 108.332,66.151 109.099,67.574 C109.878,68.991 110.599,70.461 111.368,71.933 C112.132,73.408 112.902,74.901 113.636,76.424 C115.136,79.457 116.646,82.543 118.076,85.662 C120.959,91.890 123.692,98.181 126.111,104.136 C128.197,109.285 129.719,114.316 130.721,118.918 C130.750,118.029 130.788,117.123 130.840,116.194 C131.206,109.448 132.190,101.697 133.916,93.536 C135.647,85.377 137.653,76.708 139.819,68.073 C140.890,63.753 142.045,59.451 143.197,55.219 C143.755,53.100 144.355,51.007 144.948,48.939 C145.548,46.873 146.101,44.823 146.717,42.823 C147.321,40.820 147.915,38.850 148.496,36.922 C149.104,34.999 149.699,33.119 150.278,31.288 C151.461,27.632 152.594,24.178 153.714,21.006 C155.918,14.654 157.921,9.397 159.403,5.734 C160.147,3.903 160.750,2.468 161.173,1.493 C161.605,0.519 161.836,-0.000 161.836,-0.000 C161.836,-0.000 161.834,0.568 161.831,1.634 C161.817,2.697 161.781,4.254 161.712,6.229 C161.565,10.179 161.243,15.797 160.657,22.496 C160.383,25.849 160.004,29.465 159.588,33.286 C159.368,35.194 159.142,37.153 158.910,39.156 C158.652,41.154 158.389,43.194 158.120,45.270 C157.865,47.347 157.531,49.444 157.234,51.575 C156.930,53.705 156.621,55.860 156.264,58.023 C155.585,62.356 154.880,66.755 154.091,71.135 C152.536,79.901 150.822,88.633 149.065,96.787 C147.303,104.940 145.032,112.415 142.608,118.719 C141.924,120.507 141.227,122.188 140.533,123.778 C140.648,123.623 140.755,123.470 140.872,123.314 C144.011,119.109 148.052,114.631 152.838,110.347 C157.627,106.066 162.845,101.623 168.170,97.302 C170.825,95.132 173.537,93.027 176.216,90.966 C177.544,89.922 178.892,88.921 180.226,87.933 C181.563,86.951 182.857,85.949 184.179,85.019 C185.492,84.080 186.784,83.157 188.048,82.253 C189.331,81.370 190.586,80.505 191.807,79.664 C194.267,78.001 196.602,76.439 198.809,75.055 C203.196,72.258 206.966,70.055 209.659,68.573 C211.007,67.834 212.080,67.269 212.819,66.892 C213.564,66.522 213.962,66.325 213.962,66.325 C213.962,66.325 213.720,66.698 213.266,67.396 C212.805,68.086 212.118,69.086 211.227,70.341 C209.442,72.845 206.814,76.336 203.525,80.372 C201.893,82.404 200.070,84.543 198.131,86.794 C197.154,87.910 196.149,89.057 195.123,90.229 C194.078,91.380 193.010,92.556 191.925,93.752 C190.848,94.958 189.702,96.127 188.571,97.342 C187.435,98.552 186.284,99.775 185.093,100.973 C182.735,103.396 180.328,105.846 177.865,108.231 C172.954,113.021 167.936,117.688 163.129,121.948 C158.318,126.205 153.403,129.698 148.865,132.326 C148.720,132.411 148.579,132.487 148.434,132.570 C151.164,132.106 154.099,131.839 157.187,131.880 C161.813,131.946 166.745,132.181 171.674,132.579 C176.603,132.975 181.528,133.559 186.143,134.298 C187.297,134.489 188.431,134.678 189.541,134.863 C190.651,135.075 191.737,135.282 192.794,135.484 C194.907,135.914 196.905,136.334 198.748,136.800 C202.435,137.692 205.504,138.606 207.651,139.327 C208.725,139.691 209.568,139.996 210.143,140.215 C210.717,140.445 211.023,140.568 211.023,140.568 C211.023,140.568 210.713,140.680 210.131,140.890 C209.549,141.089 208.696,141.365 207.611,141.692 C205.440,142.338 202.342,143.146 198.627,143.911 C196.769,144.313 194.758,144.664 192.631,145.020 C191.567,145.186 190.475,145.356 189.359,145.530 C188.243,145.676 187.103,145.825 185.943,145.977 C181.306,146.557 176.363,146.971 171.423,147.197 C169.391,147.291 167.364,147.350 165.354,147.389 C165.447,148.190 165.538,149.011 165.626,149.867 C165.881,152.173 166.074,154.665 166.263,157.299 C166.345,158.616 166.429,159.968 166.515,161.350 C166.574,162.730 166.634,164.140 166.695,165.573 C166.768,167.008 166.768,168.461 166.809,169.934 C166.843,171.408 166.876,172.899 166.864,174.398 C166.873,177.400 166.867,180.448 166.776,183.489 C166.617,189.574 166.296,195.645 165.842,201.326 C165.655,203.626 165.348,205.830 164.980,207.966 C165.195,207.661 165.402,207.348 165.623,207.049 C167.695,204.216 169.676,201.412 171.761,198.802 C175.405,194.032 179.100,189.710 182.625,185.726 C184.878,183.038 187.178,180.336 189.511,177.654 C192.090,174.671 194.735,171.743 197.352,168.869 C198.646,167.421 199.966,166.014 201.272,164.625 C202.582,163.239 203.845,161.845 205.144,160.520 C206.434,159.188 207.703,157.877 208.944,156.594 C210.207,155.329 211.443,154.090 212.645,152.885 C215.071,150.491 217.375,148.236 219.562,146.202 C223.906,142.112 227.659,138.810 230.349,136.550 C231.697,135.422 232.771,134.548 233.512,133.958 C234.261,133.376 234.661,133.065 234.661,133.065 C234.661,133.065 234.444,133.523 234.037,134.381 C233.621,135.232 233.000,136.471 232.190,138.032 C230.564,141.149 228.151,145.530 225.096,150.659 C223.583,153.235 221.880,155.974 220.066,158.861 C219.149,160.297 218.207,161.772 217.245,163.279 C216.261,164.769 215.256,166.292 214.233,167.840 C213.221,169.396 212.133,170.931 211.064,172.511 C209.990,174.086 208.901,175.680 207.767,177.257 C205.528,180.434 203.241,183.651 200.887,186.815 C196.198,193.157 191.382,199.397 186.747,205.151 C182.139,210.862 177.346,215.794 172.852,219.730 C176.056,218.306 179.610,217.019 183.429,215.987 C188.923,214.507 194.825,213.088 200.769,211.826 C203.738,211.184 206.729,210.624 209.677,210.088 C211.147,209.803 212.617,209.565 214.069,209.331 C215.523,209.104 216.949,208.839 218.371,208.651 C219.790,208.451 221.184,208.254 222.550,208.060 C223.922,207.894 225.265,207.731 226.572,207.573 C229.192,207.281 231.674,207.018 233.984,206.850 C238.595,206.478 242.481,206.332 245.222,206.309 C246.593,206.300 247.676,206.313 248.417,206.332 C249.160,206.361 249.557,206.376 249.557,206.376 C249.557,206.376 249.221,206.587 248.590,206.983 ZM125.967,198.763 C125.669,201.824 125.390,204.912 125.102,208.041 C124.809,212.076 124.432,216.153 124.199,220.273 C123.944,224.391 123.671,228.541 123.513,232.712 C123.422,234.796 123.331,236.885 123.240,238.976 L123.069,245.254 C122.835,253.628 122.844,262.002 122.965,270.238 C123.031,274.355 123.206,278.437 123.319,282.470 C123.528,286.497 123.734,290.476 123.938,294.389 C124.233,298.295 124.523,302.134 124.808,305.893 C124.874,306.560 124.939,307.210 125.005,307.872 C125.074,307.318 125.141,306.774 125.211,306.216 C125.479,304.429 125.826,302.636 126.135,300.823 C126.454,299.012 126.775,297.186 127.099,295.347 C127.460,293.516 127.914,291.689 128.322,289.842 C128.741,287.998 129.164,286.143 129.588,284.279 C130.100,282.437 130.615,280.586 131.132,278.728 C131.669,276.876 132.126,274.994 132.735,273.151 C133.343,271.308 133.952,269.460 134.562,267.608 L135.479,264.829 C135.784,263.903 136.161,263.000 136.499,262.083 L138.584,256.602 C139.243,254.761 140.082,252.992 140.836,251.192 C141.614,249.402 142.368,247.604 143.163,245.829 C144.006,244.077 144.847,242.328 145.686,240.584 L146.942,237.974 C147.369,237.110 147.838,236.269 148.283,235.418 C149.183,233.723 150.080,232.034 150.972,230.354 C151.089,230.137 151.214,229.926 151.333,229.710 C150.450,229.279 149.478,228.763 148.476,228.134 C147.165,227.330 145.773,226.365 144.387,225.224 C141.605,222.948 138.833,219.975 136.435,216.409 C134.040,212.839 131.622,208.941 129.340,204.952 C128.168,202.904 127.039,200.830 125.967,198.763 ZM156.921,147.397 C152.295,147.298 147.989,146.565 144.306,145.447 C140.623,144.337 137.564,142.850 135.427,141.567 C134.986,141.307 134.595,141.055 134.236,140.815 C133.496,144.732 132.725,148.972 131.974,153.509 C131.433,156.609 130.954,159.853 130.413,163.202 C129.934,166.561 129.383,170.025 128.919,173.602 C128.570,176.124 128.237,178.714 127.911,181.333 C128.098,181.519 128.277,181.693 128.466,181.882 C129.165,182.600 129.883,183.337 130.616,184.091 C131.327,184.860 132.054,185.645 132.792,186.444 C135.723,189.655 138.679,193.193 141.480,196.836 C144.282,200.477 146.948,204.209 149.321,207.793 C149.663,208.311 149.986,208.832 150.299,209.354 C150.150,206.423 150.157,203.336 150.395,200.122 C150.823,194.440 151.442,188.391 152.224,182.355 C152.603,179.336 153.067,176.324 153.540,173.360 C153.758,171.877 154.021,170.409 154.283,168.958 C154.550,167.509 154.774,166.073 155.068,164.667 C155.350,163.260 155.626,161.877 155.897,160.522 C156.195,159.170 156.487,157.847 156.771,156.560 C157.364,153.986 157.939,151.554 158.547,149.315 C158.718,148.666 158.887,148.037 159.056,147.421 C158.342,147.414 157.622,147.411 156.921,147.397 Z"/>
</svg>