<svg 
 xmlns="http://www.w3.org/2000/svg"
 xmlns:xlink="http://www.w3.org/1999/xlink"
 width="250px" height="337px">
<path fill-rule="evenodd" fill="#504a54"
 d="M248.031,332.008 C247.814,332.210 247.576,332.373 247.338,332.534 C246.882,333.303 246.306,334.016 245.578,334.618 C242.167,337.434 237.115,336.947 234.295,333.530 C234.295,333.530 231.959,330.699 227.869,325.744 C225.833,323.195 223.320,320.461 220.454,317.153 C217.648,313.844 214.167,310.268 210.509,306.289 C208.663,304.309 206.645,302.343 204.607,300.253 C203.582,299.213 202.540,298.157 201.482,297.083 C200.394,296.041 199.290,294.982 198.171,293.909 C193.729,289.574 188.872,285.186 183.797,280.697 C181.216,278.506 178.616,276.243 175.936,274.011 C173.217,271.829 170.490,269.583 167.692,267.382 C164.854,265.236 162.034,263.011 159.126,260.883 C157.665,259.827 156.202,258.769 154.737,257.709 C153.277,256.643 151.807,255.587 150.304,254.579 C147.313,252.541 144.349,250.455 141.301,248.527 C139.787,247.545 138.276,246.565 136.769,245.588 C135.240,244.648 133.715,243.711 132.196,242.777 C126.125,239.026 119.996,235.592 114.015,232.356 C107.997,229.194 102.131,226.211 96.454,223.626 C94.935,222.903 93.435,222.235 91.946,221.580 C92.010,222.383 92.055,223.250 92.015,224.191 C91.978,225.420 91.849,226.748 91.574,228.109 C91.036,230.838 89.931,233.706 88.175,236.400 C86.415,239.091 84.400,241.870 82.249,244.560 C80.101,247.252 77.789,249.835 75.476,252.161 C74.332,253.331 73.151,254.413 72.024,255.435 C70.884,256.448 69.794,257.398 68.724,258.232 C66.616,259.922 64.717,261.235 63.320,262.110 C62.619,262.546 62.051,262.877 61.655,263.097 C61.251,263.311 61.035,263.426 61.035,263.426 C61.035,263.426 61.055,263.182 61.093,262.725 C61.140,262.274 61.222,261.622 61.348,260.805 C61.605,259.176 62.068,256.911 62.795,254.307 C63.142,252.995 63.588,251.619 64.072,250.172 C64.570,248.734 65.101,247.221 65.729,245.709 C66.959,242.667 68.427,239.525 70.060,236.492 C70.890,234.946 71.755,233.425 72.640,231.949 C72.381,232.042 72.138,232.150 71.875,232.238 C67.834,233.592 63.473,234.879 59.060,236.012 C54.647,237.147 50.175,238.104 45.923,238.819 C44.857,238.991 43.810,239.160 42.784,239.326 C41.750,239.465 40.738,239.602 39.753,239.734 C37.775,239.976 35.901,240.191 34.146,240.315 C30.649,240.602 27.681,240.678 25.578,240.655 C24.525,240.640 23.692,240.610 23.120,240.579 C22.545,240.538 22.238,240.516 22.238,240.516 C22.238,240.516 22.471,240.316 22.907,239.940 C23.347,239.574 23.997,239.052 24.831,238.411 C26.503,237.137 28.928,235.426 31.902,233.568 C33.384,232.620 35.014,231.673 36.744,230.685 C37.613,230.204 38.506,229.709 39.418,229.203 C40.339,228.724 41.280,228.234 42.237,227.736 C46.074,225.770 50.231,223.867 54.447,222.141 C58.129,220.633 61.841,219.254 65.422,218.041 C63.778,217.701 62.115,217.318 60.422,216.838 C55.100,215.323 49.469,213.548 43.882,211.618 C41.088,210.653 38.307,209.644 35.584,208.603 C32.859,207.563 30.195,206.482 27.622,205.418 C26.339,204.870 25.078,204.332 23.844,203.806 C22.617,203.253 21.417,202.711 20.249,202.185 C17.919,201.107 15.720,200.074 13.712,199.046 C9.685,197.027 6.376,195.181 4.082,193.811 C2.935,193.123 2.040,192.563 1.433,192.171 C0.828,191.769 0.506,191.555 0.506,191.555 C0.506,191.555 0.893,191.544 1.618,191.524 C2.340,191.514 3.395,191.515 4.730,191.539 C7.400,191.596 11.181,191.787 15.663,192.214 C17.909,192.409 20.320,192.701 22.865,193.023 C24.134,193.197 25.438,193.375 26.771,193.558 C28.096,193.767 29.449,193.980 30.826,194.197 C33.571,194.661 36.402,195.159 39.261,195.724 C42.122,196.287 45.013,196.909 47.892,197.574 C53.651,198.904 59.365,200.390 64.679,201.931 C66.891,202.575 69.003,203.311 71.010,204.108 C68.399,200.751 65.743,197.074 63.215,193.297 C60.675,189.506 58.284,185.600 56.193,181.822 C55.676,180.873 55.168,179.940 54.670,179.026 C54.194,178.096 53.729,177.186 53.275,176.300 C52.389,174.513 51.562,172.814 50.860,171.199 C49.425,167.993 48.365,165.216 47.686,163.223 C47.349,162.224 47.100,161.428 46.939,160.878 C46.786,160.322 46.705,160.025 46.705,160.025 C46.705,160.025 46.972,160.178 47.472,160.466 C47.963,160.760 48.672,161.201 49.554,161.778 C51.312,162.936 53.733,164.660 56.476,166.854 C57.862,167.940 59.299,169.167 60.806,170.474 C61.550,171.135 62.313,171.815 63.094,172.509 C63.853,173.220 64.628,173.947 65.417,174.686 C68.549,177.659 71.727,180.955 74.759,184.365 C77.791,187.775 80.694,191.284 83.295,194.668 C84.003,195.592 84.650,196.529 85.258,197.470 C85.503,195.300 85.799,193.094 86.202,190.872 C86.785,187.631 87.565,184.407 88.470,181.399 C88.908,179.894 89.421,178.447 89.916,177.076 C90.426,175.706 90.922,174.412 91.457,173.224 C92.489,170.844 93.519,168.876 94.320,167.505 C94.724,166.820 95.061,166.284 95.302,165.919 C95.553,165.555 95.687,165.360 95.687,165.360 C95.687,165.360 95.786,165.575 95.973,165.977 C96.149,166.377 96.391,166.964 96.674,167.708 C97.234,169.196 97.919,171.312 98.536,173.834 C98.864,175.096 99.136,176.457 99.409,177.894 C99.666,179.331 99.928,180.845 100.108,182.403 C100.495,185.522 100.722,188.832 100.754,192.126 C100.789,195.420 100.662,198.701 100.390,201.762 C100.112,204.824 99.215,207.626 97.958,209.986 C97.336,211.167 96.620,212.236 95.892,213.176 C95.413,213.813 94.918,214.364 94.434,214.875 C96.066,215.500 97.717,216.141 99.383,216.837 C105.307,219.201 111.442,221.958 117.752,224.899 C124.025,227.913 130.467,231.129 136.868,234.672 C138.471,235.555 140.080,236.441 141.694,237.330 C143.286,238.257 144.882,239.187 146.482,240.118 C149.704,241.949 152.845,243.939 156.016,245.886 C157.610,246.848 159.171,247.859 160.722,248.882 C162.279,249.898 163.834,250.914 165.386,251.927 C167.876,253.572 170.309,255.277 172.742,256.962 C170.842,254.325 168.921,251.678 167.038,248.971 C162.264,242.093 157.513,235.042 152.971,227.860 L149.562,222.479 C148.456,220.669 147.351,218.860 146.249,217.055 C144.023,213.458 141.906,209.815 139.794,206.210 C137.663,202.616 135.675,198.977 133.644,195.423 C131.680,191.831 129.718,188.294 127.856,184.780 C126.298,181.847 124.789,178.956 123.315,176.096 C122.175,175.356 121.071,174.627 120.061,173.909 C117.156,171.889 114.798,170.046 113.176,168.681 C112.366,167.995 111.737,167.438 111.312,167.048 C110.891,166.648 110.667,166.435 110.667,166.435 C110.667,166.435 110.976,166.430 111.556,166.420 C112.132,166.420 112.971,166.436 114.030,166.478 C115.282,166.533 116.841,166.640 118.626,166.816 C118.222,166.000 117.809,165.175 117.414,164.367 C115.787,161.106 114.295,157.890 112.803,154.804 C111.368,151.689 109.942,148.700 108.647,145.795 C106.705,141.536 104.955,137.528 103.359,133.807 C101.228,135.254 98.166,136.973 94.431,138.372 C90.672,139.787 86.233,140.869 81.411,141.345 C76.588,141.815 71.428,142.154 66.252,142.330 C61.076,142.508 55.883,142.500 50.996,142.301 C49.773,142.244 48.571,142.189 47.394,142.134 C46.215,142.052 45.061,141.972 43.938,141.894 C41.689,141.712 39.562,141.526 37.591,141.278 C33.652,140.820 30.354,140.267 28.037,139.801 C26.878,139.564 25.966,139.358 25.343,139.207 C24.719,139.045 24.386,138.959 24.386,138.959 C24.386,138.959 24.696,138.812 25.278,138.536 C25.861,138.271 26.718,137.897 27.810,137.447 C29.996,136.553 33.130,135.392 36.909,134.202 C38.798,133.587 40.851,133.005 43.024,132.404 C44.112,132.117 45.230,131.821 46.372,131.519 C47.517,131.244 48.687,130.964 49.876,130.679 C54.637,129.565 59.735,128.581 64.851,127.784 C69.967,126.985 75.098,126.348 79.924,125.904 C82.036,125.712 84.084,125.668 86.067,125.714 C81.993,123.941 77.669,121.684 73.320,118.906 C67.906,115.440 62.220,111.605 56.621,107.634 C53.816,105.658 51.056,103.611 48.348,101.582 C46.985,100.582 45.657,99.552 44.346,98.532 C43.038,97.507 41.725,96.529 40.472,95.505 C39.213,94.491 37.975,93.495 36.763,92.519 C35.567,91.520 34.395,90.543 33.255,89.592 C30.989,87.668 28.854,85.837 26.926,84.082 C23.047,80.604 19.906,77.562 17.752,75.365 C16.677,74.264 15.842,73.382 15.279,72.771 C14.722,72.152 14.424,71.821 14.424,71.821 C14.424,71.821 14.848,71.955 15.642,72.204 C16.431,72.463 17.579,72.856 19.027,73.377 C21.919,74.425 25.988,76.019 30.760,78.104 C33.156,79.130 35.707,80.312 38.397,81.575 C39.735,82.218 41.110,82.878 42.515,83.552 C43.905,84.250 45.325,84.962 46.770,85.687 C48.221,86.401 49.656,87.190 51.130,87.954 C52.602,88.724 54.090,89.504 55.565,90.330 C58.534,91.952 61.542,93.613 64.503,95.346 C70.439,98.791 76.287,102.374 81.687,105.862 C86.350,108.880 90.484,112.127 93.946,115.320 C93.460,114.575 92.971,113.812 92.480,113.021 C88.908,107.287 85.265,100.375 81.993,92.702 C78.727,85.027 75.394,76.776 72.211,68.463 C70.609,64.310 69.085,60.125 67.599,55.999 C66.840,53.942 66.129,51.884 65.429,49.851 C64.734,47.814 64.011,45.818 63.367,43.827 C62.712,41.840 62.067,39.886 61.436,37.974 C60.831,36.051 60.238,34.169 59.662,32.338 C58.532,28.665 57.477,25.187 56.574,21.946 C54.732,15.480 53.355,10.025 52.465,6.175 C52.024,4.248 51.695,2.727 51.480,1.686 C51.276,0.640 51.167,0.083 51.167,0.083 C51.167,0.083 51.492,0.549 52.100,1.424 C52.699,2.302 53.564,3.597 54.640,5.255 C56.788,8.573 59.749,13.359 63.114,19.181 C64.814,22.084 66.579,25.262 68.432,28.630 C69.347,30.318 70.286,32.053 71.247,33.826 C72.182,35.609 73.137,37.432 74.109,39.285 C75.092,41.133 76.022,43.042 77.002,44.957 C77.976,46.876 78.960,48.818 79.909,50.794 C81.840,54.732 83.787,58.738 85.656,62.778 C89.414,70.849 93.023,78.983 96.265,86.668 C99.501,94.356 101.932,101.780 103.566,108.334 C104.032,110.190 104.427,111.967 104.771,113.667 C104.775,113.474 104.775,113.288 104.782,113.093 C104.939,107.848 105.678,101.861 107.137,95.606 C108.602,89.352 110.324,82.719 112.204,76.123 C113.133,72.823 114.145,69.542 115.156,66.317 C115.644,64.700 116.174,63.106 116.699,61.532 C117.230,59.960 117.714,58.397 118.263,56.877 C118.800,55.354 119.327,53.857 119.844,52.391 C120.387,50.931 120.918,49.503 121.436,48.113 C122.495,45.339 123.511,42.720 124.523,40.320 C126.511,35.511 128.333,31.543 129.687,28.784 C130.368,27.406 130.922,26.327 131.310,25.594 C131.708,24.863 131.921,24.474 131.921,24.474 C131.921,24.474 131.936,24.918 131.965,25.750 C131.984,26.580 131.996,27.793 131.987,29.332 C131.962,32.407 131.814,36.774 131.437,41.967 C131.267,44.568 131.002,47.366 130.707,50.322 C130.547,51.797 130.383,53.312 130.215,54.861 C130.020,56.403 129.821,57.979 129.618,59.582 C129.428,61.187 129.162,62.802 128.933,64.446 C128.697,66.089 128.457,67.751 128.169,69.416 C127.629,72.754 127.064,76.141 126.417,79.509 C125.144,86.249 123.714,92.951 122.223,99.199 C120.727,105.446 118.707,111.128 116.500,115.884 C116.437,116.021 116.373,116.148 116.310,116.283 C118.269,114.352 120.525,112.469 123.058,110.743 C126.884,108.141 131.057,105.503 135.322,103.000 C139.586,100.495 143.954,98.145 148.157,96.102 C149.212,95.596 150.249,95.100 151.264,94.614 C152.295,94.150 153.303,93.697 154.284,93.256 C156.261,92.394 158.139,91.592 159.915,90.915 C163.446,89.529 166.484,88.516 168.656,87.874 C169.744,87.556 170.610,87.322 171.206,87.172 C171.808,87.030 172.130,86.955 172.130,86.955 C172.130,86.955 171.940,87.224 171.584,87.730 C171.222,88.228 170.682,88.943 169.980,89.834 C168.574,91.609 166.501,94.050 163.897,96.808 C162.607,98.203 161.161,99.645 159.624,101.158 C158.849,101.904 158.052,102.670 157.237,103.453 C156.408,104.214 155.560,104.990 154.698,105.780 C151.233,108.917 147.423,112.093 143.508,115.113 C141.897,116.357 140.272,117.569 138.648,118.754 C139.184,119.357 139.730,119.977 140.293,120.627 C141.826,122.369 143.414,124.299 145.081,126.348 C145.904,127.378 146.749,128.437 147.613,129.520 C148.452,130.616 149.311,131.736 150.183,132.875 C151.067,134.008 151.901,135.198 152.780,136.381 C153.654,137.567 154.537,138.769 155.387,140.005 C157.118,142.457 158.863,144.956 160.533,147.499 C163.896,152.573 167.118,157.729 170.007,162.641 C171.163,164.612 172.194,166.581 173.113,168.522 C173.113,168.166 173.104,167.808 173.113,167.453 C173.183,163.944 173.196,160.511 173.405,157.176 C173.651,151.180 174.196,145.520 174.795,140.235 C175.098,136.740 175.430,133.207 175.802,129.671 C176.201,125.749 176.686,121.832 177.179,117.977 C177.408,116.049 177.681,114.139 177.953,112.252 C178.231,110.365 178.464,108.499 178.768,106.668 C179.059,104.836 179.346,103.035 179.626,101.272 C179.934,99.510 180.235,97.787 180.528,96.110 C181.139,92.757 181.732,89.588 182.356,86.668 C183.565,80.825 184.743,75.967 185.648,72.572 C186.104,70.874 186.482,69.542 186.751,68.634 C187.030,67.727 187.179,67.244 187.179,67.244 C187.179,67.244 187.264,67.743 187.423,68.679 C187.571,69.615 187.774,70.986 188.006,72.729 C188.464,76.215 189.003,81.187 189.445,87.140 C189.685,90.118 189.863,93.339 190.035,96.744 C190.108,98.446 190.183,100.194 190.260,101.981 C190.310,103.766 190.360,105.590 190.412,107.444 C190.476,109.300 190.466,111.181 190.497,113.088 C190.522,114.995 190.546,116.925 190.523,118.867 C190.513,122.754 190.487,126.701 190.375,130.643 C190.175,138.528 189.813,146.402 189.321,153.774 C188.826,161.093 187.734,167.883 186.314,173.683 C188.120,170.680 190.290,167.588 192.823,164.551 C196.473,160.187 200.491,155.637 204.634,151.191 C206.697,148.961 208.825,146.786 210.931,144.655 C211.971,143.578 213.038,142.539 214.093,141.514 C215.153,140.493 216.170,139.458 217.226,138.488 C218.272,137.510 219.301,136.547 220.308,135.606 C221.337,134.682 222.343,133.778 223.322,132.898 C225.300,131.154 227.181,129.515 228.977,128.052 C232.538,125.100 235.637,122.751 237.868,121.158 C238.986,120.364 239.880,119.752 240.497,119.343 C241.123,118.940 241.457,118.725 241.457,118.725 C241.457,118.725 241.303,119.091 241.013,119.777 C240.716,120.456 240.267,121.442 239.678,122.681 C238.493,125.154 236.712,128.612 234.418,132.631 C233.286,134.652 231.995,136.788 230.619,139.038 C229.921,140.155 229.204,141.302 228.471,142.474 C227.717,143.629 226.946,144.809 226.163,146.008 C225.389,147.216 224.545,148.396 223.722,149.617 C222.894,150.833 222.055,152.063 221.173,153.273 C219.437,155.716 217.661,158.188 215.820,160.604 C212.156,165.452 208.367,170.195 204.697,174.543 C201.821,177.943 198.797,180.896 195.826,183.372 C197.164,183.044 198.537,182.755 199.974,182.565 C204.041,182.031 208.401,181.623 212.782,181.378 C217.162,181.131 221.566,181.069 225.720,181.202 C226.759,181.242 227.781,181.282 228.781,181.320 C229.785,181.386 230.768,181.451 231.724,181.514 C233.639,181.664 235.452,181.821 237.135,182.043 C240.497,182.447 243.320,182.954 245.306,183.388 C246.300,183.609 247.084,183.802 247.619,183.944 C248.156,184.097 248.442,184.179 248.442,184.179 C248.442,184.179 248.186,184.330 247.706,184.613 C247.224,184.885 246.515,185.269 245.610,185.733 C243.799,186.654 241.197,187.855 238.048,189.093 C236.476,189.732 234.762,190.340 232.948,190.969 C232.039,191.270 231.105,191.580 230.151,191.897 C229.193,192.186 228.215,192.482 227.219,192.782 C223.235,193.957 218.959,195.007 214.658,195.871 C210.358,196.737 206.037,197.442 201.967,197.950 C197.895,198.452 194.013,198.285 190.622,197.657 C188.928,197.349 187.356,196.921 185.950,196.449 C184.547,195.996 183.305,195.456 182.277,194.969 C181.900,194.791 181.562,194.615 181.243,194.443 C181.509,196.167 181.775,197.898 182.043,199.636 C182.191,200.556 182.313,201.481 182.483,202.401 L183.022,205.158 C183.380,206.998 183.740,208.844 184.100,210.693 C184.533,212.526 184.967,214.363 185.401,216.201 C185.859,218.033 186.227,219.888 186.784,221.695 L188.336,227.143 C188.604,228.047 188.831,228.963 189.131,229.856 L190.027,232.533 C190.622,234.316 191.217,236.095 191.809,237.869 C192.400,239.643 193.135,241.360 193.786,243.098 C194.456,244.828 195.123,246.552 195.787,248.267 C196.533,249.947 197.275,251.620 198.012,253.282 C198.760,254.939 199.457,256.606 200.231,258.223 C201.039,259.824 201.841,261.414 202.636,262.990 C203.439,264.562 204.198,266.139 205.017,267.666 C205.875,269.173 206.725,270.664 207.566,272.140 C208.405,273.616 209.236,275.075 210.056,276.516 C210.917,277.934 211.827,279.300 212.690,280.666 C213.561,282.027 214.421,283.370 215.267,284.693 C215.696,285.350 216.094,286.020 216.540,286.651 C216.991,287.280 217.438,287.903 217.881,288.521 C219.651,290.993 221.361,293.381 223.003,295.674 C224.761,297.879 226.446,299.993 228.049,302.003 C228.850,303.007 229.631,303.985 230.391,304.935 C231.167,305.872 231.978,306.736 232.732,307.598 C234.255,309.310 235.680,310.912 236.998,312.393 C237.656,313.134 238.287,313.844 238.891,314.523 C239.530,315.170 240.139,315.787 240.718,316.372 C244.835,320.538 247.369,323.102 247.878,323.617 C247.886,323.624 247.894,323.631 247.901,323.638 C247.914,323.649 247.922,323.663 247.935,323.675 C247.949,323.689 247.985,323.726 247.985,323.726 L248.207,323.950 C248.240,323.983 248.272,324.017 248.304,324.052 C248.355,324.106 248.388,324.170 248.436,324.226 C248.570,324.385 248.696,324.546 248.809,324.717 C248.941,324.909 249.057,325.105 249.162,325.309 C249.202,325.387 249.241,325.464 249.276,325.544 C250.266,327.692 249.852,330.309 248.031,332.008 ZM156.668,170.522 C153.756,165.623 150.792,160.315 147.967,154.923 C146.544,152.234 145.196,149.501 143.881,146.802 C143.209,145.462 142.581,144.109 141.963,142.772 C141.350,141.431 140.709,140.127 140.143,138.807 C139.566,137.493 138.998,136.202 138.443,134.937 C137.910,133.659 137.390,132.408 136.883,131.191 C135.892,128.743 134.967,126.421 134.180,124.239 C133.947,123.609 133.725,122.997 133.509,122.396 C132.921,122.800 132.329,123.210 131.747,123.601 C127.903,126.176 123.956,128.047 120.298,129.246 C116.645,130.450 113.286,130.989 110.800,131.165 C110.290,131.205 109.826,131.223 109.393,131.233 C111.036,134.865 112.838,138.780 114.827,142.926 C116.164,145.775 117.634,148.706 119.112,151.759 C120.649,154.785 122.186,157.937 123.859,161.132 C125.021,163.398 126.235,165.710 127.472,168.042 C127.731,168.087 127.978,168.126 128.241,168.173 C129.225,168.360 130.236,168.551 131.269,168.747 C132.293,168.969 133.339,169.195 134.402,169.425 C138.645,170.372 143.096,171.573 147.481,172.948 C151.865,174.321 156.191,175.847 160.191,177.420 C160.787,177.655 161.348,177.922 161.921,178.178 C160.105,175.852 158.327,173.307 156.668,170.522 ZM196.942,271.853 C196.136,270.236 195.391,268.569 194.604,266.907 C193.825,265.241 193.040,263.561 192.250,261.870 C191.494,260.163 190.817,258.406 190.091,256.659 C189.376,254.909 188.658,253.147 187.935,251.377 C187.297,249.575 186.656,247.764 186.013,245.946 C185.390,244.121 184.684,242.317 184.125,240.459 C183.564,238.601 183.002,236.738 182.439,234.871 L181.595,232.070 C181.313,231.136 181.103,230.180 180.854,229.235 L179.415,223.550 C178.898,221.665 178.570,219.734 178.154,217.828 C177.764,215.915 177.349,214.010 176.981,212.101 C176.665,210.182 176.350,208.267 176.036,206.357 L175.567,203.499 C175.420,202.547 175.322,201.589 175.197,200.637 C174.962,198.732 174.727,196.834 174.493,194.946 C174.463,194.701 174.445,194.456 174.419,194.211 C173.448,194.365 172.356,194.501 171.175,194.561 C169.640,194.656 167.946,194.664 166.156,194.525 C162.571,194.258 158.595,193.415 154.584,191.871 C150.575,190.323 146.357,188.518 142.198,186.562 C140.064,185.558 137.948,184.508 135.884,183.430 C137.397,186.108 138.942,188.797 140.502,191.524 C142.578,194.996 144.609,198.551 146.783,202.059 C148.938,205.578 151.097,209.132 153.361,212.638 C154.483,214.397 155.608,216.160 156.733,217.924 L160.197,223.163 C164.811,230.155 169.626,237.006 174.452,243.681 C176.869,247.015 179.356,250.257 181.762,253.495 C184.246,256.672 186.699,259.812 189.111,262.900 C191.595,265.928 194.037,268.906 196.427,271.820 C196.864,272.329 197.291,272.824 197.725,273.328 C197.463,272.834 197.206,272.350 196.942,271.853 Z"/>
</svg>